solid chamfered_rectangle_new_shape_REALCAL_target1s09d50_scale0.97726_est4190s
  facet normal 0.00000000e+00 0.00000000e+00 -1.00000000e+00
    outer loop
      vertex 0.00000000 0.00000000 0.00000000
      vertex -7.81811227 -10.74990437 0.00000000
      vertex -11.72716841 -6.84084824 0.00000000
    endloop
  endfacet
  facet normal 0.00000000e+00 0.00000000e+00 1.00000000e+00
    outer loop
      vertex 0.00000000 0.00000000 19.20000000
      vertex -11.72716841 -6.84084824 19.20000000
      vertex -7.81811227 -10.74990437 19.20000000
    endloop
  endfacet
  facet normal -7.07106781e-01 -7.07106781e-01 0.00000000e+00
    outer loop
      vertex -11.72716841 -6.84084824 0.00000000
      vertex -7.81811227 -10.74990437 0.00000000
      vertex -7.81811227 -10.74990437 19.20000000
    endloop
  endfacet
  facet normal -7.07106781e-01 -7.07106781e-01 0.00000000e+00
    outer loop
      vertex -11.72716841 -6.84084824 0.00000000
      vertex -7.81811227 -10.74990437 19.20000000
      vertex -11.72716841 -6.84084824 19.20000000
    endloop
  endfacet
  facet normal 0.00000000e+00 -0.00000000e+00 -1.00000000e+00
    outer loop
      vertex 0.00000000 0.00000000 0.00000000
      vertex 7.81811227 -10.74990437 0.00000000
      vertex -7.81811227 -10.74990437 0.00000000
    endloop
  endfacet
  facet normal 0.00000000e+00 0.00000000e+00 1.00000000e+00
    outer loop
      vertex 0.00000000 0.00000000 19.20000000
      vertex -7.81811227 -10.74990437 19.20000000
      vertex 7.81811227 -10.74990437 19.20000000
    endloop
  endfacet
  facet normal 0.00000000e+00 -1.00000000e+00 0.00000000e+00
    outer loop
      vertex -7.81811227 -10.74990437 0.00000000
      vertex 7.81811227 -10.74990437 0.00000000
      vertex 7.81811227 -10.74990437 19.20000000
    endloop
  endfacet
  facet normal 0.00000000e+00 -1.00000000e+00 0.00000000e+00
    outer loop
      vertex -7.81811227 -10.74990437 0.00000000
      vertex 7.81811227 -10.74990437 19.20000000
      vertex -7.81811227 -10.74990437 19.20000000
    endloop
  endfacet
  facet normal 0.00000000e+00 0.00000000e+00 -1.00000000e+00
    outer loop
      vertex 0.00000000 0.00000000 0.00000000
      vertex 11.72716841 -6.84084824 0.00000000
      vertex 7.81811227 -10.74990437 0.00000000
    endloop
  endfacet
  facet normal 0.00000000e+00 0.00000000e+00 1.00000000e+00
    outer loop
      vertex 0.00000000 0.00000000 19.20000000
      vertex 7.81811227 -10.74990437 19.20000000
      vertex 11.72716841 -6.84084824 19.20000000
    endloop
  endfacet
  facet normal 7.07106781e-01 -7.07106781e-01 0.00000000e+00
    outer loop
      vertex 7.81811227 -10.74990437 0.00000000
      vertex 11.72716841 -6.84084824 0.00000000
      vertex 11.72716841 -6.84084824 19.20000000
    endloop
  endfacet
  facet normal 7.07106781e-01 -7.07106781e-01 0.00000000e+00
    outer loop
      vertex 7.81811227 -10.74990437 0.00000000
      vertex 11.72716841 -6.84084824 19.20000000
      vertex 7.81811227 -10.74990437 19.20000000
    endloop
  endfacet
  facet normal 0.00000000e+00 0.00000000e+00 -1.00000000e+00
    outer loop
      vertex 0.00000000 0.00000000 0.00000000
      vertex 11.72716841 6.84084824 0.00000000
      vertex 11.72716841 -6.84084824 0.00000000
    endloop
  endfacet
  facet normal -0.00000000e+00 0.00000000e+00 1.00000000e+00
    outer loop
      vertex 0.00000000 0.00000000 19.20000000
      vertex 11.72716841 -6.84084824 19.20000000
      vertex 11.72716841 6.84084824 19.20000000
    endloop
  endfacet
  facet normal 1.00000000e+00 0.00000000e+00 0.00000000e+00
    outer loop
      vertex 11.72716841 -6.84084824 0.00000000
      vertex 11.72716841 6.84084824 0.00000000
      vertex 11.72716841 6.84084824 19.20000000
    endloop
  endfacet
  facet normal 1.00000000e+00 0.00000000e+00 0.00000000e+00
    outer loop
      vertex 11.72716841 -6.84084824 0.00000000
      vertex 11.72716841 6.84084824 19.20000000
      vertex 11.72716841 -6.84084824 19.20000000
    endloop
  endfacet
  facet normal 0.00000000e+00 0.00000000e+00 -1.00000000e+00
    outer loop
      vertex 0.00000000 0.00000000 0.00000000
      vertex 7.81811227 10.74990437 0.00000000
      vertex 11.72716841 6.84084824 0.00000000
    endloop
  endfacet
  facet normal 0.00000000e+00 0.00000000e+00 1.00000000e+00
    outer loop
      vertex 0.00000000 0.00000000 19.20000000
      vertex 11.72716841 6.84084824 19.20000000
      vertex 7.81811227 10.74990437 19.20000000
    endloop
  endfacet
  facet normal 7.07106781e-01 7.07106781e-01 0.00000000e+00
    outer loop
      vertex 11.72716841 6.84084824 0.00000000
      vertex 7.81811227 10.74990437 0.00000000
      vertex 7.81811227 10.74990437 19.20000000
    endloop
  endfacet
  facet normal 7.07106781e-01 7.07106781e-01 0.00000000e+00
    outer loop
      vertex 11.72716841 6.84084824 0.00000000
      vertex 7.81811227 10.74990437 19.20000000
      vertex 11.72716841 6.84084824 19.20000000
    endloop
  endfacet
  facet normal 0.00000000e+00 0.00000000e+00 -1.00000000e+00
    outer loop
      vertex 0.00000000 0.00000000 0.00000000
      vertex -7.81811227 10.74990437 0.00000000
      vertex 7.81811227 10.74990437 0.00000000
    endloop
  endfacet
  facet normal 0.00000000e+00 -0.00000000e+00 1.00000000e+00
    outer loop
      vertex 0.00000000 0.00000000 19.20000000
      vertex 7.81811227 10.74990437 19.20000000
      vertex -7.81811227 10.74990437 19.20000000
    endloop
  endfacet
  facet normal 0.00000000e+00 1.00000000e+00 0.00000000e+00
    outer loop
      vertex 7.81811227 10.74990437 0.00000000
      vertex -7.81811227 10.74990437 0.00000000
      vertex -7.81811227 10.74990437 19.20000000
    endloop
  endfacet
  facet normal 0.00000000e+00 1.00000000e+00 0.00000000e+00
    outer loop
      vertex 7.81811227 10.74990437 0.00000000
      vertex -7.81811227 10.74990437 19.20000000
      vertex 7.81811227 10.74990437 19.20000000
    endloop
  endfacet
  facet normal 0.00000000e+00 0.00000000e+00 -1.00000000e+00
    outer loop
      vertex 0.00000000 0.00000000 0.00000000
      vertex -11.72716841 6.84084824 0.00000000
      vertex -7.81811227 10.74990437 0.00000000
    endloop
  endfacet
  facet normal 0.00000000e+00 0.00000000e+00 1.00000000e+00
    outer loop
      vertex 0.00000000 0.00000000 19.20000000
      vertex -7.81811227 10.74990437 19.20000000
      vertex -11.72716841 6.84084824 19.20000000
    endloop
  endfacet
  facet normal -7.07106781e-01 7.07106781e-01 0.00000000e+00
    outer loop
      vertex -7.81811227 10.74990437 0.00000000
      vertex -11.72716841 6.84084824 0.00000000
      vertex -11.72716841 6.84084824 19.20000000
    endloop
  endfacet
  facet normal -7.07106781e-01 7.07106781e-01 0.00000000e+00
    outer loop
      vertex -7.81811227 10.74990437 0.00000000
      vertex -11.72716841 6.84084824 19.20000000
      vertex -7.81811227 10.74990437 19.20000000
    endloop
  endfacet
  facet normal -0.00000000e+00 0.00000000e+00 -1.00000000e+00
    outer loop
      vertex 0.00000000 0.00000000 0.00000000
      vertex -11.72716841 -6.84084824 0.00000000
      vertex -11.72716841 6.84084824 0.00000000
    endloop
  endfacet
  facet normal 0.00000000e+00 0.00000000e+00 1.00000000e+00
    outer loop
      vertex 0.00000000 0.00000000 19.20000000
      vertex -11.72716841 6.84084824 19.20000000
      vertex -11.72716841 -6.84084824 19.20000000
    endloop
  endfacet
  facet normal -1.00000000e+00 0.00000000e+00 0.00000000e+00
    outer loop
      vertex -11.72716841 6.84084824 0.00000000
      vertex -11.72716841 -6.84084824 0.00000000
      vertex -11.72716841 -6.84084824 19.20000000
    endloop
  endfacet
  facet normal -1.00000000e+00 0.00000000e+00 0.00000000e+00
    outer loop
      vertex -11.72716841 6.84084824 0.00000000
      vertex -11.72716841 -6.84084824 19.20000000
      vertex -11.72716841 6.84084824 19.20000000
    endloop
  endfacet
endsolid chamfered_rectangle_new_shape_REALCAL_target1s09d50_scale0.97726_est4190s
