solid cloud_REALCAL_B_xy_linear_up_scale1.00980_target4168
  facet normal 0.00000000e+00 0.00000000e+00 -1.00000000e+00
    outer loop
      vertex 12.64097895 1.82903739 0.00000000
      vertex 12.24073043 0.01200638 0.00000000
      vertex 9.99418222 -1.42447271 0.00000000
    endloop
  endfacet
  facet normal 0.00000000e+00 -0.00000000e+00 -1.00000000e+00
    outer loop
      vertex 11.74893037 3.46084911 0.00000000
      vertex 12.64097895 1.82903739 0.00000000
      vertex 9.99418222 -1.42447271 0.00000000
    endloop
  endfacet
  facet normal 0.00000000e+00 -0.00000000e+00 -1.00000000e+00
    outer loop
      vertex 11.02663572 5.04621764 0.00000000
      vertex 11.74893037 3.46084911 0.00000000
      vertex 9.99418222 -1.42447271 0.00000000
    endloop
  endfacet
  facet normal 0.00000000e+00 -0.00000000e+00 -1.00000000e+00
    outer loop
      vertex 10.12395206 6.51618620 0.00000000
      vertex 11.02663572 5.04621764 0.00000000
      vertex 9.99418222 -1.42447271 0.00000000
    endloop
  endfacet
  facet normal 0.00000000e+00 0.00000000e+00 -1.00000000e+00
    outer loop
      vertex 8.63353867 7.49019347 0.00000000
      vertex 10.12395206 6.51618620 0.00000000
      vertex 9.99418222 -1.42447271 0.00000000
    endloop
  endfacet
  facet normal 0.00000000e+00 0.00000000e+00 -1.00000000e+00
    outer loop
      vertex 7.45436341 8.61104884 0.00000000
      vertex 8.63353867 7.49019347 0.00000000
      vertex 9.99418222 -1.42447271 0.00000000
    endloop
  endfacet
  facet normal 0.00000000e+00 0.00000000e+00 -1.00000000e+00
    outer loop
      vertex 6.67337233 10.39091823 0.00000000
      vertex 7.45436341 8.61104884 0.00000000
      vertex 9.99418222 -1.42447271 0.00000000
    endloop
  endfacet
  facet normal 0.00000000e+00 0.00000000e+00 -1.00000000e+00
    outer loop
      vertex 5.14907887 11.27979835 0.00000000
      vertex 6.67337233 10.39091823 0.00000000
      vertex 9.99418222 -1.42447271 0.00000000
    endloop
  endfacet
  facet normal 0.00000000e+00 0.00000000e+00 -1.00000000e+00
    outer loop
      vertex 2.94158266 10.01904603 0.00000000
      vertex 5.14907887 11.27979835 0.00000000
      vertex 9.99418222 -1.42447271 0.00000000
    endloop
  endfacet
  facet normal 0.00000000e+00 0.00000000e+00 -1.00000000e+00
    outer loop
      vertex 1.22572741 8.51451863 0.00000000
      vertex 2.94158266 10.01904603 0.00000000
      vertex 9.99418222 -1.42447271 0.00000000
    endloop
  endfacet
  facet normal 0.00000000e+00 0.00000000e+00 -1.00000000e+00
    outer loop
      vertex 0.00325070 9.00524361 0.00000000
      vertex 1.22572741 8.51451863 0.00000000
      vertex 9.99418222 -1.42447271 0.00000000
    endloop
  endfacet
  facet normal 0.00000000e+00 0.00000000e+00 -1.00000000e+00
    outer loop
      vertex -1.49393033 10.42512924 0.00000000
      vertex 0.00325070 9.00524361 0.00000000
      vertex 9.99418222 -1.42447271 0.00000000
    endloop
  endfacet
  facet normal 0.00000000e+00 0.00000000e+00 -1.00000000e+00
    outer loop
      vertex -3.14757405 10.74273002 0.00000000
      vertex -1.49393033 10.42512924 0.00000000
      vertex 9.99418222 -1.42447271 0.00000000
    endloop
  endfacet
  facet normal 0.00000000e+00 0.00000000e+00 -1.00000000e+00
    outer loop
      vertex -4.67950751 10.26581658 0.00000000
      vertex -3.14757405 10.74273002 0.00000000
      vertex 9.99418222 -1.42447271 0.00000000
    endloop
  endfacet
  facet normal 0.00000000e+00 0.00000000e+00 -1.00000000e+00
    outer loop
      vertex -6.32808280 9.86375361 0.00000000
      vertex -4.67950751 10.26581658 0.00000000
      vertex 9.99418222 -1.42447271 0.00000000
    endloop
  endfacet
  facet normal 0.00000000e+00 0.00000000e+00 -1.00000000e+00
    outer loop
      vertex -7.73412796 8.94141737 0.00000000
      vertex -6.32808280 9.86375361 0.00000000
      vertex 9.99418222 -1.42447271 0.00000000
    endloop
  endfacet
  facet normal 0.00000000e+00 0.00000000e+00 -1.00000000e+00
    outer loop
      vertex -8.45049186 7.33721602 0.00000000
      vertex -7.73412796 8.94141737 0.00000000
      vertex 9.99418222 -1.42447271 0.00000000
    endloop
  endfacet
  facet normal 0.00000000e+00 0.00000000e+00 -1.00000000e+00
    outer loop
      vertex -9.53721209 6.14328952 0.00000000
      vertex -8.45049186 7.33721602 0.00000000
      vertex 9.99418222 -1.42447271 0.00000000
    endloop
  endfacet
  facet normal 0.00000000e+00 0.00000000e+00 -1.00000000e+00
    outer loop
      vertex -11.76669313 5.38715962 0.00000000
      vertex -9.53721209 6.14328952 0.00000000
      vertex 9.99418222 -1.42447271 0.00000000
    endloop
  endfacet
  facet normal 0.00000000e+00 0.00000000e+00 -1.00000000e+00
    outer loop
      vertex -13.25570968 3.90518842 0.00000000
      vertex -11.76669313 5.38715962 0.00000000
      vertex 9.99418222 -1.42447271 0.00000000
    endloop
  endfacet
  facet normal 0.00000000e+00 0.00000000e+00 -1.00000000e+00
    outer loop
      vertex -12.19075945 1.76524036 0.00000000
      vertex -13.25570968 3.90518842 0.00000000
      vertex 9.99418222 -1.42447271 0.00000000
    endloop
  endfacet
  facet normal 0.00000000e+00 0.00000000e+00 -1.00000000e+00
    outer loop
      vertex -10.17234401 0.01200638 0.00000000
      vertex -12.19075945 1.76524036 0.00000000
      vertex 9.99418222 -1.42447271 0.00000000
    endloop
  endfacet
  facet normal 0.00000000e+00 0.00000000e+00 -1.00000000e+00
    outer loop
      vertex -9.54396272 -1.36067567 0.00000000
      vertex -10.17234401 0.01200638 0.00000000
      vertex 9.99418222 -1.42447271 0.00000000
    endloop
  endfacet
  facet normal 0.00000000e+00 0.00000000e+00 -1.00000000e+00
    outer loop
      vertex -9.75625708 -2.85364367 0.00000000
      vertex -9.54396272 -1.36067567 0.00000000
      vertex 9.99418222 -1.42447271 0.00000000
    endloop
  endfacet
  facet normal 0.00000000e+00 0.00000000e+00 -1.00000000e+00
    outer loop
      vertex -9.36101390 -4.26450997 0.00000000
      vertex -9.75625708 -2.85364367 0.00000000
      vertex 9.99418222 -1.42447271 0.00000000
    endloop
  endfacet
  facet normal 0.00000000e+00 0.00000000e+00 -1.00000000e+00
    outer loop
      vertex -8.73112601 -5.60123670 0.00000000
      vertex -9.36101390 -4.26450997 0.00000000
      vertex 9.99418222 -1.42447271 0.00000000
    endloop
  endfacet
  facet normal 0.00000000e+00 0.00000000e+00 -1.00000000e+00
    outer loop
      vertex -8.30513281 -7.18724891 0.00000000
      vertex -8.73112601 -5.60123670 0.00000000
      vertex 9.99418222 -1.42447271 0.00000000
    endloop
  endfacet
  facet normal 0.00000000e+00 0.00000000e+00 -1.00000000e+00
    outer loop
      vertex -7.22307898 -8.32762264 0.00000000
      vertex -8.30513281 -7.18724891 0.00000000
      vertex 9.99418222 -1.42447271 0.00000000
    endloop
  endfacet
  facet normal 0.00000000e+00 0.00000000e+00 -1.00000000e+00
    outer loop
      vertex -5.44405055 -8.46415982 0.00000000
      vertex -7.22307898 -8.32762264 0.00000000
      vertex 9.99418222 -1.42447271 0.00000000
    endloop
  endfacet
  facet normal 0.00000000e+00 0.00000000e+00 -1.00000000e+00
    outer loop
      vertex -4.16164873 -9.10785128 0.00000000
      vertex -5.44405055 -8.46415982 0.00000000
      vertex 9.99418222 -1.42447271 0.00000000
    endloop
  endfacet
  facet normal 0.00000000e+00 0.00000000e+00 -1.00000000e+00
    outer loop
      vertex -1.96398565 -13.67042304 0.00000000
      vertex -3.37291011 -11.48614142 0.00000000
      vertex -4.16164873 -9.10785128 0.00000000
    endloop
  endfacet
  facet normal -0.00000000e+00 0.00000000e+00 -1.00000000e+00
    outer loop
      vertex 0.00325070 -13.40783085 0.00000000
      vertex -1.96398565 -13.67042304 0.00000000
      vertex -4.16164873 -9.10785128 0.00000000
    endloop
  endfacet
  facet normal -0.00000000e+00 0.00000000e+00 -1.00000000e+00
    outer loop
      vertex 1.69578273 -11.75981243 0.00000000
      vertex 0.00325070 -13.40783085 0.00000000
      vertex -4.16164873 -9.10785128 0.00000000
    endloop
  endfacet
  facet normal -0.00000000e+00 0.00000000e+00 -1.00000000e+00
    outer loop
      vertex 3.16691873 -10.76245743 0.00000000
      vertex 1.69578273 -11.75981243 0.00000000
      vertex -4.16164873 -9.10785128 0.00000000
    endloop
  endfacet
  facet normal -0.00000000e+00 0.00000000e+00 -1.00000000e+00
    outer loop
      vertex 4.63122011 -10.12183305 0.00000000
      vertex 3.16691873 -10.76245743 0.00000000
      vertex -4.16164873 -9.10785128 0.00000000
    endloop
  endfacet
  facet normal 0.00000000e+00 0.00000000e+00 -1.00000000e+00
    outer loop
      vertex 5.78934009 -8.99132445 0.00000000
      vertex 4.63122011 -10.12183305 0.00000000
      vertex -4.16164873 -9.10785128 0.00000000
    endloop
  endfacet
  facet normal 0.00000000e+00 0.00000000e+00 -1.00000000e+00
    outer loop
      vertex 6.94331442 -7.99725411 0.00000000
      vertex 5.78934009 -8.99132445 0.00000000
      vertex -4.16164873 -9.10785128 0.00000000
    endloop
  endfacet
  facet normal 0.00000000e+00 0.00000000e+00 -1.00000000e+00
    outer loop
      vertex 8.48817960 -7.34022636 0.00000000
      vertex 6.94331442 -7.99725411 0.00000000
      vertex -4.16164873 -9.10785128 0.00000000
    endloop
  endfacet
  facet normal 0.00000000e+00 0.00000000e+00 -1.00000000e+00
    outer loop
      vertex 9.31786597 -5.97413336 0.00000000
      vertex 8.48817960 -7.34022636 0.00000000
      vertex -4.16164873 -9.10785128 0.00000000
    endloop
  endfacet
  facet normal 0.00000000e+00 -0.00000000e+00 -1.00000000e+00
    outer loop
      vertex 8.62095651 -3.92356798 0.00000000
      vertex 9.31786597 -5.97413336 0.00000000
      vertex -4.16164873 -9.10785128 0.00000000
    endloop
  endfacet
  facet normal 0.00000000e+00 -0.00000000e+00 -1.00000000e+00
    outer loop
      vertex 8.24947777 -2.40930435 0.00000000
      vertex 8.62095651 -3.92356798 0.00000000
      vertex -4.16164873 -9.10785128 0.00000000
    endloop
  endfacet
  facet normal 0.00000000e+00 0.00000000e+00 -1.00000000e+00
    outer loop
      vertex 9.99418222 -1.42447271 0.00000000
      vertex 8.24947777 -2.40930435 0.00000000
      vertex -4.16164873 -9.10785128 0.00000000
    endloop
  endfacet
  facet normal 0.00000000e+00 0.00000000e+00 1.00000000e+00
    outer loop
      vertex 9.99418222 -1.42447271 19.10000000
      vertex 12.24073043 0.01200638 19.10000000
      vertex 12.64097895 1.82903739 19.10000000
    endloop
  endfacet
  facet normal 0.00000000e+00 0.00000000e+00 1.00000000e+00
    outer loop
      vertex 9.99418222 -1.42447271 19.10000000
      vertex 12.64097895 1.82903739 19.10000000
      vertex 11.74893037 3.46084911 19.10000000
    endloop
  endfacet
  facet normal 0.00000000e+00 0.00000000e+00 1.00000000e+00
    outer loop
      vertex 9.99418222 -1.42447271 19.10000000
      vertex 11.74893037 3.46084911 19.10000000
      vertex 11.02663572 5.04621764 19.10000000
    endloop
  endfacet
  facet normal 0.00000000e+00 0.00000000e+00 1.00000000e+00
    outer loop
      vertex 9.99418222 -1.42447271 19.10000000
      vertex 11.02663572 5.04621764 19.10000000
      vertex 10.12395206 6.51618620 19.10000000
    endloop
  endfacet
  facet normal 0.00000000e+00 -0.00000000e+00 1.00000000e+00
    outer loop
      vertex 9.99418222 -1.42447271 19.10000000
      vertex 10.12395206 6.51618620 19.10000000
      vertex 8.63353867 7.49019347 19.10000000
    endloop
  endfacet
  facet normal 0.00000000e+00 0.00000000e+00 1.00000000e+00
    outer loop
      vertex 9.99418222 -1.42447271 19.10000000
      vertex 8.63353867 7.49019347 19.10000000
      vertex 7.45436341 8.61104884 19.10000000
    endloop
  endfacet
  facet normal 0.00000000e+00 0.00000000e+00 1.00000000e+00
    outer loop
      vertex 9.99418222 -1.42447271 19.10000000
      vertex 7.45436341 8.61104884 19.10000000
      vertex 6.67337233 10.39091823 19.10000000
    endloop
  endfacet
  facet normal 0.00000000e+00 0.00000000e+00 1.00000000e+00
    outer loop
      vertex 9.99418222 -1.42447271 19.10000000
      vertex 6.67337233 10.39091823 19.10000000
      vertex 5.14907887 11.27979835 19.10000000
    endloop
  endfacet
  facet normal 0.00000000e+00 0.00000000e+00 1.00000000e+00
    outer loop
      vertex 9.99418222 -1.42447271 19.10000000
      vertex 5.14907887 11.27979835 19.10000000
      vertex 2.94158266 10.01904603 19.10000000
    endloop
  endfacet
  facet normal 0.00000000e+00 0.00000000e+00 1.00000000e+00
    outer loop
      vertex 9.99418222 -1.42447271 19.10000000
      vertex 2.94158266 10.01904603 19.10000000
      vertex 1.22572741 8.51451863 19.10000000
    endloop
  endfacet
  facet normal 0.00000000e+00 0.00000000e+00 1.00000000e+00
    outer loop
      vertex 9.99418222 -1.42447271 19.10000000
      vertex 1.22572741 8.51451863 19.10000000
      vertex 0.00325070 9.00524361 19.10000000
    endloop
  endfacet
  facet normal 0.00000000e+00 0.00000000e+00 1.00000000e+00
    outer loop
      vertex 9.99418222 -1.42447271 19.10000000
      vertex 0.00325070 9.00524361 19.10000000
      vertex -1.49393033 10.42512924 19.10000000
    endloop
  endfacet
  facet normal 0.00000000e+00 0.00000000e+00 1.00000000e+00
    outer loop
      vertex 9.99418222 -1.42447271 19.10000000
      vertex -1.49393033 10.42512924 19.10000000
      vertex -3.14757405 10.74273002 19.10000000
    endloop
  endfacet
  facet normal 0.00000000e+00 0.00000000e+00 1.00000000e+00
    outer loop
      vertex 9.99418222 -1.42447271 19.10000000
      vertex -3.14757405 10.74273002 19.10000000
      vertex -4.67950751 10.26581658 19.10000000
    endloop
  endfacet
  facet normal 0.00000000e+00 0.00000000e+00 1.00000000e+00
    outer loop
      vertex 9.99418222 -1.42447271 19.10000000
      vertex -4.67950751 10.26581658 19.10000000
      vertex -6.32808280 9.86375361 19.10000000
    endloop
  endfacet
  facet normal 0.00000000e+00 0.00000000e+00 1.00000000e+00
    outer loop
      vertex 9.99418222 -1.42447271 19.10000000
      vertex -6.32808280 9.86375361 19.10000000
      vertex -7.73412796 8.94141737 19.10000000
    endloop
  endfacet
  facet normal 0.00000000e+00 0.00000000e+00 1.00000000e+00
    outer loop
      vertex 9.99418222 -1.42447271 19.10000000
      vertex -7.73412796 8.94141737 19.10000000
      vertex -8.45049186 7.33721602 19.10000000
    endloop
  endfacet
  facet normal 0.00000000e+00 0.00000000e+00 1.00000000e+00
    outer loop
      vertex 9.99418222 -1.42447271 19.10000000
      vertex -8.45049186 7.33721602 19.10000000
      vertex -9.53721209 6.14328952 19.10000000
    endloop
  endfacet
  facet normal 0.00000000e+00 0.00000000e+00 1.00000000e+00
    outer loop
      vertex 9.99418222 -1.42447271 19.10000000
      vertex -9.53721209 6.14328952 19.10000000
      vertex -11.76669313 5.38715962 19.10000000
    endloop
  endfacet
  facet normal 0.00000000e+00 0.00000000e+00 1.00000000e+00
    outer loop
      vertex 9.99418222 -1.42447271 19.10000000
      vertex -11.76669313 5.38715962 19.10000000
      vertex -13.25570968 3.90518842 19.10000000
    endloop
  endfacet
  facet normal 0.00000000e+00 0.00000000e+00 1.00000000e+00
    outer loop
      vertex 9.99418222 -1.42447271 19.10000000
      vertex -13.25570968 3.90518842 19.10000000
      vertex -12.19075945 1.76524036 19.10000000
    endloop
  endfacet
  facet normal 0.00000000e+00 0.00000000e+00 1.00000000e+00
    outer loop
      vertex 9.99418222 -1.42447271 19.10000000
      vertex -12.19075945 1.76524036 19.10000000
      vertex -10.17234401 0.01200638 19.10000000
    endloop
  endfacet
  facet normal 0.00000000e+00 0.00000000e+00 1.00000000e+00
    outer loop
      vertex 9.99418222 -1.42447271 19.10000000
      vertex -10.17234401 0.01200638 19.10000000
      vertex -9.54396272 -1.36067567 19.10000000
    endloop
  endfacet
  facet normal 0.00000000e+00 0.00000000e+00 1.00000000e+00
    outer loop
      vertex 9.99418222 -1.42447271 19.10000000
      vertex -9.54396272 -1.36067567 19.10000000
      vertex -9.75625708 -2.85364367 19.10000000
    endloop
  endfacet
  facet normal 0.00000000e+00 0.00000000e+00 1.00000000e+00
    outer loop
      vertex 9.99418222 -1.42447271 19.10000000
      vertex -9.75625708 -2.85364367 19.10000000
      vertex -9.36101390 -4.26450997 19.10000000
    endloop
  endfacet
  facet normal 0.00000000e+00 0.00000000e+00 1.00000000e+00
    outer loop
      vertex 9.99418222 -1.42447271 19.10000000
      vertex -9.36101390 -4.26450997 19.10000000
      vertex -8.73112601 -5.60123670 19.10000000
    endloop
  endfacet
  facet normal 0.00000000e+00 0.00000000e+00 1.00000000e+00
    outer loop
      vertex 9.99418222 -1.42447271 19.10000000
      vertex -8.73112601 -5.60123670 19.10000000
      vertex -8.30513281 -7.18724891 19.10000000
    endloop
  endfacet
  facet normal 0.00000000e+00 0.00000000e+00 1.00000000e+00
    outer loop
      vertex 9.99418222 -1.42447271 19.10000000
      vertex -8.30513281 -7.18724891 19.10000000
      vertex -7.22307898 -8.32762264 19.10000000
    endloop
  endfacet
  facet normal 0.00000000e+00 0.00000000e+00 1.00000000e+00
    outer loop
      vertex 9.99418222 -1.42447271 19.10000000
      vertex -7.22307898 -8.32762264 19.10000000
      vertex -5.44405055 -8.46415982 19.10000000
    endloop
  endfacet
  facet normal 0.00000000e+00 0.00000000e+00 1.00000000e+00
    outer loop
      vertex 9.99418222 -1.42447271 19.10000000
      vertex -5.44405055 -8.46415982 19.10000000
      vertex -4.16164873 -9.10785128 19.10000000
    endloop
  endfacet
  facet normal 0.00000000e+00 0.00000000e+00 1.00000000e+00
    outer loop
      vertex -4.16164873 -9.10785128 19.10000000
      vertex -3.37291011 -11.48614142 19.10000000
      vertex -1.96398565 -13.67042304 19.10000000
    endloop
  endfacet
  facet normal 0.00000000e+00 0.00000000e+00 1.00000000e+00
    outer loop
      vertex -4.16164873 -9.10785128 19.10000000
      vertex -1.96398565 -13.67042304 19.10000000
      vertex 0.00325070 -13.40783085 19.10000000
    endloop
  endfacet
  facet normal 0.00000000e+00 0.00000000e+00 1.00000000e+00
    outer loop
      vertex -4.16164873 -9.10785128 19.10000000
      vertex 0.00325070 -13.40783085 19.10000000
      vertex 1.69578273 -11.75981243 19.10000000
    endloop
  endfacet
  facet normal 0.00000000e+00 0.00000000e+00 1.00000000e+00
    outer loop
      vertex -4.16164873 -9.10785128 19.10000000
      vertex 1.69578273 -11.75981243 19.10000000
      vertex 3.16691873 -10.76245743 19.10000000
    endloop
  endfacet
  facet normal 0.00000000e+00 0.00000000e+00 1.00000000e+00
    outer loop
      vertex -4.16164873 -9.10785128 19.10000000
      vertex 3.16691873 -10.76245743 19.10000000
      vertex 4.63122011 -10.12183305 19.10000000
    endloop
  endfacet
  facet normal -0.00000000e+00 0.00000000e+00 1.00000000e+00
    outer loop
      vertex -4.16164873 -9.10785128 19.10000000
      vertex 4.63122011 -10.12183305 19.10000000
      vertex 5.78934009 -8.99132445 19.10000000
    endloop
  endfacet
  facet normal 0.00000000e+00 0.00000000e+00 1.00000000e+00
    outer loop
      vertex -4.16164873 -9.10785128 19.10000000
      vertex 5.78934009 -8.99132445 19.10000000
      vertex 6.94331442 -7.99725411 19.10000000
    endloop
  endfacet
  facet normal 0.00000000e+00 0.00000000e+00 1.00000000e+00
    outer loop
      vertex -4.16164873 -9.10785128 19.10000000
      vertex 6.94331442 -7.99725411 19.10000000
      vertex 8.48817960 -7.34022636 19.10000000
    endloop
  endfacet
  facet normal 0.00000000e+00 0.00000000e+00 1.00000000e+00
    outer loop
      vertex -4.16164873 -9.10785128 19.10000000
      vertex 8.48817960 -7.34022636 19.10000000
      vertex 9.31786597 -5.97413336 19.10000000
    endloop
  endfacet
  facet normal 0.00000000e+00 0.00000000e+00 1.00000000e+00
    outer loop
      vertex -4.16164873 -9.10785128 19.10000000
      vertex 9.31786597 -5.97413336 19.10000000
      vertex 8.62095651 -3.92356798 19.10000000
    endloop
  endfacet
  facet normal 0.00000000e+00 0.00000000e+00 1.00000000e+00
    outer loop
      vertex -4.16164873 -9.10785128 19.10000000
      vertex 8.62095651 -3.92356798 19.10000000
      vertex 8.24947777 -2.40930435 19.10000000
    endloop
  endfacet
  facet normal 0.00000000e+00 0.00000000e+00 1.00000000e+00
    outer loop
      vertex -4.16164873 -9.10785128 19.10000000
      vertex 8.24947777 -2.40930435 19.10000000
      vertex 9.99418222 -1.42447271 19.10000000
    endloop
  endfacet
  facet normal 9.76587850e-01 -2.15118969e-01 0.00000000e+00
    outer loop
      vertex 12.24073043 0.01200638 0.00000000
      vertex 12.64097895 1.82903739 0.00000000
      vertex 12.64097895 1.82903739 19.10000000
    endloop
  endfacet
  facet normal 9.76587850e-01 -2.15118969e-01 0.00000000e+00
    outer loop
      vertex 12.24073043 0.01200638 0.00000000
      vertex 12.64097895 1.82903739 19.10000000
      vertex 12.24073043 0.01200638 19.10000000
    endloop
  endfacet
  facet normal 8.77450006e-01 4.79668101e-01 0.00000000e+00
    outer loop
      vertex 12.64097895 1.82903739 0.00000000
      vertex 11.74893037 3.46084911 0.00000000
      vertex 11.74893037 3.46084911 19.10000000
    endloop
  endfacet
  facet normal 8.77450006e-01 4.79668101e-01 -0.00000000e+00
    outer loop
      vertex 12.64097895 1.82903739 0.00000000
      vertex 11.74893037 3.46084911 19.10000000
      vertex 12.64097895 1.82903739 19.10000000
    endloop
  endfacet
  facet normal 9.10004459e-01 4.14598461e-01 0.00000000e+00
    outer loop
      vertex 11.74893037 3.46084911 0.00000000
      vertex 11.02663572 5.04621764 0.00000000
      vertex 11.02663572 5.04621764 19.10000000
    endloop
  endfacet
  facet normal 9.10004459e-01 4.14598461e-01 -0.00000000e+00
    outer loop
      vertex 11.74893037 3.46084911 0.00000000
      vertex 11.02663572 5.04621764 19.10000000
      vertex 11.74893037 3.46084911 19.10000000
    endloop
  endfacet
  facet normal 8.52152769e-01 5.23293090e-01 0.00000000e+00
    outer loop
      vertex 11.02663572 5.04621764 0.00000000
      vertex 10.12395206 6.51618620 0.00000000
      vertex 10.12395206 6.51618620 19.10000000
    endloop
  endfacet
  facet normal 8.52152769e-01 5.23293090e-01 -0.00000000e+00
    outer loop
      vertex 11.02663572 5.04621764 0.00000000
      vertex 10.12395206 6.51618620 19.10000000
      vertex 11.02663572 5.04621764 19.10000000
    endloop
  endfacet
  facet normal 5.47055069e-01 8.37096620e-01 0.00000000e+00
    outer loop
      vertex 10.12395206 6.51618620 0.00000000
      vertex 8.63353867 7.49019347 0.00000000
      vertex 8.63353867 7.49019347 19.10000000
    endloop
  endfacet
  facet normal 5.47055069e-01 8.37096620e-01 -0.00000000e+00
    outer loop
      vertex 10.12395206 6.51618620 0.00000000
      vertex 8.63353867 7.49019347 19.10000000
      vertex 10.12395206 6.51618620 19.10000000
    endloop
  endfacet
  facet normal 6.88955841e-01 7.24803317e-01 0.00000000e+00
    outer loop
      vertex 8.63353867 7.49019347 0.00000000
      vertex 7.45436341 8.61104884 0.00000000
      vertex 7.45436341 8.61104884 19.10000000
    endloop
  endfacet
  facet normal 6.88955841e-01 7.24803317e-01 -0.00000000e+00
    outer loop
      vertex 8.63353867 7.49019347 0.00000000
      vertex 7.45436341 8.61104884 19.10000000
      vertex 8.63353867 7.49019347 19.10000000
    endloop
  endfacet
  facet normal 9.15722604e-01 4.01811041e-01 0.00000000e+00
    outer loop
      vertex 7.45436341 8.61104884 0.00000000
      vertex 6.67337233 10.39091823 0.00000000
      vertex 6.67337233 10.39091823 19.10000000
    endloop
  endfacet
  facet normal 9.15722604e-01 4.01811041e-01 -0.00000000e+00
    outer loop
      vertex 7.45436341 8.61104884 0.00000000
      vertex 6.67337233 10.39091823 19.10000000
      vertex 7.45436341 8.61104884 19.10000000
    endloop
  endfacet
  facet normal 5.03747948e-01 8.63850684e-01 0.00000000e+00
    outer loop
      vertex 6.67337233 10.39091823 0.00000000
      vertex 5.14907887 11.27979835 0.00000000
      vertex 5.14907887 11.27979835 19.10000000
    endloop
  endfacet
  facet normal 5.03747948e-01 8.63850684e-01 -0.00000000e+00
    outer loop
      vertex 6.67337233 10.39091823 0.00000000
      vertex 5.14907887 11.27979835 19.10000000
      vertex 6.67337233 10.39091823 19.10000000
    endloop
  endfacet
  facet normal -4.95939034e-01 8.68357343e-01 0.00000000e+00
    outer loop
      vertex 5.14907887 11.27979835 0.00000000
      vertex 2.94158266 10.01904603 0.00000000
      vertex 2.94158266 10.01904603 19.10000000
    endloop
  endfacet
  facet normal -4.95939034e-01 8.68357343e-01 0.00000000e+00
    outer loop
      vertex 5.14907887 11.27979835 0.00000000
      vertex 2.94158266 10.01904603 19.10000000
      vertex 5.14907887 11.27979835 19.10000000
    endloop
  endfacet
  facet normal -6.59287042e-01 7.51891346e-01 0.00000000e+00
    outer loop
      vertex 2.94158266 10.01904603 0.00000000
      vertex 1.22572741 8.51451863 0.00000000
      vertex 1.22572741 8.51451863 19.10000000
    endloop
  endfacet
  facet normal -6.59287042e-01 7.51891346e-01 0.00000000e+00
    outer loop
      vertex 2.94158266 10.01904603 0.00000000
      vertex 1.22572741 8.51451863 19.10000000
      vertex 2.94158266 10.01904603 19.10000000
    endloop
  endfacet
  facet normal 3.72525364e-01 9.28022011e-01 0.00000000e+00
    outer loop
      vertex 1.22572741 8.51451863 0.00000000
      vertex 0.00325070 9.00524361 0.00000000
      vertex 0.00325070 9.00524361 19.10000000
    endloop
  endfacet
  facet normal 3.72525364e-01 9.28022011e-01 -0.00000000e+00
    outer loop
      vertex 1.22572741 8.51451863 0.00000000
      vertex 0.00325070 9.00524361 19.10000000
      vertex 1.22572741 8.51451863 19.10000000
    endloop
  endfacet
  facet normal 6.88128581e-01 7.25588765e-01 0.00000000e+00
    outer loop
      vertex 0.00325070 9.00524361 0.00000000
      vertex -1.49393033 10.42512924 0.00000000
      vertex -1.49393033 10.42512924 19.10000000
    endloop
  endfacet
  facet normal 6.88128581e-01 7.25588765e-01 -0.00000000e+00
    outer loop
      vertex 0.00325070 9.00524361 0.00000000
      vertex -1.49393033 10.42512924 19.10000000
      vertex 0.00325070 9.00524361 19.10000000
    endloop
  endfacet
  facet normal 1.88613948e-01 9.82051312e-01 0.00000000e+00
    outer loop
      vertex -1.49393033 10.42512924 0.00000000
      vertex -3.14757405 10.74273002 0.00000000
      vertex -3.14757405 10.74273002 19.10000000
    endloop
  endfacet
  facet normal 1.88613948e-01 9.82051312e-01 -0.00000000e+00
    outer loop
      vertex -1.49393033 10.42512924 0.00000000
      vertex -3.14757405 10.74273002 19.10000000
      vertex -1.49393033 10.42512924 19.10000000
    endloop
  endfacet
  facet normal -2.97243803e-01 9.54801614e-01 0.00000000e+00
    outer loop
      vertex -3.14757405 10.74273002 0.00000000
      vertex -4.67950751 10.26581658 0.00000000
      vertex -4.67950751 10.26581658 19.10000000
    endloop
  endfacet
  facet normal -2.97243803e-01 9.54801614e-01 0.00000000e+00
    outer loop
      vertex -3.14757405 10.74273002 0.00000000
      vertex -4.67950751 10.26581658 19.10000000
      vertex -3.14757405 10.74273002 19.10000000
    endloop
  endfacet
  facet normal -2.36940289e-01 9.71524214e-01 0.00000000e+00
    outer loop
      vertex -4.67950751 10.26581658 0.00000000
      vertex -6.32808280 9.86375361 0.00000000
      vertex -6.32808280 9.86375361 19.10000000
    endloop
  endfacet
  facet normal -2.36940289e-01 9.71524214e-01 0.00000000e+00
    outer loop
      vertex -4.67950751 10.26581658 0.00000000
      vertex -6.32808280 9.86375361 19.10000000
      vertex -4.67950751 10.26581658 19.10000000
    endloop
  endfacet
  facet normal -5.48498104e-01 8.36151799e-01 0.00000000e+00
    outer loop
      vertex -6.32808280 9.86375361 0.00000000
      vertex -7.73412796 8.94141737 0.00000000
      vertex -7.73412796 8.94141737 19.10000000
    endloop
  endfacet
  facet normal -5.48498104e-01 8.36151799e-01 0.00000000e+00
    outer loop
      vertex -6.32808280 9.86375361 0.00000000
      vertex -7.73412796 8.94141737 19.10000000
      vertex -6.32808280 9.86375361 19.10000000
    endloop
  endfacet
  facet normal -9.13094955e-01 4.07746985e-01 0.00000000e+00
    outer loop
      vertex -7.73412796 8.94141737 0.00000000
      vertex -8.45049186 7.33721602 0.00000000
      vertex -8.45049186 7.33721602 19.10000000
    endloop
  endfacet
  facet normal -9.13094955e-01 4.07746985e-01 0.00000000e+00
    outer loop
      vertex -7.73412796 8.94141737 0.00000000
      vertex -8.45049186 7.33721602 19.10000000
      vertex -7.73412796 8.94141737 19.10000000
    endloop
  endfacet
  facet normal -7.39529119e-01 6.73124567e-01 0.00000000e+00
    outer loop
      vertex -8.45049186 7.33721602 0.00000000
      vertex -9.53721209 6.14328952 0.00000000
      vertex -9.53721209 6.14328952 19.10000000
    endloop
  endfacet
  facet normal -7.39529119e-01 6.73124567e-01 0.00000000e+00
    outer loop
      vertex -8.45049186 7.33721602 0.00000000
      vertex -9.53721209 6.14328952 19.10000000
      vertex -8.45049186 7.33721602 19.10000000
    endloop
  endfacet
  facet normal -3.21181622e-01 9.47017616e-01 0.00000000e+00
    outer loop
      vertex -9.53721209 6.14328952 0.00000000
      vertex -11.76669313 5.38715962 0.00000000
      vertex -11.76669313 5.38715962 19.10000000
    endloop
  endfacet
  facet normal -3.21181622e-01 9.47017616e-01 0.00000000e+00
    outer loop
      vertex -9.53721209 6.14328952 0.00000000
      vertex -11.76669313 5.38715962 19.10000000
      vertex -9.53721209 6.14328952 19.10000000
    endloop
  endfacet
  facet normal -7.05427978e-01 7.08781608e-01 0.00000000e+00
    outer loop
      vertex -11.76669313 5.38715962 0.00000000
      vertex -13.25570968 3.90518842 0.00000000
      vertex -13.25570968 3.90518842 19.10000000
    endloop
  endfacet
  facet normal -7.05427978e-01 7.08781608e-01 0.00000000e+00
    outer loop
      vertex -11.76669313 5.38715962 0.00000000
      vertex -13.25570968 3.90518842 19.10000000
      vertex -11.76669313 5.38715962 19.10000000
    endloop
  endfacet
  facet normal -8.95266312e-01 -4.45531403e-01 0.00000000e+00
    outer loop
      vertex -13.25570968 3.90518842 0.00000000
      vertex -12.19075945 1.76524036 0.00000000
      vertex -12.19075945 1.76524036 19.10000000
    endloop
  endfacet
  facet normal -8.95266312e-01 -4.45531403e-01 0.00000000e+00
    outer loop
      vertex -13.25570968 3.90518842 0.00000000
      vertex -12.19075945 1.76524036 19.10000000
      vertex -13.25570968 3.90518842 19.10000000
    endloop
  endfacet
  facet normal -6.55771839e-01 -7.54959135e-01 0.00000000e+00
    outer loop
      vertex -12.19075945 1.76524036 0.00000000
      vertex -10.17234401 0.01200638 0.00000000
      vertex -10.17234401 0.01200638 19.10000000
    endloop
  endfacet
  facet normal -6.55771839e-01 -7.54959135e-01 0.00000000e+00
    outer loop
      vertex -12.19075945 1.76524036 0.00000000
      vertex -10.17234401 0.01200638 19.10000000
      vertex -12.19075945 1.76524036 19.10000000
    endloop
  endfacet
  facet normal -9.09256571e-01 -4.16236097e-01 0.00000000e+00
    outer loop
      vertex -10.17234401 0.01200638 0.00000000
      vertex -9.54396272 -1.36067567 0.00000000
      vertex -9.54396272 -1.36067567 19.10000000
    endloop
  endfacet
  facet normal -9.09256571e-01 -4.16236097e-01 0.00000000e+00
    outer loop
      vertex -10.17234401 0.01200638 0.00000000
      vertex -9.54396272 -1.36067567 19.10000000
      vertex -10.17234401 0.01200638 19.10000000
    endloop
  endfacet
  facet normal -9.90040898e-01 1.40780044e-01 0.00000000e+00
    outer loop
      vertex -9.54396272 -1.36067567 0.00000000
      vertex -9.75625708 -2.85364367 0.00000000
      vertex -9.75625708 -2.85364367 19.10000000
    endloop
  endfacet
  facet normal -9.90040898e-01 1.40780044e-01 0.00000000e+00
    outer loop
      vertex -9.54396272 -1.36067567 0.00000000
      vertex -9.75625708 -2.85364367 19.10000000
      vertex -9.54396272 -1.36067567 19.10000000
    endloop
  endfacet
  facet normal -9.62928463e-01 -2.69756881e-01 0.00000000e+00
    outer loop
      vertex -9.75625708 -2.85364367 0.00000000
      vertex -9.36101390 -4.26450997 0.00000000
      vertex -9.36101390 -4.26450997 19.10000000
    endloop
  endfacet
  facet normal -9.62928463e-01 -2.69756881e-01 0.00000000e+00
    outer loop
      vertex -9.75625708 -2.85364367 0.00000000
      vertex -9.36101390 -4.26450997 19.10000000
      vertex -9.75625708 -2.85364367 19.10000000
    endloop
  endfacet
  facet normal -9.04599567e-01 -4.26262387e-01 0.00000000e+00
    outer loop
      vertex -9.36101390 -4.26450997 0.00000000
      vertex -8.73112601 -5.60123670 0.00000000
      vertex -8.73112601 -5.60123670 19.10000000
    endloop
  endfacet
  facet normal -9.04599567e-01 -4.26262387e-01 0.00000000e+00
    outer loop
      vertex -9.36101390 -4.26450997 0.00000000
      vertex -8.73112601 -5.60123670 19.10000000
      vertex -9.36101390 -4.26450997 19.10000000
    endloop
  endfacet
  facet normal -9.65769992e-01 -2.59399926e-01 0.00000000e+00
    outer loop
      vertex -8.73112601 -5.60123670 0.00000000
      vertex -8.30513281 -7.18724891 0.00000000
      vertex -8.30513281 -7.18724891 19.10000000
    endloop
  endfacet
  facet normal -9.65769992e-01 -2.59399926e-01 0.00000000e+00
    outer loop
      vertex -8.73112601 -5.60123670 0.00000000
      vertex -8.30513281 -7.18724891 19.10000000
      vertex -8.73112601 -5.60123670 19.10000000
    endloop
  endfacet
  facet normal -7.25412622e-01 -6.88314265e-01 0.00000000e+00
    outer loop
      vertex -8.30513281 -7.18724891 0.00000000
      vertex -7.22307898 -8.32762264 0.00000000
      vertex -7.22307898 -8.32762264 19.10000000
    endloop
  endfacet
  facet normal -7.25412622e-01 -6.88314265e-01 0.00000000e+00
    outer loop
      vertex -8.30513281 -7.18724891 0.00000000
      vertex -7.22307898 -8.32762264 19.10000000
      vertex -8.30513281 -7.18724891 19.10000000
    endloop
  endfacet
  facet normal -7.65231373e-02 -9.97067806e-01 0.00000000e+00
    outer loop
      vertex -7.22307898 -8.32762264 0.00000000
      vertex -5.44405055 -8.46415982 0.00000000
      vertex -5.44405055 -8.46415982 19.10000000
    endloop
  endfacet
  facet normal -7.65231373e-02 -9.97067806e-01 0.00000000e+00
    outer loop
      vertex -7.22307898 -8.32762264 0.00000000
      vertex -5.44405055 -8.46415982 19.10000000
      vertex -7.22307898 -8.32762264 19.10000000
    endloop
  endfacet
  facet normal -4.48601622e-01 -8.93731830e-01 0.00000000e+00
    outer loop
      vertex -5.44405055 -8.46415982 0.00000000
      vertex -4.16164873 -9.10785128 0.00000000
      vertex -4.16164873 -9.10785128 19.10000000
    endloop
  endfacet
  facet normal -4.48601622e-01 -8.93731830e-01 0.00000000e+00
    outer loop
      vertex -5.44405055 -8.46415982 0.00000000
      vertex -4.16164873 -9.10785128 19.10000000
      vertex -5.44405055 -8.46415982 19.10000000
    endloop
  endfacet
  facet normal -9.49164075e-01 -3.14781764e-01 0.00000000e+00
    outer loop
      vertex -4.16164873 -9.10785128 0.00000000
      vertex -3.37291011 -11.48614142 0.00000000
      vertex -3.37291011 -11.48614142 19.10000000
    endloop
  endfacet
  facet normal -9.49164075e-01 -3.14781764e-01 0.00000000e+00
    outer loop
      vertex -4.16164873 -9.10785128 0.00000000
      vertex -3.37291011 -11.48614142 19.10000000
      vertex -4.16164873 -9.10785128 19.10000000
    endloop
  endfacet
  facet normal -8.40347381e-01 -5.42048226e-01 0.00000000e+00
    outer loop
      vertex -3.37291011 -11.48614142 0.00000000
      vertex -1.96398565 -13.67042304 0.00000000
      vertex -1.96398565 -13.67042304 19.10000000
    endloop
  endfacet
  facet normal -8.40347381e-01 -5.42048226e-01 0.00000000e+00
    outer loop
      vertex -3.37291011 -11.48614142 0.00000000
      vertex -1.96398565 -13.67042304 19.10000000
      vertex -3.37291011 -11.48614142 19.10000000
    endloop
  endfacet
  facet normal 1.32309272e-01 -9.91208483e-01 0.00000000e+00
    outer loop
      vertex -1.96398565 -13.67042304 0.00000000
      vertex 0.00325070 -13.40783085 0.00000000
      vertex 0.00325070 -13.40783085 19.10000000
    endloop
  endfacet
  facet normal 1.32309272e-01 -9.91208483e-01 0.00000000e+00
    outer loop
      vertex -1.96398565 -13.67042304 0.00000000
      vertex 0.00325070 -13.40783085 19.10000000
      vertex -1.96398565 -13.67042304 19.10000000
    endloop
  endfacet
  facet normal 6.97622486e-01 -7.16465538e-01 0.00000000e+00
    outer loop
      vertex 0.00325070 -13.40783085 0.00000000
      vertex 1.69578273 -11.75981243 0.00000000
      vertex 1.69578273 -11.75981243 19.10000000
    endloop
  endfacet
  facet normal 6.97622486e-01 -7.16465538e-01 0.00000000e+00
    outer loop
      vertex 0.00325070 -13.40783085 0.00000000
      vertex 1.69578273 -11.75981243 19.10000000
      vertex 0.00325070 -13.40783085 19.10000000
    endloop
  endfacet
  facet normal 5.61148539e-01 -8.27715118e-01 0.00000000e+00
    outer loop
      vertex 1.69578273 -11.75981243 0.00000000
      vertex 3.16691873 -10.76245743 0.00000000
      vertex 3.16691873 -10.76245743 19.10000000
    endloop
  endfacet
  facet normal 5.61148539e-01 -8.27715118e-01 0.00000000e+00
    outer loop
      vertex 1.69578273 -11.75981243 0.00000000
      vertex 3.16691873 -10.76245743 19.10000000
      vertex 1.69578273 -11.75981243 19.10000000
    endloop
  endfacet
  facet normal 4.00814905e-01 -9.16159054e-01 0.00000000e+00
    outer loop
      vertex 3.16691873 -10.76245743 0.00000000
      vertex 4.63122011 -10.12183305 0.00000000
      vertex 4.63122011 -10.12183305 19.10000000
    endloop
  endfacet
  facet normal 4.00814905e-01 -9.16159054e-01 0.00000000e+00
    outer loop
      vertex 3.16691873 -10.76245743 0.00000000
      vertex 4.63122011 -10.12183305 19.10000000
      vertex 3.16691873 -10.76245743 19.10000000
    endloop
  endfacet
  facet normal 6.98524988e-01 -7.15585663e-01 0.00000000e+00
    outer loop
      vertex 4.63122011 -10.12183305 0.00000000
      vertex 5.78934009 -8.99132445 0.00000000
      vertex 5.78934009 -8.99132445 19.10000000
    endloop
  endfacet
  facet normal 6.98524988e-01 -7.15585663e-01 0.00000000e+00
    outer loop
      vertex 4.63122011 -10.12183305 0.00000000
      vertex 5.78934009 -8.99132445 19.10000000
      vertex 4.63122011 -10.12183305 19.10000000
    endloop
  endfacet
  facet normal 6.52662703e-01 -7.57648597e-01 0.00000000e+00
    outer loop
      vertex 5.78934009 -8.99132445 0.00000000
      vertex 6.94331442 -7.99725411 0.00000000
      vertex 6.94331442 -7.99725411 19.10000000
    endloop
  endfacet
  facet normal 6.52662703e-01 -7.57648597e-01 0.00000000e+00
    outer loop
      vertex 5.78934009 -8.99132445 0.00000000
      vertex 6.94331442 -7.99725411 19.10000000
      vertex 5.78934009 -8.99132445 19.10000000
    endloop
  endfacet
  facet normal 3.91372732e-01 -9.20232245e-01 0.00000000e+00
    outer loop
      vertex 6.94331442 -7.99725411 0.00000000
      vertex 8.48817960 -7.34022636 0.00000000
      vertex 8.48817960 -7.34022636 19.10000000
    endloop
  endfacet
  facet normal 3.91372732e-01 -9.20232245e-01 0.00000000e+00
    outer loop
      vertex 6.94331442 -7.99725411 0.00000000
      vertex 8.48817960 -7.34022636 19.10000000
      vertex 6.94331442 -7.99725411 19.10000000
    endloop
  endfacet
  facet normal 8.54711803e-01 -5.19102817e-01 0.00000000e+00
    outer loop
      vertex 8.48817960 -7.34022636 0.00000000
      vertex 9.31786597 -5.97413336 0.00000000
      vertex 9.31786597 -5.97413336 19.10000000
    endloop
  endfacet
  facet normal 8.54711803e-01 -5.19102817e-01 0.00000000e+00
    outer loop
      vertex 8.48817960 -7.34022636 0.00000000
      vertex 9.31786597 -5.97413336 19.10000000
      vertex 8.48817960 -7.34022636 19.10000000
    endloop
  endfacet
  facet normal 9.46812528e-01 3.21785699e-01 0.00000000e+00
    outer loop
      vertex 9.31786597 -5.97413336 0.00000000
      vertex 8.62095651 -3.92356798 0.00000000
      vertex 8.62095651 -3.92356798 19.10000000
    endloop
  endfacet
  facet normal 9.46812528e-01 3.21785699e-01 -0.00000000e+00
    outer loop
      vertex 9.31786597 -5.97413336 0.00000000
      vertex 8.62095651 -3.92356798 19.10000000
      vertex 9.31786597 -5.97413336 19.10000000
    endloop
  endfacet
  facet normal 9.71202596e-01 2.38255151e-01 0.00000000e+00
    outer loop
      vertex 8.62095651 -3.92356798 0.00000000
      vertex 8.24947777 -2.40930435 0.00000000
      vertex 8.24947777 -2.40930435 19.10000000
    endloop
  endfacet
  facet normal 9.71202596e-01 2.38255151e-01 -0.00000000e+00
    outer loop
      vertex 8.62095651 -3.92356798 0.00000000
      vertex 8.24947777 -2.40930435 19.10000000
      vertex 8.62095651 -3.92356798 19.10000000
    endloop
  endfacet
  facet normal 4.91563271e-01 -8.70841863e-01 0.00000000e+00
    outer loop
      vertex 8.24947777 -2.40930435 0.00000000
      vertex 9.99418222 -1.42447271 0.00000000
      vertex 9.99418222 -1.42447271 19.10000000
    endloop
  endfacet
  facet normal 4.91563271e-01 -8.70841863e-01 0.00000000e+00
    outer loop
      vertex 8.24947777 -2.40930435 0.00000000
      vertex 9.99418222 -1.42447271 19.10000000
      vertex 8.24947777 -2.40930435 19.10000000
    endloop
  endfacet
  facet normal 5.38704659e-01 -8.42494683e-01 0.00000000e+00
    outer loop
      vertex 9.99418222 -1.42447271 0.00000000
      vertex 12.24073043 0.01200638 0.00000000
      vertex 12.24073043 0.01200638 19.10000000
    endloop
  endfacet
  facet normal 5.38704659e-01 -8.42494683e-01 0.00000000e+00
    outer loop
      vertex 9.99418222 -1.42447271 0.00000000
      vertex 12.24073043 0.01200638 19.10000000
      vertex 9.99418222 -1.42447271 19.10000000
    endloop
  endfacet
endsolid cloud_REALCAL_B_xy_linear_up_scale1.00980_target4168
