solid heart_REALCAL_B_xy_linear_up_scale1.01061_target4168
  facet normal 0.00000000e+00 0.00000000e+00 -1.00000000e+00
    outer loop
      vertex -0.22881545 5.37397871 0.00000000
      vertex -0.02934876 4.57607711 0.00000000
      vertex 0.00000000 4.29119788 0.00000000
    endloop
  endfacet
  facet normal 0.00000000e+00 0.00000000e+00 -1.00000000e+00
    outer loop
      vertex -0.73963191 6.52616502 0.00000000
      vertex -0.22881545 5.37397871 0.00000000
      vertex 0.00000000 4.29119788 0.00000000
    endloop
  endfacet
  facet normal 0.00000000e+00 0.00000000e+00 -1.00000000e+00
    outer loop
      vertex -1.64970643 7.80369529 0.00000000
      vertex -0.73963191 6.52616502 0.00000000
      vertex 0.00000000 4.29119788 0.00000000
    endloop
  endfacet
  facet normal 0.00000000e+00 0.00000000e+00 -1.00000000e+00
    outer loop
      vertex -2.97740585 8.95235305 0.00000000
      vertex -1.64970643 7.80369529 0.00000000
      vertex 0.00000000 4.29119788 0.00000000
    endloop
  endfacet
  facet normal 0.00000000e+00 0.00000000e+00 -1.00000000e+00
    outer loop
      vertex -4.66607441 9.74067455 0.00000000
      vertex -2.97740585 8.95235305 0.00000000
      vertex 0.00000000 4.29119788 0.00000000
    endloop
  endfacet
  facet normal 0.00000000e+00 0.00000000e+00 -1.00000000e+00
    outer loop
      vertex -6.59017000 10.00064894 0.00000000
      vertex -4.66607441 9.74067455 0.00000000
      vertex 0.00000000 4.29119788 0.00000000
    endloop
  endfacet
  facet normal 0.00000000e+00 0.00000000e+00 -1.00000000e+00
    outer loop
      vertex -8.57212606 9.65274378 0.00000000
      vertex -6.59017000 10.00064894 0.00000000
      vertex 0.00000000 4.29119788 0.00000000
    endloop
  endfacet
  facet normal 0.00000000e+00 0.00000000e+00 -1.00000000e+00
    outer loop
      vertex -10.40741067 8.71090790 0.00000000
      vertex -8.57212606 9.65274378 0.00000000
      vertex 0.00000000 4.29119788 0.00000000
    endloop
  endfacet
  facet normal 0.00000000e+00 0.00000000e+00 -1.00000000e+00
    outer loop
      vertex -11.89400148 7.26808338 0.00000000
      vertex -10.40741067 8.71090790 0.00000000
      vertex 0.00000000 4.29119788 0.00000000
    endloop
  endfacet
  facet normal 0.00000000e+00 0.00000000e+00 -1.00000000e+00
    outer loop
      vertex -12.86181778 5.46728275 0.00000000
      vertex -11.89400148 7.26808338 0.00000000
      vertex 0.00000000 4.29119788 0.00000000
    endloop
  endfacet
  facet normal 0.00000000e+00 0.00000000e+00 -1.00000000e+00
    outer loop
      vertex -13.19765143 3.46634467 0.00000000
      vertex -12.86181778 5.46728275 0.00000000
      vertex 0.00000000 4.29119788 0.00000000
    endloop
  endfacet
  facet normal 0.00000000e+00 0.00000000e+00 -1.00000000e+00
    outer loop
      vertex -12.86181778 1.40536343 0.00000000
      vertex -13.19765143 3.46634467 0.00000000
      vertex 0.00000000 4.29119788 0.00000000
    endloop
  endfacet
  facet normal 0.00000000e+00 0.00000000e+00 -1.00000000e+00
    outer loop
      vertex -11.89400148 -0.61563459 0.00000000
      vertex -12.86181778 1.40536343 0.00000000
      vertex 0.00000000 4.29119788 0.00000000
    endloop
  endfacet
  facet normal 0.00000000e+00 0.00000000e+00 -1.00000000e+00
    outer loop
      vertex -10.40741067 -2.54445125 0.00000000
      vertex -11.89400148 -0.61563459 0.00000000
      vertex 0.00000000 4.29119788 0.00000000
    endloop
  endfacet
  facet normal 0.00000000e+00 0.00000000e+00 -1.00000000e+00
    outer loop
      vertex -8.57212606 -4.36976086 0.00000000
      vertex -10.40741067 -2.54445125 0.00000000
      vertex 0.00000000 4.29119788 0.00000000
    endloop
  endfacet
  facet normal 0.00000000e+00 0.00000000e+00 -1.00000000e+00
    outer loop
      vertex -6.59017000 -6.10322042 0.00000000
      vertex -8.57212606 -4.36976086 0.00000000
      vertex 0.00000000 4.29119788 0.00000000
    endloop
  endfacet
  facet normal 0.00000000e+00 0.00000000e+00 -1.00000000e+00
    outer loop
      vertex -4.66607441 -7.75710450 0.00000000
      vertex -6.59017000 -6.10322042 0.00000000
      vertex 0.00000000 4.29119788 0.00000000
    endloop
  endfacet
  facet normal 0.00000000e+00 0.00000000e+00 -1.00000000e+00
    outer loop
      vertex -2.97740585 -9.32467896 0.00000000
      vertex -4.66607441 -7.75710450 0.00000000
      vertex 0.00000000 4.29119788 0.00000000
    endloop
  endfacet
  facet normal 0.00000000e+00 0.00000000e+00 -1.00000000e+00
    outer loop
      vertex -1.64970643 -10.76924451 0.00000000
      vertex -2.97740585 -9.32467896 0.00000000
      vertex 0.00000000 4.29119788 0.00000000
    endloop
  endfacet
  facet normal 0.00000000e+00 0.00000000e+00 -1.00000000e+00
    outer loop
      vertex -0.73963191 -12.02489441 0.00000000
      vertex -1.64970643 -10.76924451 0.00000000
      vertex 0.00000000 4.29119788 0.00000000
    endloop
  endfacet
  facet normal 0.00000000e+00 0.00000000e+00 -1.00000000e+00
    outer loop
      vertex -0.22881545 -13.00840668 0.00000000
      vertex -0.73963191 -12.02489441 0.00000000
      vertex 0.00000000 4.29119788 0.00000000
    endloop
  endfacet
  facet normal 0.00000000e+00 0.00000000e+00 -1.00000000e+00
    outer loop
      vertex -0.02934876 -13.63837139 0.00000000
      vertex -0.22881545 -13.00840668 0.00000000
      vertex 0.00000000 4.29119788 0.00000000
    endloop
  endfacet
  facet normal 0.00000000e+00 0.00000000e+00 -1.00000000e+00
    outer loop
      vertex 0.00000000 -13.85557283 0.00000000
      vertex -0.02934876 -13.63837139 0.00000000
      vertex 0.00000000 4.29119788 0.00000000
    endloop
  endfacet
  facet normal -0.00000000e+00 0.00000000e+00 -1.00000000e+00
    outer loop
      vertex 0.02934876 -13.63837139 0.00000000
      vertex 0.00000000 -13.85557283 0.00000000
      vertex 0.00000000 4.29119788 0.00000000
    endloop
  endfacet
  facet normal -0.00000000e+00 0.00000000e+00 -1.00000000e+00
    outer loop
      vertex 0.22881545 -13.00840668 0.00000000
      vertex 0.02934876 -13.63837139 0.00000000
      vertex 0.00000000 4.29119788 0.00000000
    endloop
  endfacet
  facet normal -0.00000000e+00 0.00000000e+00 -1.00000000e+00
    outer loop
      vertex 0.73963191 -12.02489441 0.00000000
      vertex 0.22881545 -13.00840668 0.00000000
      vertex 0.00000000 4.29119788 0.00000000
    endloop
  endfacet
  facet normal -0.00000000e+00 0.00000000e+00 -1.00000000e+00
    outer loop
      vertex 1.64970643 -10.76924451 0.00000000
      vertex 0.73963191 -12.02489441 0.00000000
      vertex 0.00000000 4.29119788 0.00000000
    endloop
  endfacet
  facet normal -0.00000000e+00 0.00000000e+00 -1.00000000e+00
    outer loop
      vertex 2.97740585 -9.32467896 0.00000000
      vertex 1.64970643 -10.76924451 0.00000000
      vertex 0.00000000 4.29119788 0.00000000
    endloop
  endfacet
  facet normal -0.00000000e+00 0.00000000e+00 -1.00000000e+00
    outer loop
      vertex 4.66607441 -7.75710450 0.00000000
      vertex 2.97740585 -9.32467896 0.00000000
      vertex 0.00000000 4.29119788 0.00000000
    endloop
  endfacet
  facet normal -0.00000000e+00 0.00000000e+00 -1.00000000e+00
    outer loop
      vertex 6.59017000 -6.10322042 0.00000000
      vertex 4.66607441 -7.75710450 0.00000000
      vertex 0.00000000 4.29119788 0.00000000
    endloop
  endfacet
  facet normal -0.00000000e+00 0.00000000e+00 -1.00000000e+00
    outer loop
      vertex 8.57212606 -4.36976086 0.00000000
      vertex 6.59017000 -6.10322042 0.00000000
      vertex 0.00000000 4.29119788 0.00000000
    endloop
  endfacet
  facet normal -0.00000000e+00 0.00000000e+00 -1.00000000e+00
    outer loop
      vertex 10.40741067 -2.54445125 0.00000000
      vertex 8.57212606 -4.36976086 0.00000000
      vertex 0.00000000 4.29119788 0.00000000
    endloop
  endfacet
  facet normal -0.00000000e+00 0.00000000e+00 -1.00000000e+00
    outer loop
      vertex 11.89400148 -0.61563459 0.00000000
      vertex 10.40741067 -2.54445125 0.00000000
      vertex 0.00000000 4.29119788 0.00000000
    endloop
  endfacet
  facet normal -0.00000000e+00 0.00000000e+00 -1.00000000e+00
    outer loop
      vertex 12.86181778 1.40536343 0.00000000
      vertex 11.89400148 -0.61563459 0.00000000
      vertex 0.00000000 4.29119788 0.00000000
    endloop
  endfacet
  facet normal -0.00000000e+00 0.00000000e+00 -1.00000000e+00
    outer loop
      vertex 13.19765143 3.46634467 0.00000000
      vertex 12.86181778 1.40536343 0.00000000
      vertex 0.00000000 4.29119788 0.00000000
    endloop
  endfacet
  facet normal 0.00000000e+00 -0.00000000e+00 -1.00000000e+00
    outer loop
      vertex 12.86181778 5.46728275 0.00000000
      vertex 13.19765143 3.46634467 0.00000000
      vertex 0.00000000 4.29119788 0.00000000
    endloop
  endfacet
  facet normal 0.00000000e+00 -0.00000000e+00 -1.00000000e+00
    outer loop
      vertex 11.89400148 7.26808338 0.00000000
      vertex 12.86181778 5.46728275 0.00000000
      vertex 0.00000000 4.29119788 0.00000000
    endloop
  endfacet
  facet normal 0.00000000e+00 -0.00000000e+00 -1.00000000e+00
    outer loop
      vertex 10.40741067 8.71090790 0.00000000
      vertex 11.89400148 7.26808338 0.00000000
      vertex 0.00000000 4.29119788 0.00000000
    endloop
  endfacet
  facet normal 0.00000000e+00 -0.00000000e+00 -1.00000000e+00
    outer loop
      vertex 8.57212606 9.65274378 0.00000000
      vertex 10.40741067 8.71090790 0.00000000
      vertex 0.00000000 4.29119788 0.00000000
    endloop
  endfacet
  facet normal 0.00000000e+00 -0.00000000e+00 -1.00000000e+00
    outer loop
      vertex 6.59017000 10.00064894 0.00000000
      vertex 8.57212606 9.65274378 0.00000000
      vertex 0.00000000 4.29119788 0.00000000
    endloop
  endfacet
  facet normal 0.00000000e+00 -0.00000000e+00 -1.00000000e+00
    outer loop
      vertex 4.66607441 9.74067455 0.00000000
      vertex 6.59017000 10.00064894 0.00000000
      vertex 0.00000000 4.29119788 0.00000000
    endloop
  endfacet
  facet normal 0.00000000e+00 -0.00000000e+00 -1.00000000e+00
    outer loop
      vertex 2.97740585 8.95235305 0.00000000
      vertex 4.66607441 9.74067455 0.00000000
      vertex 0.00000000 4.29119788 0.00000000
    endloop
  endfacet
  facet normal 0.00000000e+00 -0.00000000e+00 -1.00000000e+00
    outer loop
      vertex 1.64970643 7.80369529 0.00000000
      vertex 2.97740585 8.95235305 0.00000000
      vertex 0.00000000 4.29119788 0.00000000
    endloop
  endfacet
  facet normal 0.00000000e+00 -0.00000000e+00 -1.00000000e+00
    outer loop
      vertex 0.73963191 6.52616502 0.00000000
      vertex 1.64970643 7.80369529 0.00000000
      vertex 0.00000000 4.29119788 0.00000000
    endloop
  endfacet
  facet normal 0.00000000e+00 -0.00000000e+00 -1.00000000e+00
    outer loop
      vertex 0.22881545 5.37397871 0.00000000
      vertex 0.73963191 6.52616502 0.00000000
      vertex 0.00000000 4.29119788 0.00000000
    endloop
  endfacet
  facet normal 0.00000000e+00 0.00000000e+00 -1.00000000e+00
    outer loop
      vertex 0.00000000 4.29119788 0.00000000
      vertex 0.02934876 4.57607711 0.00000000
      vertex 0.22881545 5.37397871 0.00000000
    endloop
  endfacet
  facet normal 0.00000000e+00 0.00000000e+00 1.00000000e+00
    outer loop
      vertex 0.00000000 4.29119788 19.10000000
      vertex -0.02934876 4.57607711 19.10000000
      vertex -0.22881545 5.37397871 19.10000000
    endloop
  endfacet
  facet normal 0.00000000e+00 0.00000000e+00 1.00000000e+00
    outer loop
      vertex 0.00000000 4.29119788 19.10000000
      vertex -0.22881545 5.37397871 19.10000000
      vertex -0.73963191 6.52616502 19.10000000
    endloop
  endfacet
  facet normal 0.00000000e+00 0.00000000e+00 1.00000000e+00
    outer loop
      vertex 0.00000000 4.29119788 19.10000000
      vertex -0.73963191 6.52616502 19.10000000
      vertex -1.64970643 7.80369529 19.10000000
    endloop
  endfacet
  facet normal 0.00000000e+00 0.00000000e+00 1.00000000e+00
    outer loop
      vertex 0.00000000 4.29119788 19.10000000
      vertex -1.64970643 7.80369529 19.10000000
      vertex -2.97740585 8.95235305 19.10000000
    endloop
  endfacet
  facet normal 0.00000000e+00 0.00000000e+00 1.00000000e+00
    outer loop
      vertex 0.00000000 4.29119788 19.10000000
      vertex -2.97740585 8.95235305 19.10000000
      vertex -4.66607441 9.74067455 19.10000000
    endloop
  endfacet
  facet normal 0.00000000e+00 0.00000000e+00 1.00000000e+00
    outer loop
      vertex 0.00000000 4.29119788 19.10000000
      vertex -4.66607441 9.74067455 19.10000000
      vertex -6.59017000 10.00064894 19.10000000
    endloop
  endfacet
  facet normal 0.00000000e+00 0.00000000e+00 1.00000000e+00
    outer loop
      vertex 0.00000000 4.29119788 19.10000000
      vertex -6.59017000 10.00064894 19.10000000
      vertex -8.57212606 9.65274378 19.10000000
    endloop
  endfacet
  facet normal 0.00000000e+00 0.00000000e+00 1.00000000e+00
    outer loop
      vertex 0.00000000 4.29119788 19.10000000
      vertex -8.57212606 9.65274378 19.10000000
      vertex -10.40741067 8.71090790 19.10000000
    endloop
  endfacet
  facet normal 0.00000000e+00 0.00000000e+00 1.00000000e+00
    outer loop
      vertex 0.00000000 4.29119788 19.10000000
      vertex -10.40741067 8.71090790 19.10000000
      vertex -11.89400148 7.26808338 19.10000000
    endloop
  endfacet
  facet normal 0.00000000e+00 0.00000000e+00 1.00000000e+00
    outer loop
      vertex 0.00000000 4.29119788 19.10000000
      vertex -11.89400148 7.26808338 19.10000000
      vertex -12.86181778 5.46728275 19.10000000
    endloop
  endfacet
  facet normal 0.00000000e+00 0.00000000e+00 1.00000000e+00
    outer loop
      vertex 0.00000000 4.29119788 19.10000000
      vertex -12.86181778 5.46728275 19.10000000
      vertex -13.19765143 3.46634467 19.10000000
    endloop
  endfacet
  facet normal 0.00000000e+00 0.00000000e+00 1.00000000e+00
    outer loop
      vertex 0.00000000 4.29119788 19.10000000
      vertex -13.19765143 3.46634467 19.10000000
      vertex -12.86181778 1.40536343 19.10000000
    endloop
  endfacet
  facet normal 0.00000000e+00 0.00000000e+00 1.00000000e+00
    outer loop
      vertex 0.00000000 4.29119788 19.10000000
      vertex -12.86181778 1.40536343 19.10000000
      vertex -11.89400148 -0.61563459 19.10000000
    endloop
  endfacet
  facet normal 0.00000000e+00 0.00000000e+00 1.00000000e+00
    outer loop
      vertex 0.00000000 4.29119788 19.10000000
      vertex -11.89400148 -0.61563459 19.10000000
      vertex -10.40741067 -2.54445125 19.10000000
    endloop
  endfacet
  facet normal 0.00000000e+00 0.00000000e+00 1.00000000e+00
    outer loop
      vertex 0.00000000 4.29119788 19.10000000
      vertex -10.40741067 -2.54445125 19.10000000
      vertex -8.57212606 -4.36976086 19.10000000
    endloop
  endfacet
  facet normal 0.00000000e+00 0.00000000e+00 1.00000000e+00
    outer loop
      vertex 0.00000000 4.29119788 19.10000000
      vertex -8.57212606 -4.36976086 19.10000000
      vertex -6.59017000 -6.10322042 19.10000000
    endloop
  endfacet
  facet normal 0.00000000e+00 0.00000000e+00 1.00000000e+00
    outer loop
      vertex 0.00000000 4.29119788 19.10000000
      vertex -6.59017000 -6.10322042 19.10000000
      vertex -4.66607441 -7.75710450 19.10000000
    endloop
  endfacet
  facet normal 0.00000000e+00 0.00000000e+00 1.00000000e+00
    outer loop
      vertex 0.00000000 4.29119788 19.10000000
      vertex -4.66607441 -7.75710450 19.10000000
      vertex -2.97740585 -9.32467896 19.10000000
    endloop
  endfacet
  facet normal 0.00000000e+00 0.00000000e+00 1.00000000e+00
    outer loop
      vertex 0.00000000 4.29119788 19.10000000
      vertex -2.97740585 -9.32467896 19.10000000
      vertex -1.64970643 -10.76924451 19.10000000
    endloop
  endfacet
  facet normal 0.00000000e+00 0.00000000e+00 1.00000000e+00
    outer loop
      vertex 0.00000000 4.29119788 19.10000000
      vertex -1.64970643 -10.76924451 19.10000000
      vertex -0.73963191 -12.02489441 19.10000000
    endloop
  endfacet
  facet normal 0.00000000e+00 0.00000000e+00 1.00000000e+00
    outer loop
      vertex 0.00000000 4.29119788 19.10000000
      vertex -0.73963191 -12.02489441 19.10000000
      vertex -0.22881545 -13.00840668 19.10000000
    endloop
  endfacet
  facet normal 0.00000000e+00 0.00000000e+00 1.00000000e+00
    outer loop
      vertex 0.00000000 4.29119788 19.10000000
      vertex -0.22881545 -13.00840668 19.10000000
      vertex -0.02934876 -13.63837139 19.10000000
    endloop
  endfacet
  facet normal 0.00000000e+00 0.00000000e+00 1.00000000e+00
    outer loop
      vertex 0.00000000 4.29119788 19.10000000
      vertex -0.02934876 -13.63837139 19.10000000
      vertex 0.00000000 -13.85557283 19.10000000
    endloop
  endfacet
  facet normal 0.00000000e+00 0.00000000e+00 1.00000000e+00
    outer loop
      vertex 0.00000000 4.29119788 19.10000000
      vertex 0.00000000 -13.85557283 19.10000000
      vertex 0.02934876 -13.63837139 19.10000000
    endloop
  endfacet
  facet normal 0.00000000e+00 0.00000000e+00 1.00000000e+00
    outer loop
      vertex 0.00000000 4.29119788 19.10000000
      vertex 0.02934876 -13.63837139 19.10000000
      vertex 0.22881545 -13.00840668 19.10000000
    endloop
  endfacet
  facet normal 0.00000000e+00 0.00000000e+00 1.00000000e+00
    outer loop
      vertex 0.00000000 4.29119788 19.10000000
      vertex 0.22881545 -13.00840668 19.10000000
      vertex 0.73963191 -12.02489441 19.10000000
    endloop
  endfacet
  facet normal 0.00000000e+00 0.00000000e+00 1.00000000e+00
    outer loop
      vertex 0.00000000 4.29119788 19.10000000
      vertex 0.73963191 -12.02489441 19.10000000
      vertex 1.64970643 -10.76924451 19.10000000
    endloop
  endfacet
  facet normal 0.00000000e+00 0.00000000e+00 1.00000000e+00
    outer loop
      vertex 0.00000000 4.29119788 19.10000000
      vertex 1.64970643 -10.76924451 19.10000000
      vertex 2.97740585 -9.32467896 19.10000000
    endloop
  endfacet
  facet normal 0.00000000e+00 0.00000000e+00 1.00000000e+00
    outer loop
      vertex 0.00000000 4.29119788 19.10000000
      vertex 2.97740585 -9.32467896 19.10000000
      vertex 4.66607441 -7.75710450 19.10000000
    endloop
  endfacet
  facet normal 0.00000000e+00 0.00000000e+00 1.00000000e+00
    outer loop
      vertex 0.00000000 4.29119788 19.10000000
      vertex 4.66607441 -7.75710450 19.10000000
      vertex 6.59017000 -6.10322042 19.10000000
    endloop
  endfacet
  facet normal 0.00000000e+00 0.00000000e+00 1.00000000e+00
    outer loop
      vertex 0.00000000 4.29119788 19.10000000
      vertex 6.59017000 -6.10322042 19.10000000
      vertex 8.57212606 -4.36976086 19.10000000
    endloop
  endfacet
  facet normal 0.00000000e+00 0.00000000e+00 1.00000000e+00
    outer loop
      vertex 0.00000000 4.29119788 19.10000000
      vertex 8.57212606 -4.36976086 19.10000000
      vertex 10.40741067 -2.54445125 19.10000000
    endloop
  endfacet
  facet normal 0.00000000e+00 0.00000000e+00 1.00000000e+00
    outer loop
      vertex 0.00000000 4.29119788 19.10000000
      vertex 10.40741067 -2.54445125 19.10000000
      vertex 11.89400148 -0.61563459 19.10000000
    endloop
  endfacet
  facet normal 0.00000000e+00 0.00000000e+00 1.00000000e+00
    outer loop
      vertex 0.00000000 4.29119788 19.10000000
      vertex 11.89400148 -0.61563459 19.10000000
      vertex 12.86181778 1.40536343 19.10000000
    endloop
  endfacet
  facet normal 0.00000000e+00 0.00000000e+00 1.00000000e+00
    outer loop
      vertex 0.00000000 4.29119788 19.10000000
      vertex 12.86181778 1.40536343 19.10000000
      vertex 13.19765143 3.46634467 19.10000000
    endloop
  endfacet
  facet normal -0.00000000e+00 0.00000000e+00 1.00000000e+00
    outer loop
      vertex 0.00000000 4.29119788 19.10000000
      vertex 13.19765143 3.46634467 19.10000000
      vertex 12.86181778 5.46728275 19.10000000
    endloop
  endfacet
  facet normal 0.00000000e+00 0.00000000e+00 1.00000000e+00
    outer loop
      vertex 0.00000000 4.29119788 19.10000000
      vertex 12.86181778 5.46728275 19.10000000
      vertex 11.89400148 7.26808338 19.10000000
    endloop
  endfacet
  facet normal 0.00000000e+00 0.00000000e+00 1.00000000e+00
    outer loop
      vertex 0.00000000 4.29119788 19.10000000
      vertex 11.89400148 7.26808338 19.10000000
      vertex 10.40741067 8.71090790 19.10000000
    endloop
  endfacet
  facet normal 0.00000000e+00 0.00000000e+00 1.00000000e+00
    outer loop
      vertex 0.00000000 4.29119788 19.10000000
      vertex 10.40741067 8.71090790 19.10000000
      vertex 8.57212606 9.65274378 19.10000000
    endloop
  endfacet
  facet normal 0.00000000e+00 0.00000000e+00 1.00000000e+00
    outer loop
      vertex 0.00000000 4.29119788 19.10000000
      vertex 8.57212606 9.65274378 19.10000000
      vertex 6.59017000 10.00064894 19.10000000
    endloop
  endfacet
  facet normal 0.00000000e+00 0.00000000e+00 1.00000000e+00
    outer loop
      vertex 0.00000000 4.29119788 19.10000000
      vertex 6.59017000 10.00064894 19.10000000
      vertex 4.66607441 9.74067455 19.10000000
    endloop
  endfacet
  facet normal 0.00000000e+00 0.00000000e+00 1.00000000e+00
    outer loop
      vertex 0.00000000 4.29119788 19.10000000
      vertex 4.66607441 9.74067455 19.10000000
      vertex 2.97740585 8.95235305 19.10000000
    endloop
  endfacet
  facet normal 0.00000000e+00 0.00000000e+00 1.00000000e+00
    outer loop
      vertex 0.00000000 4.29119788 19.10000000
      vertex 2.97740585 8.95235305 19.10000000
      vertex 1.64970643 7.80369529 19.10000000
    endloop
  endfacet
  facet normal 0.00000000e+00 0.00000000e+00 1.00000000e+00
    outer loop
      vertex 0.00000000 4.29119788 19.10000000
      vertex 1.64970643 7.80369529 19.10000000
      vertex 0.73963191 6.52616502 19.10000000
    endloop
  endfacet
  facet normal 0.00000000e+00 0.00000000e+00 1.00000000e+00
    outer loop
      vertex 0.00000000 4.29119788 19.10000000
      vertex 0.73963191 6.52616502 19.10000000
      vertex 0.22881545 5.37397871 19.10000000
    endloop
  endfacet
  facet normal 0.00000000e+00 0.00000000e+00 1.00000000e+00
    outer loop
      vertex 0.22881545 5.37397871 19.10000000
      vertex 0.02934876 4.57607711 19.10000000
      vertex 0.00000000 4.29119788 19.10000000
    endloop
  endfacet
  facet normal 9.70144990e-01 2.42525665e-01 0.00000000e+00
    outer loop
      vertex -0.02934876 4.57607711 0.00000000
      vertex -0.22881545 5.37397871 0.00000000
      vertex -0.22881545 5.37397871 19.10000000
    endloop
  endfacet
  facet normal 9.70144990e-01 2.42525665e-01 -0.00000000e+00
    outer loop
      vertex -0.02934876 4.57607711 0.00000000
      vertex -0.22881545 5.37397871 19.10000000
      vertex -0.02934876 4.57607711 19.10000000
    endloop
  endfacet
  facet normal 9.14184066e-01 4.05299264e-01 0.00000000e+00
    outer loop
      vertex -0.22881545 5.37397871 0.00000000
      vertex -0.73963191 6.52616502 0.00000000
      vertex -0.73963191 6.52616502 19.10000000
    endloop
  endfacet
  facet normal 9.14184066e-01 4.05299264e-01 -0.00000000e+00
    outer loop
      vertex -0.22881545 5.37397871 0.00000000
      vertex -0.73963191 6.52616502 19.10000000
      vertex -0.22881545 5.37397871 19.10000000
    endloop
  endfacet
  facet normal 8.14470704e-01 5.80204681e-01 0.00000000e+00
    outer loop
      vertex -0.73963191 6.52616502 0.00000000
      vertex -1.64970643 7.80369529 0.00000000
      vertex -1.64970643 7.80369529 19.10000000
    endloop
  endfacet
  facet normal 8.14470704e-01 5.80204681e-01 -0.00000000e+00
    outer loop
      vertex -0.73963191 6.52616502 0.00000000
      vertex -1.64970643 7.80369529 19.10000000
      vertex -0.73963191 6.52616502 19.10000000
    endloop
  endfacet
  facet normal 6.54274836e-01 7.56256861e-01 0.00000000e+00
    outer loop
      vertex -1.64970643 7.80369529 0.00000000
      vertex -2.97740585 8.95235305 0.00000000
      vertex -2.97740585 8.95235305 19.10000000
    endloop
  endfacet
  facet normal 6.54274836e-01 7.56256861e-01 -0.00000000e+00
    outer loop
      vertex -1.64970643 7.80369529 0.00000000
      vertex -2.97740585 8.95235305 19.10000000
      vertex -1.64970643 7.80369529 19.10000000
    endloop
  endfacet
  facet normal 4.23007150e-01 9.06126344e-01 0.00000000e+00
    outer loop
      vertex -2.97740585 8.95235305 0.00000000
      vertex -4.66607441 9.74067455 0.00000000
      vertex -4.66607441 9.74067455 19.10000000
    endloop
  endfacet
  facet normal 4.23007150e-01 9.06126344e-01 -0.00000000e+00
    outer loop
      vertex -2.97740585 8.95235305 0.00000000
      vertex -4.66607441 9.74067455 19.10000000
      vertex -2.97740585 8.95235305 19.10000000
    endloop
  endfacet
  facet normal 1.33898410e-01 9.90995063e-01 0.00000000e+00
    outer loop
      vertex -4.66607441 9.74067455 0.00000000
      vertex -6.59017000 10.00064894 0.00000000
      vertex -6.59017000 10.00064894 19.10000000
    endloop
  endfacet
  facet normal 1.33898410e-01 9.90995063e-01 -0.00000000e+00
    outer loop
      vertex -4.66607441 9.74067455 0.00000000
      vertex -6.59017000 10.00064894 19.10000000
      vertex -4.66607441 9.74067455 19.10000000
    endloop
  endfacet
  facet normal -1.72892802e-01 9.84940647e-01 0.00000000e+00
    outer loop
      vertex -6.59017000 10.00064894 0.00000000
      vertex -8.57212606 9.65274378 0.00000000
      vertex -8.57212606 9.65274378 19.10000000
    endloop
  endfacet
  facet normal -1.72892802e-01 9.84940647e-01 0.00000000e+00
    outer loop
      vertex -6.59017000 10.00064894 0.00000000
      vertex -8.57212606 9.65274378 19.10000000
      vertex -6.59017000 10.00064894 19.10000000
    endloop
  endfacet
  facet normal -4.56571602e-01 8.89686671e-01 0.00000000e+00
    outer loop
      vertex -8.57212606 9.65274378 0.00000000
      vertex -10.40741067 8.71090790 0.00000000
      vertex -10.40741067 8.71090790 19.10000000
    endloop
  endfacet
  facet normal -4.56571602e-01 8.89686671e-01 0.00000000e+00
    outer loop
      vertex -8.57212606 9.65274378 0.00000000
      vertex -10.40741067 8.71090790 19.10000000
      vertex -8.57212606 9.65274378 19.10000000
    endloop
  endfacet
  facet normal -6.96464680e-01 7.17591074e-01 0.00000000e+00
    outer loop
      vertex -10.40741067 8.71090790 0.00000000
      vertex -11.89400148 7.26808338 0.00000000
      vertex -11.89400148 7.26808338 19.10000000
    endloop
  endfacet
  facet normal -6.96464680e-01 7.17591074e-01 0.00000000e+00
    outer loop
      vertex -10.40741067 8.71090790 0.00000000
      vertex -11.89400148 7.26808338 19.10000000
      vertex -10.40741067 8.71090790 19.10000000
    endloop
  endfacet
  facet normal -8.80847658e-01 4.73399835e-01 0.00000000e+00
    outer loop
      vertex -11.89400148 7.26808338 0.00000000
      vertex -12.86181778 5.46728275 0.00000000
      vertex -12.86181778 5.46728275 19.10000000
    endloop
  endfacet
  facet normal -8.80847658e-01 4.73399835e-01 0.00000000e+00
    outer loop
      vertex -11.89400148 7.26808338 0.00000000
      vertex -12.86181778 5.46728275 19.10000000
      vertex -11.89400148 7.26808338 19.10000000
    endloop
  endfacet
  facet normal -9.86205941e-01 1.65522935e-01 0.00000000e+00
    outer loop
      vertex -12.86181778 5.46728275 0.00000000
      vertex -13.19765143 3.46634467 0.00000000
      vertex -13.19765143 3.46634467 19.10000000
    endloop
  endfacet
  facet normal -9.86205941e-01 1.65522935e-01 0.00000000e+00
    outer loop
      vertex -12.86181778 5.46728275 0.00000000
      vertex -13.19765143 3.46634467 19.10000000
      vertex -12.86181778 5.46728275 19.10000000
    endloop
  endfacet
  facet normal -9.86982570e-01 -1.60827258e-01 0.00000000e+00
    outer loop
      vertex -13.19765143 3.46634467 0.00000000
      vertex -12.86181778 1.40536343 0.00000000
      vertex -12.86181778 1.40536343 19.10000000
    endloop
  endfacet
  facet normal -9.86982570e-01 -1.60827258e-01 0.00000000e+00
    outer loop
      vertex -13.19765143 3.46634467 0.00000000
      vertex -12.86181778 1.40536343 19.10000000
      vertex -13.19765143 3.46634467 19.10000000
    endloop
  endfacet
  facet normal -9.01916625e-01 -4.31910178e-01 0.00000000e+00
    outer loop
      vertex -12.86181778 1.40536343 0.00000000
      vertex -11.89400148 -0.61563459 0.00000000
      vertex -11.89400148 -0.61563459 19.10000000
    endloop
  endfacet
  facet normal -9.01916625e-01 -4.31910178e-01 0.00000000e+00
    outer loop
      vertex -12.86181778 1.40536343 0.00000000
      vertex -11.89400148 -0.61563459 19.10000000
      vertex -12.86181778 1.40536343 19.10000000
    endloop
  endfacet
  facet normal -7.92050973e-01 -6.10454959e-01 0.00000000e+00
    outer loop
      vertex -11.89400148 -0.61563459 0.00000000
      vertex -10.40741067 -2.54445125 0.00000000
      vertex -10.40741067 -2.54445125 19.10000000
    endloop
  endfacet
  facet normal -7.92050973e-01 -6.10454959e-01 0.00000000e+00
    outer loop
      vertex -11.89400148 -0.61563459 0.00000000
      vertex -10.40741067 -2.54445125 19.10000000
      vertex -11.89400148 -0.61563459 19.10000000
    endloop
  endfacet
  facet normal -7.05177321e-01 -7.09030991e-01 0.00000000e+00
    outer loop
      vertex -10.40741067 -2.54445125 0.00000000
      vertex -8.57212606 -4.36976086 0.00000000
      vertex -8.57212606 -4.36976086 19.10000000
    endloop
  endfacet
  facet normal -7.05177321e-01 -7.09030991e-01 0.00000000e+00
    outer loop
      vertex -10.40741067 -2.54445125 0.00000000
      vertex -8.57212606 -4.36976086 19.10000000
      vertex -10.40741067 -2.54445125 19.10000000
    endloop
  endfacet
  facet normal -6.58342839e-01 -7.52718211e-01 0.00000000e+00
    outer loop
      vertex -8.57212606 -4.36976086 0.00000000
      vertex -6.59017000 -6.10322042 0.00000000
      vertex -6.59017000 -6.10322042 19.10000000
    endloop
  endfacet
  facet normal -6.58342839e-01 -7.52718211e-01 0.00000000e+00
    outer loop
      vertex -8.57212606 -4.36976086 0.00000000
      vertex -6.59017000 -6.10322042 19.10000000
      vertex -8.57212606 -4.36976086 19.10000000
    endloop
  endfacet
  facet normal -6.51849356e-01 -7.58348480e-01 0.00000000e+00
    outer loop
      vertex -6.59017000 -6.10322042 0.00000000
      vertex -4.66607441 -7.75710450 0.00000000
      vertex -4.66607441 -7.75710450 19.10000000
    endloop
  endfacet
  facet normal -6.51849356e-01 -7.58348480e-01 0.00000000e+00
    outer loop
      vertex -6.59017000 -6.10322042 0.00000000
      vertex -4.66607441 -7.75710450 19.10000000
      vertex -6.59017000 -6.10322042 19.10000000
    endloop
  endfacet
  facet normal -6.80340411e-01 -7.32896258e-01 0.00000000e+00
    outer loop
      vertex -4.66607441 -7.75710450 0.00000000
      vertex -2.97740585 -9.32467896 0.00000000
      vertex -2.97740585 -9.32467896 19.10000000
    endloop
  endfacet
  facet normal -6.80340411e-01 -7.32896258e-01 0.00000000e+00
    outer loop
      vertex -4.66607441 -7.75710450 0.00000000
      vertex -2.97740585 -9.32467896 19.10000000
      vertex -4.66607441 -7.75710450 19.10000000
    endloop
  endfacet
  facet normal -7.36261290e-01 -6.76697357e-01 0.00000000e+00
    outer loop
      vertex -2.97740585 -9.32467896 0.00000000
      vertex -1.64970643 -10.76924451 0.00000000
      vertex -1.64970643 -10.76924451 19.10000000
    endloop
  endfacet
  facet normal -7.36261290e-01 -6.76697357e-01 0.00000000e+00
    outer loop
      vertex -2.97740585 -9.32467896 0.00000000
      vertex -1.64970643 -10.76924451 19.10000000
      vertex -2.97740585 -9.32467896 19.10000000
    endloop
  endfacet
  facet normal -8.09693678e-01 -5.86852748e-01 0.00000000e+00
    outer loop
      vertex -1.64970643 -10.76924451 0.00000000
      vertex -0.73963191 -12.02489441 0.00000000
      vertex -0.73963191 -12.02489441 19.10000000
    endloop
  endfacet
  facet normal -8.09693678e-01 -5.86852748e-01 0.00000000e+00
    outer loop
      vertex -1.64970643 -10.76924451 0.00000000
      vertex -0.73963191 -12.02489441 19.10000000
      vertex -1.64970643 -10.76924451 19.10000000
    endloop
  endfacet
  facet normal -8.87441965e-01 -4.60919471e-01 0.00000000e+00
    outer loop
      vertex -0.73963191 -12.02489441 0.00000000
      vertex -0.22881545 -13.00840668 0.00000000
      vertex -0.22881545 -13.00840668 19.10000000
    endloop
  endfacet
  facet normal -8.87441965e-01 -4.60919471e-01 0.00000000e+00
    outer loop
      vertex -0.73963191 -12.02489441 0.00000000
      vertex -0.22881545 -13.00840668 19.10000000
      vertex -0.73963191 -12.02489441 19.10000000
    endloop
  endfacet
  facet normal -9.53351863e-01 -3.01861270e-01 0.00000000e+00
    outer loop
      vertex -0.22881545 -13.00840668 0.00000000
      vertex -0.02934876 -13.63837139 0.00000000
      vertex -0.02934876 -13.63837139 19.10000000
    endloop
  endfacet
  facet normal -9.53351863e-01 -3.01861270e-01 0.00000000e+00
    outer loop
      vertex -0.22881545 -13.00840668 0.00000000
      vertex -0.02934876 -13.63837139 19.10000000
      vertex -0.22881545 -13.00840668 19.10000000
    endloop
  endfacet
  facet normal -9.90994122e-01 -1.33905379e-01 0.00000000e+00
    outer loop
      vertex -0.02934876 -13.63837139 0.00000000
      vertex 0.00000000 -13.85557283 0.00000000
      vertex 0.00000000 -13.85557283 19.10000000
    endloop
  endfacet
  facet normal -9.90994122e-01 -1.33905379e-01 0.00000000e+00
    outer loop
      vertex -0.02934876 -13.63837139 0.00000000
      vertex 0.00000000 -13.85557283 19.10000000
      vertex -0.02934876 -13.63837139 19.10000000
    endloop
  endfacet
  facet normal 9.90994122e-01 -1.33905379e-01 0.00000000e+00
    outer loop
      vertex 0.00000000 -13.85557283 0.00000000
      vertex 0.02934876 -13.63837139 0.00000000
      vertex 0.02934876 -13.63837139 19.10000000
    endloop
  endfacet
  facet normal 9.90994122e-01 -1.33905379e-01 0.00000000e+00
    outer loop
      vertex 0.00000000 -13.85557283 0.00000000
      vertex 0.02934876 -13.63837139 19.10000000
      vertex 0.00000000 -13.85557283 19.10000000
    endloop
  endfacet
  facet normal 9.53351863e-01 -3.01861270e-01 0.00000000e+00
    outer loop
      vertex 0.02934876 -13.63837139 0.00000000
      vertex 0.22881545 -13.00840668 0.00000000
      vertex 0.22881545 -13.00840668 19.10000000
    endloop
  endfacet
  facet normal 9.53351863e-01 -3.01861270e-01 0.00000000e+00
    outer loop
      vertex 0.02934876 -13.63837139 0.00000000
      vertex 0.22881545 -13.00840668 19.10000000
      vertex 0.02934876 -13.63837139 19.10000000
    endloop
  endfacet
  facet normal 8.87441965e-01 -4.60919471e-01 0.00000000e+00
    outer loop
      vertex 0.22881545 -13.00840668 0.00000000
      vertex 0.73963191 -12.02489441 0.00000000
      vertex 0.73963191 -12.02489441 19.10000000
    endloop
  endfacet
  facet normal 8.87441965e-01 -4.60919471e-01 0.00000000e+00
    outer loop
      vertex 0.22881545 -13.00840668 0.00000000
      vertex 0.73963191 -12.02489441 19.10000000
      vertex 0.22881545 -13.00840668 19.10000000
    endloop
  endfacet
  facet normal 8.09693678e-01 -5.86852748e-01 0.00000000e+00
    outer loop
      vertex 0.73963191 -12.02489441 0.00000000
      vertex 1.64970643 -10.76924451 0.00000000
      vertex 1.64970643 -10.76924451 19.10000000
    endloop
  endfacet
  facet normal 8.09693678e-01 -5.86852748e-01 0.00000000e+00
    outer loop
      vertex 0.73963191 -12.02489441 0.00000000
      vertex 1.64970643 -10.76924451 19.10000000
      vertex 0.73963191 -12.02489441 19.10000000
    endloop
  endfacet
  facet normal 7.36261290e-01 -6.76697357e-01 0.00000000e+00
    outer loop
      vertex 1.64970643 -10.76924451 0.00000000
      vertex 2.97740585 -9.32467896 0.00000000
      vertex 2.97740585 -9.32467896 19.10000000
    endloop
  endfacet
  facet normal 7.36261290e-01 -6.76697357e-01 0.00000000e+00
    outer loop
      vertex 1.64970643 -10.76924451 0.00000000
      vertex 2.97740585 -9.32467896 19.10000000
      vertex 1.64970643 -10.76924451 19.10000000
    endloop
  endfacet
  facet normal 6.80340411e-01 -7.32896258e-01 0.00000000e+00
    outer loop
      vertex 2.97740585 -9.32467896 0.00000000
      vertex 4.66607441 -7.75710450 0.00000000
      vertex 4.66607441 -7.75710450 19.10000000
    endloop
  endfacet
  facet normal 6.80340411e-01 -7.32896258e-01 0.00000000e+00
    outer loop
      vertex 2.97740585 -9.32467896 0.00000000
      vertex 4.66607441 -7.75710450 19.10000000
      vertex 2.97740585 -9.32467896 19.10000000
    endloop
  endfacet
  facet normal 6.51849356e-01 -7.58348480e-01 0.00000000e+00
    outer loop
      vertex 4.66607441 -7.75710450 0.00000000
      vertex 6.59017000 -6.10322042 0.00000000
      vertex 6.59017000 -6.10322042 19.10000000
    endloop
  endfacet
  facet normal 6.51849356e-01 -7.58348480e-01 0.00000000e+00
    outer loop
      vertex 4.66607441 -7.75710450 0.00000000
      vertex 6.59017000 -6.10322042 19.10000000
      vertex 4.66607441 -7.75710450 19.10000000
    endloop
  endfacet
  facet normal 6.58342839e-01 -7.52718211e-01 0.00000000e+00
    outer loop
      vertex 6.59017000 -6.10322042 0.00000000
      vertex 8.57212606 -4.36976086 0.00000000
      vertex 8.57212606 -4.36976086 19.10000000
    endloop
  endfacet
  facet normal 6.58342839e-01 -7.52718211e-01 0.00000000e+00
    outer loop
      vertex 6.59017000 -6.10322042 0.00000000
      vertex 8.57212606 -4.36976086 19.10000000
      vertex 6.59017000 -6.10322042 19.10000000
    endloop
  endfacet
  facet normal 7.05177321e-01 -7.09030991e-01 0.00000000e+00
    outer loop
      vertex 8.57212606 -4.36976086 0.00000000
      vertex 10.40741067 -2.54445125 0.00000000
      vertex 10.40741067 -2.54445125 19.10000000
    endloop
  endfacet
  facet normal 7.05177321e-01 -7.09030991e-01 0.00000000e+00
    outer loop
      vertex 8.57212606 -4.36976086 0.00000000
      vertex 10.40741067 -2.54445125 19.10000000
      vertex 8.57212606 -4.36976086 19.10000000
    endloop
  endfacet
  facet normal 7.92050973e-01 -6.10454959e-01 0.00000000e+00
    outer loop
      vertex 10.40741067 -2.54445125 0.00000000
      vertex 11.89400148 -0.61563459 0.00000000
      vertex 11.89400148 -0.61563459 19.10000000
    endloop
  endfacet
  facet normal 7.92050973e-01 -6.10454959e-01 0.00000000e+00
    outer loop
      vertex 10.40741067 -2.54445125 0.00000000
      vertex 11.89400148 -0.61563459 19.10000000
      vertex 10.40741067 -2.54445125 19.10000000
    endloop
  endfacet
  facet normal 9.01916625e-01 -4.31910178e-01 0.00000000e+00
    outer loop
      vertex 11.89400148 -0.61563459 0.00000000
      vertex 12.86181778 1.40536343 0.00000000
      vertex 12.86181778 1.40536343 19.10000000
    endloop
  endfacet
  facet normal 9.01916625e-01 -4.31910178e-01 0.00000000e+00
    outer loop
      vertex 11.89400148 -0.61563459 0.00000000
      vertex 12.86181778 1.40536343 19.10000000
      vertex 11.89400148 -0.61563459 19.10000000
    endloop
  endfacet
  facet normal 9.86982570e-01 -1.60827258e-01 0.00000000e+00
    outer loop
      vertex 12.86181778 1.40536343 0.00000000
      vertex 13.19765143 3.46634467 0.00000000
      vertex 13.19765143 3.46634467 19.10000000
    endloop
  endfacet
  facet normal 9.86982570e-01 -1.60827258e-01 0.00000000e+00
    outer loop
      vertex 12.86181778 1.40536343 0.00000000
      vertex 13.19765143 3.46634467 19.10000000
      vertex 12.86181778 1.40536343 19.10000000
    endloop
  endfacet
  facet normal 9.86205941e-01 1.65522935e-01 0.00000000e+00
    outer loop
      vertex 13.19765143 3.46634467 0.00000000
      vertex 12.86181778 5.46728275 0.00000000
      vertex 12.86181778 5.46728275 19.10000000
    endloop
  endfacet
  facet normal 9.86205941e-01 1.65522935e-01 -0.00000000e+00
    outer loop
      vertex 13.19765143 3.46634467 0.00000000
      vertex 12.86181778 5.46728275 19.10000000
      vertex 13.19765143 3.46634467 19.10000000
    endloop
  endfacet
  facet normal 8.80847658e-01 4.73399835e-01 0.00000000e+00
    outer loop
      vertex 12.86181778 5.46728275 0.00000000
      vertex 11.89400148 7.26808338 0.00000000
      vertex 11.89400148 7.26808338 19.10000000
    endloop
  endfacet
  facet normal 8.80847658e-01 4.73399835e-01 -0.00000000e+00
    outer loop
      vertex 12.86181778 5.46728275 0.00000000
      vertex 11.89400148 7.26808338 19.10000000
      vertex 12.86181778 5.46728275 19.10000000
    endloop
  endfacet
  facet normal 6.96464680e-01 7.17591074e-01 0.00000000e+00
    outer loop
      vertex 11.89400148 7.26808338 0.00000000
      vertex 10.40741067 8.71090790 0.00000000
      vertex 10.40741067 8.71090790 19.10000000
    endloop
  endfacet
  facet normal 6.96464680e-01 7.17591074e-01 -0.00000000e+00
    outer loop
      vertex 11.89400148 7.26808338 0.00000000
      vertex 10.40741067 8.71090790 19.10000000
      vertex 11.89400148 7.26808338 19.10000000
    endloop
  endfacet
  facet normal 4.56571602e-01 8.89686671e-01 0.00000000e+00
    outer loop
      vertex 10.40741067 8.71090790 0.00000000
      vertex 8.57212606 9.65274378 0.00000000
      vertex 8.57212606 9.65274378 19.10000000
    endloop
  endfacet
  facet normal 4.56571602e-01 8.89686671e-01 -0.00000000e+00
    outer loop
      vertex 10.40741067 8.71090790 0.00000000
      vertex 8.57212606 9.65274378 19.10000000
      vertex 10.40741067 8.71090790 19.10000000
    endloop
  endfacet
  facet normal 1.72892802e-01 9.84940647e-01 0.00000000e+00
    outer loop
      vertex 8.57212606 9.65274378 0.00000000
      vertex 6.59017000 10.00064894 0.00000000
      vertex 6.59017000 10.00064894 19.10000000
    endloop
  endfacet
  facet normal 1.72892802e-01 9.84940647e-01 -0.00000000e+00
    outer loop
      vertex 8.57212606 9.65274378 0.00000000
      vertex 6.59017000 10.00064894 19.10000000
      vertex 8.57212606 9.65274378 19.10000000
    endloop
  endfacet
  facet normal -1.33898410e-01 9.90995063e-01 0.00000000e+00
    outer loop
      vertex 6.59017000 10.00064894 0.00000000
      vertex 4.66607441 9.74067455 0.00000000
      vertex 4.66607441 9.74067455 19.10000000
    endloop
  endfacet
  facet normal -1.33898410e-01 9.90995063e-01 0.00000000e+00
    outer loop
      vertex 6.59017000 10.00064894 0.00000000
      vertex 4.66607441 9.74067455 19.10000000
      vertex 6.59017000 10.00064894 19.10000000
    endloop
  endfacet
  facet normal -4.23007150e-01 9.06126344e-01 0.00000000e+00
    outer loop
      vertex 4.66607441 9.74067455 0.00000000
      vertex 2.97740585 8.95235305 0.00000000
      vertex 2.97740585 8.95235305 19.10000000
    endloop
  endfacet
  facet normal -4.23007150e-01 9.06126344e-01 0.00000000e+00
    outer loop
      vertex 4.66607441 9.74067455 0.00000000
      vertex 2.97740585 8.95235305 19.10000000
      vertex 4.66607441 9.74067455 19.10000000
    endloop
  endfacet
  facet normal -6.54274836e-01 7.56256861e-01 0.00000000e+00
    outer loop
      vertex 2.97740585 8.95235305 0.00000000
      vertex 1.64970643 7.80369529 0.00000000
      vertex 1.64970643 7.80369529 19.10000000
    endloop
  endfacet
  facet normal -6.54274836e-01 7.56256861e-01 0.00000000e+00
    outer loop
      vertex 2.97740585 8.95235305 0.00000000
      vertex 1.64970643 7.80369529 19.10000000
      vertex 2.97740585 8.95235305 19.10000000
    endloop
  endfacet
  facet normal -8.14470704e-01 5.80204681e-01 0.00000000e+00
    outer loop
      vertex 1.64970643 7.80369529 0.00000000
      vertex 0.73963191 6.52616502 0.00000000
      vertex 0.73963191 6.52616502 19.10000000
    endloop
  endfacet
  facet normal -8.14470704e-01 5.80204681e-01 0.00000000e+00
    outer loop
      vertex 1.64970643 7.80369529 0.00000000
      vertex 0.73963191 6.52616502 19.10000000
      vertex 1.64970643 7.80369529 19.10000000
    endloop
  endfacet
  facet normal -9.14184066e-01 4.05299264e-01 0.00000000e+00
    outer loop
      vertex 0.73963191 6.52616502 0.00000000
      vertex 0.22881545 5.37397871 0.00000000
      vertex 0.22881545 5.37397871 19.10000000
    endloop
  endfacet
  facet normal -9.14184066e-01 4.05299264e-01 0.00000000e+00
    outer loop
      vertex 0.73963191 6.52616502 0.00000000
      vertex 0.22881545 5.37397871 19.10000000
      vertex 0.73963191 6.52616502 19.10000000
    endloop
  endfacet
  facet normal -9.70144990e-01 2.42525665e-01 0.00000000e+00
    outer loop
      vertex 0.22881545 5.37397871 0.00000000
      vertex 0.02934876 4.57607711 0.00000000
      vertex 0.02934876 4.57607711 19.10000000
    endloop
  endfacet
  facet normal -9.70144990e-01 2.42525665e-01 0.00000000e+00
    outer loop
      vertex 0.22881545 5.37397871 0.00000000
      vertex 0.02934876 4.57607711 19.10000000
      vertex 0.22881545 5.37397871 19.10000000
    endloop
  endfacet
  facet normal -9.94735133e-01 1.02479345e-01 0.00000000e+00
    outer loop
      vertex 0.02934876 4.57607711 0.00000000
      vertex 0.00000000 4.29119788 0.00000000
      vertex 0.00000000 4.29119788 19.10000000
    endloop
  endfacet
  facet normal -9.94735133e-01 1.02479345e-01 0.00000000e+00
    outer loop
      vertex 0.02934876 4.57607711 0.00000000
      vertex 0.00000000 4.29119788 19.10000000
      vertex 0.02934876 4.57607711 19.10000000
    endloop
  endfacet
  facet normal 9.94735133e-01 1.02479345e-01 0.00000000e+00
    outer loop
      vertex 0.00000000 4.29119788 0.00000000
      vertex -0.02934876 4.57607711 0.00000000
      vertex -0.02934876 4.57607711 19.10000000
    endloop
  endfacet
  facet normal 9.94735133e-01 1.02479345e-01 -0.00000000e+00
    outer loop
      vertex 0.00000000 4.29119788 0.00000000
      vertex -0.02934876 4.57607711 19.10000000
      vertex 0.00000000 4.29119788 19.10000000
    endloop
  endfacet
endsolid heart_REALCAL_B_xy_linear_up_scale1.01061_target4168
