solid lightning_REALCAL_A_xy_sqrt_down_scale0.99670_target4168
  facet normal 0.00000000e+00 0.00000000e+00 -1.00000000e+00
    outer loop
      vertex 0.51065298 -7.29202820 0.00000000
      vertex -9.59078729 -7.29202820 0.00000000
      vertex -7.10682657 17.87877378 0.00000000
    endloop
  endfacet
  facet normal 0.00000000e+00 0.00000000e+00 -1.00000000e+00
    outer loop
      vertex 11.93687230 3.63739898 0.00000000
      vertex -2.63569727 -21.86459777 0.00000000
      vertex 0.51065298 -7.29202820 0.00000000
    endloop
  endfacet
  facet normal 0.00000000e+00 -0.00000000e+00 -1.00000000e+00
    outer loop
      vertex 2.49782156 3.63739898 0.00000000
      vertex 11.93687230 3.63739898 0.00000000
      vertex 0.51065298 -7.29202820 0.00000000
    endloop
  endfacet
  facet normal -0.00000000e+00 0.00000000e+00 -1.00000000e+00
    outer loop
      vertex 2.49782156 3.63739898 0.00000000
      vertex 0.51065298 -7.29202820 0.00000000
      vertex -7.10682657 17.87877378 0.00000000
    endloop
  endfacet
  facet normal 0.00000000e+00 0.00000000e+00 -1.00000000e+00
    outer loop
      vertex -7.10682657 17.87877378 0.00000000
      vertex 7.30014562 17.87877378 0.00000000
      vertex 2.49782156 3.63739898 0.00000000
    endloop
  endfacet
  facet normal 0.00000000e+00 0.00000000e+00 1.00000000e+00
    outer loop
      vertex -7.10682657 17.87877378 19.26000000
      vertex -9.59078729 -7.29202820 19.26000000
      vertex 0.51065298 -7.29202820 19.26000000
    endloop
  endfacet
  facet normal -0.00000000e+00 0.00000000e+00 1.00000000e+00
    outer loop
      vertex 0.51065298 -7.29202820 19.26000000
      vertex -2.63569727 -21.86459777 19.26000000
      vertex 11.93687230 3.63739898 19.26000000
    endloop
  endfacet
  facet normal 0.00000000e+00 0.00000000e+00 1.00000000e+00
    outer loop
      vertex 0.51065298 -7.29202820 19.26000000
      vertex 11.93687230 3.63739898 19.26000000
      vertex 2.49782156 3.63739898 19.26000000
    endloop
  endfacet
  facet normal 0.00000000e+00 0.00000000e+00 1.00000000e+00
    outer loop
      vertex -7.10682657 17.87877378 19.26000000
      vertex 0.51065298 -7.29202820 19.26000000
      vertex 2.49782156 3.63739898 19.26000000
    endloop
  endfacet
  facet normal 0.00000000e+00 -0.00000000e+00 1.00000000e+00
    outer loop
      vertex 2.49782156 3.63739898 19.26000000
      vertex 7.30014562 17.87877378 19.26000000
      vertex -7.10682657 17.87877378 19.26000000
    endloop
  endfacet
  facet normal 0.00000000e+00 -1.00000000e+00 0.00000000e+00
    outer loop
      vertex -9.59078729 -7.29202820 0.00000000
      vertex 0.51065298 -7.29202820 0.00000000
      vertex 0.51065298 -7.29202820 19.26000000
    endloop
  endfacet
  facet normal 0.00000000e+00 -1.00000000e+00 0.00000000e+00
    outer loop
      vertex -9.59078729 -7.29202820 0.00000000
      vertex 0.51065298 -7.29202820 19.26000000
      vertex -9.59078729 -7.29202820 19.26000000
    endloop
  endfacet
  facet normal -9.77476134e-01 2.11045984e-01 0.00000000e+00
    outer loop
      vertex 0.51065298 -7.29202820 0.00000000
      vertex -2.63569727 -21.86459777 0.00000000
      vertex -2.63569727 -21.86459777 19.26000000
    endloop
  endfacet
  facet normal -9.77476134e-01 2.11045984e-01 0.00000000e+00
    outer loop
      vertex 0.51065298 -7.29202820 0.00000000
      vertex -2.63569727 -21.86459777 19.26000000
      vertex 0.51065298 -7.29202820 19.26000000
    endloop
  endfacet
  facet normal 8.68243142e-01 -4.96138938e-01 0.00000000e+00
    outer loop
      vertex -2.63569727 -21.86459777 0.00000000
      vertex 11.93687230 3.63739898 0.00000000
      vertex 11.93687230 3.63739898 19.26000000
    endloop
  endfacet
  facet normal 8.68243142e-01 -4.96138938e-01 0.00000000e+00
    outer loop
      vertex -2.63569727 -21.86459777 0.00000000
      vertex 11.93687230 3.63739898 19.26000000
      vertex -2.63569727 -21.86459777 19.26000000
    endloop
  endfacet
  facet normal 0.00000000e+00 1.00000000e+00 0.00000000e+00
    outer loop
      vertex 11.93687230 3.63739898 0.00000000
      vertex 2.49782156 3.63739898 0.00000000
      vertex 2.49782156 3.63739898 19.26000000
    endloop
  endfacet
  facet normal 0.00000000e+00 1.00000000e+00 -0.00000000e+00
    outer loop
      vertex 11.93687230 3.63739898 0.00000000
      vertex 2.49782156 3.63739898 19.26000000
      vertex 11.93687230 3.63739898 19.26000000
    endloop
  endfacet
  facet normal 9.47575707e-01 -3.19531343e-01 0.00000000e+00
    outer loop
      vertex 2.49782156 3.63739898 0.00000000
      vertex 7.30014562 17.87877378 0.00000000
      vertex 7.30014562 17.87877378 19.26000000
    endloop
  endfacet
  facet normal 9.47575707e-01 -3.19531343e-01 0.00000000e+00
    outer loop
      vertex 2.49782156 3.63739898 0.00000000
      vertex 7.30014562 17.87877378 19.26000000
      vertex 2.49782156 3.63739898 19.26000000
    endloop
  endfacet
  facet normal 0.00000000e+00 1.00000000e+00 0.00000000e+00
    outer loop
      vertex 7.30014562 17.87877378 0.00000000
      vertex -7.10682657 17.87877378 0.00000000
      vertex -7.10682657 17.87877378 19.26000000
    endloop
  endfacet
  facet normal 0.00000000e+00 1.00000000e+00 -0.00000000e+00
    outer loop
      vertex 7.30014562 17.87877378 0.00000000
      vertex -7.10682657 17.87877378 19.26000000
      vertex 7.30014562 17.87877378 19.26000000
    endloop
  endfacet
  facet normal -9.95165992e-01 9.82071703e-02 0.00000000e+00
    outer loop
      vertex -7.10682657 17.87877378 0.00000000
      vertex -9.59078729 -7.29202820 0.00000000
      vertex -9.59078729 -7.29202820 19.26000000
    endloop
  endfacet
  facet normal -9.95165992e-01 9.82071703e-02 0.00000000e+00
    outer loop
      vertex -7.10682657 17.87877378 0.00000000
      vertex -9.59078729 -7.29202820 19.26000000
      vertex -7.10682657 17.87877378 19.26000000
    endloop
  endfacet
endsolid lightning_REALCAL_A_xy_sqrt_down_scale0.99670_target4168
