solid rocket_newtype_H19.24_S1.0740_target4168
  facet normal -0.00000000e+00 0.00000000e+00 -1.00000000e+00
    outer loop
      vertex 0.00000000 -0.36199095 0.00000000
      vertex -7.13357463 -6.97910769 0.00000000
      vertex -7.13357463 8.71475649 0.00000000
    endloop
  endfacet
  facet normal 0.00000000e+00 0.00000000e+00 1.00000000e+00
    outer loop
      vertex 0.00000000 -0.36199095 19.24000000
      vertex -7.13357463 8.71475649 19.24000000
      vertex -7.13357463 -6.97910769 19.24000000
    endloop
  endfacet
  facet normal -1.00000000e+00 0.00000000e+00 0.00000000e+00
    outer loop
      vertex -7.13357463 8.71475649 0.00000000
      vertex -7.13357463 -6.97910769 0.00000000
      vertex -7.13357463 -6.97910769 19.24000000
    endloop
  endfacet
  facet normal -1.00000000e+00 0.00000000e+00 0.00000000e+00
    outer loop
      vertex -7.13357463 8.71475649 0.00000000
      vertex -7.13357463 -6.97910769 19.24000000
      vertex -7.13357463 8.71475649 19.24000000
    endloop
  endfacet
  facet normal 0.00000000e+00 0.00000000e+00 -1.00000000e+00
    outer loop
      vertex 0.00000000 -0.36199095 0.00000000
      vertex -11.41371940 -15.53939724 0.00000000
      vertex -7.13357463 -6.97910769 0.00000000
    endloop
  endfacet
  facet normal 0.00000000e+00 0.00000000e+00 1.00000000e+00
    outer loop
      vertex 0.00000000 -0.36199095 19.24000000
      vertex -7.13357463 -6.97910769 19.24000000
      vertex -11.41371940 -15.53939724 19.24000000
    endloop
  endfacet
  facet normal -8.94427191e-01 4.47213595e-01 0.00000000e+00
    outer loop
      vertex -7.13357463 -6.97910769 0.00000000
      vertex -11.41371940 -15.53939724 0.00000000
      vertex -11.41371940 -15.53939724 19.24000000
    endloop
  endfacet
  facet normal -8.94427191e-01 4.47213595e-01 0.00000000e+00
    outer loop
      vertex -7.13357463 -6.97910769 0.00000000
      vertex -11.41371940 -15.53939724 19.24000000
      vertex -7.13357463 -6.97910769 19.24000000
    endloop
  endfacet
  facet normal 0.00000000e+00 0.00000000e+00 -1.00000000e+00
    outer loop
      vertex 0.00000000 -0.36199095 0.00000000
      vertex -2.85342985 -11.25925246 0.00000000
      vertex -11.41371940 -15.53939724 0.00000000
    endloop
  endfacet
  facet normal 0.00000000e+00 0.00000000e+00 1.00000000e+00
    outer loop
      vertex 0.00000000 -0.36199095 19.24000000
      vertex -11.41371940 -15.53939724 19.24000000
      vertex -2.85342985 -11.25925246 19.24000000
    endloop
  endfacet
  facet normal 4.47213595e-01 -8.94427191e-01 0.00000000e+00
    outer loop
      vertex -11.41371940 -15.53939724 0.00000000
      vertex -2.85342985 -11.25925246 0.00000000
      vertex -2.85342985 -11.25925246 19.24000000
    endloop
  endfacet
  facet normal 4.47213595e-01 -8.94427191e-01 0.00000000e+00
    outer loop
      vertex -11.41371940 -15.53939724 0.00000000
      vertex -2.85342985 -11.25925246 19.24000000
      vertex -11.41371940 -15.53939724 19.24000000
    endloop
  endfacet
  facet normal 0.00000000e+00 0.00000000e+00 -1.00000000e+00
    outer loop
      vertex 0.00000000 -0.36199095 0.00000000
      vertex -1.42671493 -19.81954202 0.00000000
      vertex -2.85342985 -11.25925246 0.00000000
    endloop
  endfacet
  facet normal 0.00000000e+00 0.00000000e+00 1.00000000e+00
    outer loop
      vertex 0.00000000 -0.36199095 19.24000000
      vertex -2.85342985 -11.25925246 19.24000000
      vertex -1.42671493 -19.81954202 19.24000000
    endloop
  endfacet
  facet normal -9.86393924e-01 -1.64398987e-01 0.00000000e+00
    outer loop
      vertex -2.85342985 -11.25925246 0.00000000
      vertex -1.42671493 -19.81954202 0.00000000
      vertex -1.42671493 -19.81954202 19.24000000
    endloop
  endfacet
  facet normal -9.86393924e-01 -1.64398987e-01 0.00000000e+00
    outer loop
      vertex -2.85342985 -11.25925246 0.00000000
      vertex -1.42671493 -19.81954202 19.24000000
      vertex -2.85342985 -11.25925246 19.24000000
    endloop
  endfacet
  facet normal 0.00000000e+00 -0.00000000e+00 -1.00000000e+00
    outer loop
      vertex 0.00000000 -0.36199095 0.00000000
      vertex 1.42671493 -19.81954202 0.00000000
      vertex -1.42671493 -19.81954202 0.00000000
    endloop
  endfacet
  facet normal 0.00000000e+00 0.00000000e+00 1.00000000e+00
    outer loop
      vertex 0.00000000 -0.36199095 19.24000000
      vertex -1.42671493 -19.81954202 19.24000000
      vertex 1.42671493 -19.81954202 19.24000000
    endloop
  endfacet
  facet normal 0.00000000e+00 -1.00000000e+00 0.00000000e+00
    outer loop
      vertex -1.42671493 -19.81954202 0.00000000
      vertex 1.42671493 -19.81954202 0.00000000
      vertex 1.42671493 -19.81954202 19.24000000
    endloop
  endfacet
  facet normal 0.00000000e+00 -1.00000000e+00 0.00000000e+00
    outer loop
      vertex -1.42671493 -19.81954202 0.00000000
      vertex 1.42671493 -19.81954202 19.24000000
      vertex -1.42671493 -19.81954202 19.24000000
    endloop
  endfacet
  facet normal 0.00000000e+00 0.00000000e+00 -1.00000000e+00
    outer loop
      vertex 0.00000000 -0.36199095 0.00000000
      vertex 2.85342985 -11.25925246 0.00000000
      vertex 1.42671493 -19.81954202 0.00000000
    endloop
  endfacet
  facet normal 0.00000000e+00 0.00000000e+00 1.00000000e+00
    outer loop
      vertex 0.00000000 -0.36199095 19.24000000
      vertex 1.42671493 -19.81954202 19.24000000
      vertex 2.85342985 -11.25925246 19.24000000
    endloop
  endfacet
  facet normal 9.86393924e-01 -1.64398987e-01 0.00000000e+00
    outer loop
      vertex 1.42671493 -19.81954202 0.00000000
      vertex 2.85342985 -11.25925246 0.00000000
      vertex 2.85342985 -11.25925246 19.24000000
    endloop
  endfacet
  facet normal 9.86393924e-01 -1.64398987e-01 0.00000000e+00
    outer loop
      vertex 1.42671493 -19.81954202 0.00000000
      vertex 2.85342985 -11.25925246 19.24000000
      vertex 1.42671493 -19.81954202 19.24000000
    endloop
  endfacet
  facet normal 0.00000000e+00 0.00000000e+00 -1.00000000e+00
    outer loop
      vertex 0.00000000 -0.36199095 0.00000000
      vertex 11.41371940 -15.53939724 0.00000000
      vertex 2.85342985 -11.25925246 0.00000000
    endloop
  endfacet
  facet normal 0.00000000e+00 0.00000000e+00 1.00000000e+00
    outer loop
      vertex 0.00000000 -0.36199095 19.24000000
      vertex 2.85342985 -11.25925246 19.24000000
      vertex 11.41371940 -15.53939724 19.24000000
    endloop
  endfacet
  facet normal -4.47213595e-01 -8.94427191e-01 0.00000000e+00
    outer loop
      vertex 2.85342985 -11.25925246 0.00000000
      vertex 11.41371940 -15.53939724 0.00000000
      vertex 11.41371940 -15.53939724 19.24000000
    endloop
  endfacet
  facet normal -4.47213595e-01 -8.94427191e-01 0.00000000e+00
    outer loop
      vertex 2.85342985 -11.25925246 0.00000000
      vertex 11.41371940 -15.53939724 19.24000000
      vertex 2.85342985 -11.25925246 19.24000000
    endloop
  endfacet
  facet normal 0.00000000e+00 0.00000000e+00 -1.00000000e+00
    outer loop
      vertex 0.00000000 -0.36199095 0.00000000
      vertex 7.13357463 -6.97910769 0.00000000
      vertex 11.41371940 -15.53939724 0.00000000
    endloop
  endfacet
  facet normal 0.00000000e+00 0.00000000e+00 1.00000000e+00
    outer loop
      vertex 0.00000000 -0.36199095 19.24000000
      vertex 11.41371940 -15.53939724 19.24000000
      vertex 7.13357463 -6.97910769 19.24000000
    endloop
  endfacet
  facet normal 8.94427191e-01 4.47213595e-01 0.00000000e+00
    outer loop
      vertex 11.41371940 -15.53939724 0.00000000
      vertex 7.13357463 -6.97910769 0.00000000
      vertex 7.13357463 -6.97910769 19.24000000
    endloop
  endfacet
  facet normal 8.94427191e-01 4.47213595e-01 -0.00000000e+00
    outer loop
      vertex 11.41371940 -15.53939724 0.00000000
      vertex 7.13357463 -6.97910769 19.24000000
      vertex 11.41371940 -15.53939724 19.24000000
    endloop
  endfacet
  facet normal 0.00000000e+00 0.00000000e+00 -1.00000000e+00
    outer loop
      vertex 0.00000000 -0.36199095 0.00000000
      vertex 7.13357463 8.71475649 0.00000000
      vertex 7.13357463 -6.97910769 0.00000000
    endloop
  endfacet
  facet normal -0.00000000e+00 0.00000000e+00 1.00000000e+00
    outer loop
      vertex 0.00000000 -0.36199095 19.24000000
      vertex 7.13357463 -6.97910769 19.24000000
      vertex 7.13357463 8.71475649 19.24000000
    endloop
  endfacet
  facet normal 1.00000000e+00 0.00000000e+00 0.00000000e+00
    outer loop
      vertex 7.13357463 -6.97910769 0.00000000
      vertex 7.13357463 8.71475649 0.00000000
      vertex 7.13357463 8.71475649 19.24000000
    endloop
  endfacet
  facet normal 1.00000000e+00 0.00000000e+00 0.00000000e+00
    outer loop
      vertex 7.13357463 -6.97910769 0.00000000
      vertex 7.13357463 8.71475649 19.24000000
      vertex 7.13357463 -6.97910769 19.24000000
    endloop
  endfacet
  facet normal 0.00000000e+00 0.00000000e+00 -1.00000000e+00
    outer loop
      vertex 0.00000000 -0.36199095 0.00000000
      vertex -0.00000000 21.55519082 0.00000000
      vertex 7.13357463 8.71475649 0.00000000
    endloop
  endfacet
  facet normal 0.00000000e+00 -0.00000000e+00 1.00000000e+00
    outer loop
      vertex 0.00000000 -0.36199095 19.24000000
      vertex 7.13357463 8.71475649 19.24000000
      vertex -0.00000000 21.55519082 19.24000000
    endloop
  endfacet
  facet normal 8.74157276e-01 4.85642931e-01 0.00000000e+00
    outer loop
      vertex 7.13357463 8.71475649 0.00000000
      vertex -0.00000000 21.55519082 0.00000000
      vertex -0.00000000 21.55519082 19.24000000
    endloop
  endfacet
  facet normal 8.74157276e-01 4.85642931e-01 -0.00000000e+00
    outer loop
      vertex 7.13357463 8.71475649 0.00000000
      vertex -0.00000000 21.55519082 19.24000000
      vertex 7.13357463 8.71475649 19.24000000
    endloop
  endfacet
  facet normal 0.00000000e+00 0.00000000e+00 -1.00000000e+00
    outer loop
      vertex 0.00000000 -0.36199095 0.00000000
      vertex -7.13357463 8.71475649 0.00000000
      vertex -0.00000000 21.55519082 0.00000000
    endloop
  endfacet
  facet normal 0.00000000e+00 0.00000000e+00 1.00000000e+00
    outer loop
      vertex 0.00000000 -0.36199095 19.24000000
      vertex -0.00000000 21.55519082 19.24000000
      vertex -7.13357463 8.71475649 19.24000000
    endloop
  endfacet
  facet normal -8.74157276e-01 4.85642931e-01 0.00000000e+00
    outer loop
      vertex -0.00000000 21.55519082 0.00000000
      vertex -7.13357463 8.71475649 0.00000000
      vertex -7.13357463 8.71475649 19.24000000
    endloop
  endfacet
  facet normal -8.74157276e-01 4.85642931e-01 0.00000000e+00
    outer loop
      vertex -0.00000000 21.55519082 0.00000000
      vertex -7.13357463 8.71475649 19.24000000
      vertex -0.00000000 21.55519082 19.24000000
    endloop
  endfacet
endsolid rocket_newtype_H19.24_S1.0740_target4168
