solid smooth_leaf_B_1h09_candidate_TIGHT_interp_scale1.0835_est4180s
  facet normal 0.00000000e+00 0.00000000e+00 -1.00000000e+00
    outer loop
      vertex 0.00000000 0.58227444 0.00000000
      vertex 12.67410485 1.56938124 0.00000000
      vertex 12.75078836 -0.13625620 0.00000000
    endloop
  endfacet
  facet normal -0.00000000e+00 0.00000000e+00 1.00000000e+00
    outer loop
      vertex 0.00000000 0.58227444 19.10000000
      vertex 12.75078836 -0.13625620 19.10000000
      vertex 12.67410485 1.56938124 19.10000000
    endloop
  endfacet
  facet normal 9.98990880e-01 4.49134864e-02 0.00000000e+00
    outer loop
      vertex 12.75078836 -0.13625620 0.00000000
      vertex 12.67410485 1.56938124 0.00000000
      vertex 12.67410485 1.56938124 19.10000000
    endloop
  endfacet
  facet normal 9.98990880e-01 4.49134864e-02 -0.00000000e+00
    outer loop
      vertex 12.75078836 -0.13625620 0.00000000
      vertex 12.67410485 1.56938124 19.10000000
      vertex 12.75078836 -0.13625620 19.10000000
    endloop
  endfacet
  facet normal 0.00000000e+00 0.00000000e+00 -1.00000000e+00
    outer loop
      vertex 0.00000000 0.58227444 0.00000000
      vertex 12.22344631 3.23020259 0.00000000
      vertex 12.67410485 1.56938124 0.00000000
    endloop
  endfacet
  facet normal 0.00000000e+00 0.00000000e+00 1.00000000e+00
    outer loop
      vertex 0.00000000 0.58227444 19.10000000
      vertex 12.67410485 1.56938124 19.10000000
      vertex 12.22344631 3.23020259 19.10000000
    endloop
  endfacet
  facet normal 9.65101225e-01 2.61877120e-01 0.00000000e+00
    outer loop
      vertex 12.67410485 1.56938124 0.00000000
      vertex 12.22344631 3.23020259 0.00000000
      vertex 12.22344631 3.23020259 19.10000000
    endloop
  endfacet
  facet normal 9.65101225e-01 2.61877120e-01 -0.00000000e+00
    outer loop
      vertex 12.67410485 1.56938124 0.00000000
      vertex 12.22344631 3.23020259 19.10000000
      vertex 12.67410485 1.56938124 19.10000000
    endloop
  endfacet
  facet normal 0.00000000e+00 0.00000000e+00 -1.00000000e+00
    outer loop
      vertex 0.00000000 0.58227444 0.00000000
      vertex 11.46160629 4.79197476 0.00000000
      vertex 12.22344631 3.23020259 0.00000000
    endloop
  endfacet
  facet normal 0.00000000e+00 0.00000000e+00 1.00000000e+00
    outer loop
      vertex 0.00000000 0.58227444 19.10000000
      vertex 12.22344631 3.23020259 19.10000000
      vertex 11.46160629 4.79197476 19.10000000
    endloop
  endfacet
  facet normal 8.98768459e-01 4.38423605e-01 0.00000000e+00
    outer loop
      vertex 12.22344631 3.23020259 0.00000000
      vertex 11.46160629 4.79197476 0.00000000
      vertex 11.46160629 4.79197476 19.10000000
    endloop
  endfacet
  facet normal 8.98768459e-01 4.38423605e-01 -0.00000000e+00
    outer loop
      vertex 12.22344631 3.23020259 0.00000000
      vertex 11.46160629 4.79197476 19.10000000
      vertex 12.22344631 3.23020259 19.10000000
    endloop
  endfacet
  facet normal 0.00000000e+00 0.00000000e+00 -1.00000000e+00
    outer loop
      vertex 0.00000000 0.58227444 0.00000000
      vertex 10.46622369 6.23494959 0.00000000
      vertex 11.46160629 4.79197476 0.00000000
    endloop
  endfacet
  facet normal 0.00000000e+00 0.00000000e+00 1.00000000e+00
    outer loop
      vertex 0.00000000 0.58227444 19.10000000
      vertex 11.46160629 4.79197476 19.10000000
      vertex 10.46622369 6.23494959 19.10000000
    endloop
  endfacet
  facet normal 8.23152117e-01 5.67820916e-01 0.00000000e+00
    outer loop
      vertex 11.46160629 4.79197476 0.00000000
      vertex 10.46622369 6.23494959 0.00000000
      vertex 10.46622369 6.23494959 19.10000000
    endloop
  endfacet
  facet normal 8.23152117e-01 5.67820916e-01 -0.00000000e+00
    outer loop
      vertex 11.46160629 4.79197476 0.00000000
      vertex 10.46622369 6.23494959 19.10000000
      vertex 11.46160629 4.79197476 19.10000000
    endloop
  endfacet
  facet normal 0.00000000e+00 0.00000000e+00 -1.00000000e+00
    outer loop
      vertex 0.00000000 0.58227444 0.00000000
      vertex 9.29674767 7.56563776 0.00000000
      vertex 10.46622369 6.23494959 0.00000000
    endloop
  endfacet
  facet normal 0.00000000e+00 0.00000000e+00 1.00000000e+00
    outer loop
      vertex 0.00000000 0.58227444 19.10000000
      vertex 10.46622369 6.23494959 19.10000000
      vertex 9.29674767 7.56563776 19.10000000
    endloop
  endfacet
  facet normal 7.51141561e-01 6.60141163e-01 0.00000000e+00
    outer loop
      vertex 10.46622369 6.23494959 0.00000000
      vertex 9.29674767 7.56563776 0.00000000
      vertex 9.29674767 7.56563776 19.10000000
    endloop
  endfacet
  facet normal 7.51141561e-01 6.60141163e-01 -0.00000000e+00
    outer loop
      vertex 10.46622369 6.23494959 0.00000000
      vertex 9.29674767 7.56563776 19.10000000
      vertex 10.46622369 6.23494959 19.10000000
    endloop
  endfacet
  facet normal 0.00000000e+00 0.00000000e+00 -1.00000000e+00
    outer loop
      vertex 0.00000000 0.58227444 0.00000000
      vertex 7.97554145 8.79321937 0.00000000
      vertex 9.29674767 7.56563776 0.00000000
    endloop
  endfacet
  facet normal 0.00000000e+00 0.00000000e+00 1.00000000e+00
    outer loop
      vertex 0.00000000 0.58227444 19.10000000
      vertex 9.29674767 7.56563776 19.10000000
      vertex 7.97554145 8.79321937 19.10000000
    endloop
  endfacet
  facet normal 6.80673563e-01 7.32586855e-01 0.00000000e+00
    outer loop
      vertex 9.29674767 7.56563776 0.00000000
      vertex 7.97554145 8.79321937 0.00000000
      vertex 7.97554145 8.79321937 19.10000000
    endloop
  endfacet
  facet normal 6.80673563e-01 7.32586855e-01 -0.00000000e+00
    outer loop
      vertex 9.29674767 7.56563776 0.00000000
      vertex 7.97554145 8.79321937 19.10000000
      vertex 9.29674767 7.56563776 19.10000000
    endloop
  endfacet
  facet normal 0.00000000e+00 0.00000000e+00 -1.00000000e+00
    outer loop
      vertex 0.00000000 0.58227444 0.00000000
      vertex 6.49227631 9.90387989 0.00000000
      vertex 7.97554145 8.79321937 0.00000000
    endloop
  endfacet
  facet normal 0.00000000e+00 0.00000000e+00 1.00000000e+00
    outer loop
      vertex 0.00000000 0.58227444 19.10000000
      vertex 7.97554145 8.79321937 19.10000000
      vertex 6.49227631 9.90387989 19.10000000
    endloop
  endfacet
  facet normal 5.99382160e-01 8.00463008e-01 0.00000000e+00
    outer loop
      vertex 7.97554145 8.79321937 0.00000000
      vertex 6.49227631 9.90387989 0.00000000
      vertex 6.49227631 9.90387989 19.10000000
    endloop
  endfacet
  facet normal 5.99382160e-01 8.00463008e-01 -0.00000000e+00
    outer loop
      vertex 7.97554145 8.79321937 0.00000000
      vertex 6.49227631 9.90387989 19.10000000
      vertex 7.97554145 8.79321937 19.10000000
    endloop
  endfacet
  facet normal 0.00000000e+00 0.00000000e+00 -1.00000000e+00
    outer loop
      vertex 0.00000000 0.58227444 0.00000000
      vertex 4.82824695 10.84782648 0.00000000
      vertex 6.49227631 9.90387989 0.00000000
    endloop
  endfacet
  facet normal 0.00000000e+00 0.00000000e+00 1.00000000e+00
    outer loop
      vertex 0.00000000 0.58227444 19.10000000
      vertex 6.49227631 9.90387989 19.10000000
      vertex 4.82824695 10.84782648 19.10000000
    endloop
  endfacet
  facet normal 4.93406839e-01 8.69798650e-01 0.00000000e+00
    outer loop
      vertex 6.49227631 9.90387989 0.00000000
      vertex 4.82824695 10.84782648 0.00000000
      vertex 4.82824695 10.84782648 19.10000000
    endloop
  endfacet
  facet normal 4.93406839e-01 8.69798650e-01 -0.00000000e+00
    outer loop
      vertex 6.49227631 9.90387989 0.00000000
      vertex 4.82824695 10.84782648 19.10000000
      vertex 6.49227631 9.90387989 19.10000000
    endloop
  endfacet
  facet normal 0.00000000e+00 0.00000000e+00 -1.00000000e+00
    outer loop
      vertex 0.00000000 0.58227444 0.00000000
      vertex 2.98667803 11.54721831 0.00000000
      vertex 4.82824695 10.84782648 0.00000000
    endloop
  endfacet
  facet normal 0.00000000e+00 0.00000000e+00 1.00000000e+00
    outer loop
      vertex 0.00000000 0.58227444 19.10000000
      vertex 4.82824695 10.84782648 19.10000000
      vertex 2.98667803 11.54721831 19.10000000
    endloop
  endfacet
  facet normal 3.55038390e-01 9.34851722e-01 0.00000000e+00
    outer loop
      vertex 4.82824695 10.84782648 0.00000000
      vertex 2.98667803 11.54721831 0.00000000
      vertex 2.98667803 11.54721831 19.10000000
    endloop
  endfacet
  facet normal 3.55038390e-01 9.34851722e-01 -0.00000000e+00
    outer loop
      vertex 4.82824695 10.84782648 0.00000000
      vertex 2.98667803 11.54721831 19.10000000
      vertex 4.82824695 10.84782648 19.10000000
    endloop
  endfacet
  facet normal 0.00000000e+00 0.00000000e+00 -1.00000000e+00
    outer loop
      vertex 0.00000000 0.58227444 0.00000000
      vertex 1.01209188 11.92216124 0.00000000
      vertex 2.98667803 11.54721831 0.00000000
    endloop
  endfacet
  facet normal 0.00000000e+00 0.00000000e+00 1.00000000e+00
    outer loop
      vertex 0.00000000 0.58227444 19.10000000
      vertex 2.98667803 11.54721831 19.10000000
      vertex 1.01209188 11.92216124 19.10000000
    endloop
  endfacet
  facet normal 1.86550941e-01 9.82445289e-01 0.00000000e+00
    outer loop
      vertex 2.98667803 11.54721831 0.00000000
      vertex 1.01209188 11.92216124 0.00000000
      vertex 1.01209188 11.92216124 19.10000000
    endloop
  endfacet
  facet normal 1.86550941e-01 9.82445289e-01 -0.00000000e+00
    outer loop
      vertex 2.98667803 11.54721831 0.00000000
      vertex 1.01209188 11.92216124 19.10000000
      vertex 2.98667803 11.54721831 19.10000000
    endloop
  endfacet
  facet normal 0.00000000e+00 0.00000000e+00 -1.00000000e+00
    outer loop
      vertex 0.00000000 0.58227444 0.00000000
      vertex -1.01209188 11.92216124 0.00000000
      vertex 1.01209188 11.92216124 0.00000000
    endloop
  endfacet
  facet normal 0.00000000e+00 -0.00000000e+00 1.00000000e+00
    outer loop
      vertex 0.00000000 0.58227444 19.10000000
      vertex 1.01209188 11.92216124 19.10000000
      vertex -1.01209188 11.92216124 19.10000000
    endloop
  endfacet
  facet normal 0.00000000e+00 1.00000000e+00 0.00000000e+00
    outer loop
      vertex 1.01209188 11.92216124 0.00000000
      vertex -1.01209188 11.92216124 0.00000000
      vertex -1.01209188 11.92216124 19.10000000
    endloop
  endfacet
  facet normal 0.00000000e+00 1.00000000e+00 -0.00000000e+00
    outer loop
      vertex 1.01209188 11.92216124 0.00000000
      vertex -1.01209188 11.92216124 19.10000000
      vertex 1.01209188 11.92216124 19.10000000
    endloop
  endfacet
  facet normal 0.00000000e+00 0.00000000e+00 -1.00000000e+00
    outer loop
      vertex 0.00000000 0.58227444 0.00000000
      vertex -2.98667803 11.54721831 0.00000000
      vertex -1.01209188 11.92216124 0.00000000
    endloop
  endfacet
  facet normal 0.00000000e+00 0.00000000e+00 1.00000000e+00
    outer loop
      vertex 0.00000000 0.58227444 19.10000000
      vertex -1.01209188 11.92216124 19.10000000
      vertex -2.98667803 11.54721831 19.10000000
    endloop
  endfacet
  facet normal -1.86550941e-01 9.82445289e-01 0.00000000e+00
    outer loop
      vertex -1.01209188 11.92216124 0.00000000
      vertex -2.98667803 11.54721831 0.00000000
      vertex -2.98667803 11.54721831 19.10000000
    endloop
  endfacet
  facet normal -1.86550941e-01 9.82445289e-01 0.00000000e+00
    outer loop
      vertex -1.01209188 11.92216124 0.00000000
      vertex -2.98667803 11.54721831 19.10000000
      vertex -1.01209188 11.92216124 19.10000000
    endloop
  endfacet
  facet normal 0.00000000e+00 0.00000000e+00 -1.00000000e+00
    outer loop
      vertex 0.00000000 0.58227444 0.00000000
      vertex -4.82824695 10.84782648 0.00000000
      vertex -2.98667803 11.54721831 0.00000000
    endloop
  endfacet
  facet normal 0.00000000e+00 0.00000000e+00 1.00000000e+00
    outer loop
      vertex 0.00000000 0.58227444 19.10000000
      vertex -2.98667803 11.54721831 19.10000000
      vertex -4.82824695 10.84782648 19.10000000
    endloop
  endfacet
  facet normal -3.55038390e-01 9.34851722e-01 0.00000000e+00
    outer loop
      vertex -2.98667803 11.54721831 0.00000000
      vertex -4.82824695 10.84782648 0.00000000
      vertex -4.82824695 10.84782648 19.10000000
    endloop
  endfacet
  facet normal -3.55038390e-01 9.34851722e-01 0.00000000e+00
    outer loop
      vertex -2.98667803 11.54721831 0.00000000
      vertex -4.82824695 10.84782648 19.10000000
      vertex -2.98667803 11.54721831 19.10000000
    endloop
  endfacet
  facet normal 0.00000000e+00 0.00000000e+00 -1.00000000e+00
    outer loop
      vertex 0.00000000 0.58227444 0.00000000
      vertex -6.49227631 9.90387989 0.00000000
      vertex -4.82824695 10.84782648 0.00000000
    endloop
  endfacet
  facet normal 0.00000000e+00 0.00000000e+00 1.00000000e+00
    outer loop
      vertex 0.00000000 0.58227444 19.10000000
      vertex -4.82824695 10.84782648 19.10000000
      vertex -6.49227631 9.90387989 19.10000000
    endloop
  endfacet
  facet normal -4.93406839e-01 8.69798650e-01 0.00000000e+00
    outer loop
      vertex -4.82824695 10.84782648 0.00000000
      vertex -6.49227631 9.90387989 0.00000000
      vertex -6.49227631 9.90387989 19.10000000
    endloop
  endfacet
  facet normal -4.93406839e-01 8.69798650e-01 0.00000000e+00
    outer loop
      vertex -4.82824695 10.84782648 0.00000000
      vertex -6.49227631 9.90387989 19.10000000
      vertex -4.82824695 10.84782648 19.10000000
    endloop
  endfacet
  facet normal 0.00000000e+00 0.00000000e+00 -1.00000000e+00
    outer loop
      vertex 0.00000000 0.58227444 0.00000000
      vertex -7.97554145 8.79321937 0.00000000
      vertex -6.49227631 9.90387989 0.00000000
    endloop
  endfacet
  facet normal 0.00000000e+00 0.00000000e+00 1.00000000e+00
    outer loop
      vertex 0.00000000 0.58227444 19.10000000
      vertex -6.49227631 9.90387989 19.10000000
      vertex -7.97554145 8.79321937 19.10000000
    endloop
  endfacet
  facet normal -5.99382160e-01 8.00463008e-01 0.00000000e+00
    outer loop
      vertex -6.49227631 9.90387989 0.00000000
      vertex -7.97554145 8.79321937 0.00000000
      vertex -7.97554145 8.79321937 19.10000000
    endloop
  endfacet
  facet normal -5.99382160e-01 8.00463008e-01 0.00000000e+00
    outer loop
      vertex -6.49227631 9.90387989 0.00000000
      vertex -7.97554145 8.79321937 19.10000000
      vertex -6.49227631 9.90387989 19.10000000
    endloop
  endfacet
  facet normal 0.00000000e+00 0.00000000e+00 -1.00000000e+00
    outer loop
      vertex 0.00000000 0.58227444 0.00000000
      vertex -9.29674767 7.56563776 0.00000000
      vertex -7.97554145 8.79321937 0.00000000
    endloop
  endfacet
  facet normal 0.00000000e+00 0.00000000e+00 1.00000000e+00
    outer loop
      vertex 0.00000000 0.58227444 19.10000000
      vertex -7.97554145 8.79321937 19.10000000
      vertex -9.29674767 7.56563776 19.10000000
    endloop
  endfacet
  facet normal -6.80673563e-01 7.32586855e-01 0.00000000e+00
    outer loop
      vertex -7.97554145 8.79321937 0.00000000
      vertex -9.29674767 7.56563776 0.00000000
      vertex -9.29674767 7.56563776 19.10000000
    endloop
  endfacet
  facet normal -6.80673563e-01 7.32586855e-01 0.00000000e+00
    outer loop
      vertex -7.97554145 8.79321937 0.00000000
      vertex -9.29674767 7.56563776 19.10000000
      vertex -7.97554145 8.79321937 19.10000000
    endloop
  endfacet
  facet normal 0.00000000e+00 0.00000000e+00 -1.00000000e+00
    outer loop
      vertex 0.00000000 0.58227444 0.00000000
      vertex -10.46622369 6.23494959 0.00000000
      vertex -9.29674767 7.56563776 0.00000000
    endloop
  endfacet
  facet normal 0.00000000e+00 0.00000000e+00 1.00000000e+00
    outer loop
      vertex 0.00000000 0.58227444 19.10000000
      vertex -9.29674767 7.56563776 19.10000000
      vertex -10.46622369 6.23494959 19.10000000
    endloop
  endfacet
  facet normal -7.51141561e-01 6.60141163e-01 0.00000000e+00
    outer loop
      vertex -9.29674767 7.56563776 0.00000000
      vertex -10.46622369 6.23494959 0.00000000
      vertex -10.46622369 6.23494959 19.10000000
    endloop
  endfacet
  facet normal -7.51141561e-01 6.60141163e-01 0.00000000e+00
    outer loop
      vertex -9.29674767 7.56563776 0.00000000
      vertex -10.46622369 6.23494959 19.10000000
      vertex -9.29674767 7.56563776 19.10000000
    endloop
  endfacet
  facet normal 0.00000000e+00 0.00000000e+00 -1.00000000e+00
    outer loop
      vertex 0.00000000 0.58227444 0.00000000
      vertex -11.46160629 4.79197476 0.00000000
      vertex -10.46622369 6.23494959 0.00000000
    endloop
  endfacet
  facet normal 0.00000000e+00 0.00000000e+00 1.00000000e+00
    outer loop
      vertex 0.00000000 0.58227444 19.10000000
      vertex -10.46622369 6.23494959 19.10000000
      vertex -11.46160629 4.79197476 19.10000000
    endloop
  endfacet
  facet normal -8.23152117e-01 5.67820916e-01 0.00000000e+00
    outer loop
      vertex -10.46622369 6.23494959 0.00000000
      vertex -11.46160629 4.79197476 0.00000000
      vertex -11.46160629 4.79197476 19.10000000
    endloop
  endfacet
  facet normal -8.23152117e-01 5.67820916e-01 0.00000000e+00
    outer loop
      vertex -10.46622369 6.23494959 0.00000000
      vertex -11.46160629 4.79197476 19.10000000
      vertex -10.46622369 6.23494959 19.10000000
    endloop
  endfacet
  facet normal 0.00000000e+00 0.00000000e+00 -1.00000000e+00
    outer loop
      vertex 0.00000000 0.58227444 0.00000000
      vertex -12.22344631 3.23020259 0.00000000
      vertex -11.46160629 4.79197476 0.00000000
    endloop
  endfacet
  facet normal 0.00000000e+00 0.00000000e+00 1.00000000e+00
    outer loop
      vertex 0.00000000 0.58227444 19.10000000
      vertex -11.46160629 4.79197476 19.10000000
      vertex -12.22344631 3.23020259 19.10000000
    endloop
  endfacet
  facet normal -8.98768459e-01 4.38423605e-01 0.00000000e+00
    outer loop
      vertex -11.46160629 4.79197476 0.00000000
      vertex -12.22344631 3.23020259 0.00000000
      vertex -12.22344631 3.23020259 19.10000000
    endloop
  endfacet
  facet normal -8.98768459e-01 4.38423605e-01 0.00000000e+00
    outer loop
      vertex -11.46160629 4.79197476 0.00000000
      vertex -12.22344631 3.23020259 19.10000000
      vertex -11.46160629 4.79197476 19.10000000
    endloop
  endfacet
  facet normal 0.00000000e+00 0.00000000e+00 -1.00000000e+00
    outer loop
      vertex 0.00000000 0.58227444 0.00000000
      vertex -12.67410485 1.56938124 0.00000000
      vertex -12.22344631 3.23020259 0.00000000
    endloop
  endfacet
  facet normal 0.00000000e+00 0.00000000e+00 1.00000000e+00
    outer loop
      vertex 0.00000000 0.58227444 19.10000000
      vertex -12.22344631 3.23020259 19.10000000
      vertex -12.67410485 1.56938124 19.10000000
    endloop
  endfacet
  facet normal -9.65101225e-01 2.61877120e-01 0.00000000e+00
    outer loop
      vertex -12.22344631 3.23020259 0.00000000
      vertex -12.67410485 1.56938124 0.00000000
      vertex -12.67410485 1.56938124 19.10000000
    endloop
  endfacet
  facet normal -9.65101225e-01 2.61877120e-01 0.00000000e+00
    outer loop
      vertex -12.22344631 3.23020259 0.00000000
      vertex -12.67410485 1.56938124 19.10000000
      vertex -12.22344631 3.23020259 19.10000000
    endloop
  endfacet
  facet normal -0.00000000e+00 0.00000000e+00 -1.00000000e+00
    outer loop
      vertex 0.00000000 0.58227444 0.00000000
      vertex -12.75078836 -0.13625620 0.00000000
      vertex -12.67410485 1.56938124 0.00000000
    endloop
  endfacet
  facet normal 0.00000000e+00 0.00000000e+00 1.00000000e+00
    outer loop
      vertex 0.00000000 0.58227444 19.10000000
      vertex -12.67410485 1.56938124 19.10000000
      vertex -12.75078836 -0.13625620 19.10000000
    endloop
  endfacet
  facet normal -9.98990880e-01 4.49134864e-02 0.00000000e+00
    outer loop
      vertex -12.67410485 1.56938124 0.00000000
      vertex -12.75078836 -0.13625620 0.00000000
      vertex -12.75078836 -0.13625620 19.10000000
    endloop
  endfacet
  facet normal -9.98990880e-01 4.49134864e-02 0.00000000e+00
    outer loop
      vertex -12.67410485 1.56938124 0.00000000
      vertex -12.75078836 -0.13625620 19.10000000
      vertex -12.67410485 1.56938124 19.10000000
    endloop
  endfacet
  facet normal 0.00000000e+00 0.00000000e+00 -1.00000000e+00
    outer loop
      vertex 0.00000000 0.58227444 0.00000000
      vertex -12.43576977 -1.80981934 0.00000000
      vertex -12.75078836 -0.13625620 0.00000000
    endloop
  endfacet
  facet normal 0.00000000e+00 0.00000000e+00 1.00000000e+00
    outer loop
      vertex 0.00000000 0.58227444 19.10000000
      vertex -12.75078836 -0.13625620 19.10000000
      vertex -12.43576977 -1.80981934 19.10000000
    endloop
  endfacet
  facet normal -9.82741593e-01 -1.84983680e-01 0.00000000e+00
    outer loop
      vertex -12.75078836 -0.13625620 0.00000000
      vertex -12.43576977 -1.80981934 0.00000000
      vertex -12.43576977 -1.80981934 19.10000000
    endloop
  endfacet
  facet normal -9.82741593e-01 -1.84983680e-01 0.00000000e+00
    outer loop
      vertex -12.75078836 -0.13625620 0.00000000
      vertex -12.43576977 -1.80981934 19.10000000
      vertex -12.75078836 -0.13625620 19.10000000
    endloop
  endfacet
  facet normal 0.00000000e+00 0.00000000e+00 -1.00000000e+00
    outer loop
      vertex 0.00000000 0.58227444 0.00000000
      vertex -11.76795327 -3.37726768 0.00000000
      vertex -12.43576977 -1.80981934 0.00000000
    endloop
  endfacet
  facet normal 0.00000000e+00 0.00000000e+00 1.00000000e+00
    outer loop
      vertex 0.00000000 0.58227444 19.10000000
      vertex -12.43576977 -1.80981934 19.10000000
      vertex -11.76795327 -3.37726768 19.10000000
    endloop
  endfacet
  facet normal -9.19981735e-01 -3.91961233e-01 0.00000000e+00
    outer loop
      vertex -12.43576977 -1.80981934 0.00000000
      vertex -11.76795327 -3.37726768 0.00000000
      vertex -11.76795327 -3.37726768 19.10000000
    endloop
  endfacet
  facet normal -9.19981735e-01 -3.91961233e-01 0.00000000e+00
    outer loop
      vertex -12.43576977 -1.80981934 0.00000000
      vertex -11.76795327 -3.37726768 19.10000000
      vertex -12.43576977 -1.80981934 19.10000000
    endloop
  endfacet
  facet normal 0.00000000e+00 0.00000000e+00 -1.00000000e+00
    outer loop
      vertex 0.00000000 0.58227444 0.00000000
      vertex -10.82942784 -4.79266476 0.00000000
      vertex -11.76795327 -3.37726768 0.00000000
    endloop
  endfacet
  facet normal 0.00000000e+00 0.00000000e+00 1.00000000e+00
    outer loop
      vertex 0.00000000 0.58227444 19.10000000
      vertex -11.76795327 -3.37726768 19.10000000
      vertex -10.82942784 -4.79266476 19.10000000
    endloop
  endfacet
  facet normal -8.33426297e-01 -5.52630625e-01 0.00000000e+00
    outer loop
      vertex -11.76795327 -3.37726768 0.00000000
      vertex -10.82942784 -4.79266476 0.00000000
      vertex -10.82942784 -4.79266476 19.10000000
    endloop
  endfacet
  facet normal -8.33426297e-01 -5.52630625e-01 0.00000000e+00
    outer loop
      vertex -11.76795327 -3.37726768 0.00000000
      vertex -10.82942784 -4.79266476 19.10000000
      vertex -11.76795327 -3.37726768 19.10000000
    endloop
  endfacet
  facet normal 0.00000000e+00 0.00000000e+00 -1.00000000e+00
    outer loop
      vertex 0.00000000 0.58227444 0.00000000
      vertex -9.71353167 -6.04926849 0.00000000
      vertex -10.82942784 -4.79266476 0.00000000
    endloop
  endfacet
  facet normal 0.00000000e+00 0.00000000e+00 1.00000000e+00
    outer loop
      vertex 0.00000000 0.58227444 19.10000000
      vertex -10.82942784 -4.79266476 19.10000000
      vertex -9.71353167 -6.04926849 19.10000000
    endloop
  endfacet
  facet normal -7.47729791e-01 -6.64003132e-01 0.00000000e+00
    outer loop
      vertex -10.82942784 -4.79266476 0.00000000
      vertex -9.71353167 -6.04926849 0.00000000
      vertex -9.71353167 -6.04926849 19.10000000
    endloop
  endfacet
  facet normal -7.47729791e-01 -6.64003132e-01 0.00000000e+00
    outer loop
      vertex -10.82942784 -4.79266476 0.00000000
      vertex -9.71353167 -6.04926849 19.10000000
      vertex -10.82942784 -4.79266476 19.10000000
    endloop
  endfacet
  facet normal 0.00000000e+00 0.00000000e+00 -1.00000000e+00
    outer loop
      vertex 0.00000000 0.58227444 0.00000000
      vertex -8.49042206 -7.17014942 0.00000000
      vertex -9.71353167 -6.04926849 0.00000000
    endloop
  endfacet
  facet normal 0.00000000e+00 0.00000000e+00 1.00000000e+00
    outer loop
      vertex 0.00000000 0.58227444 19.10000000
      vertex -9.71353167 -6.04926849 19.10000000
      vertex -8.49042206 -7.17014942 19.10000000
    endloop
  endfacet
  facet normal -6.75625424e-01 -7.37245065e-01 0.00000000e+00
    outer loop
      vertex -9.71353167 -6.04926849 0.00000000
      vertex -8.49042206 -7.17014942 0.00000000
      vertex -8.49042206 -7.17014942 19.10000000
    endloop
  endfacet
  facet normal -6.75625424e-01 -7.37245065e-01 0.00000000e+00
    outer loop
      vertex -9.71353167 -6.04926849 0.00000000
      vertex -8.49042206 -7.17014942 19.10000000
      vertex -9.71353167 -6.04926849 19.10000000
    endloop
  endfacet
  facet normal 0.00000000e+00 0.00000000e+00 -1.00000000e+00
    outer loop
      vertex 0.00000000 0.58227444 0.00000000
      vertex -7.18722782 -8.18312998 0.00000000
      vertex -8.49042206 -7.17014942 0.00000000
    endloop
  endfacet
  facet normal 0.00000000e+00 0.00000000e+00 1.00000000e+00
    outer loop
      vertex 0.00000000 0.58227444 19.10000000
      vertex -8.49042206 -7.17014942 19.10000000
      vertex -7.18722782 -8.18312998 19.10000000
    endloop
  endfacet
  facet normal -6.13708440e-01 -7.89532742e-01 0.00000000e+00
    outer loop
      vertex -8.49042206 -7.17014942 0.00000000
      vertex -7.18722782 -8.18312998 0.00000000
      vertex -7.18722782 -8.18312998 19.10000000
    endloop
  endfacet
  facet normal -6.13708440e-01 -7.89532742e-01 0.00000000e+00
    outer loop
      vertex -8.49042206 -7.17014942 0.00000000
      vertex -7.18722782 -8.18312998 19.10000000
      vertex -8.49042206 -7.17014942 19.10000000
    endloop
  endfacet
  facet normal 0.00000000e+00 0.00000000e+00 -1.00000000e+00
    outer loop
      vertex 0.00000000 0.58227444 0.00000000
      vertex -5.79201979 -9.09346385 0.00000000
      vertex -7.18722782 -8.18312998 0.00000000
    endloop
  endfacet
  facet normal 0.00000000e+00 0.00000000e+00 1.00000000e+00
    outer loop
      vertex 0.00000000 0.58227444 19.10000000
      vertex -7.18722782 -8.18312998 19.10000000
      vertex -5.79201979 -9.09346385 19.10000000
    endloop
  endfacet
  facet normal -5.46442791e-01 -8.37496434e-01 0.00000000e+00
    outer loop
      vertex -7.18722782 -8.18312998 0.00000000
      vertex -5.79201979 -9.09346385 0.00000000
      vertex -5.79201979 -9.09346385 19.10000000
    endloop
  endfacet
  facet normal -5.46442791e-01 -8.37496434e-01 0.00000000e+00
    outer loop
      vertex -7.18722782 -8.18312998 0.00000000
      vertex -5.79201979 -9.09346385 19.10000000
      vertex -7.18722782 -8.18312998 19.10000000
    endloop
  endfacet
  facet normal 0.00000000e+00 0.00000000e+00 -1.00000000e+00
    outer loop
      vertex 0.00000000 0.58227444 0.00000000
      vertex -4.27826840 -9.86915810 0.00000000
      vertex -5.79201979 -9.09346385 0.00000000
    endloop
  endfacet
  facet normal 0.00000000e+00 0.00000000e+00 1.00000000e+00
    outer loop
      vertex 0.00000000 0.58227444 19.10000000
      vertex -5.79201979 -9.09346385 19.10000000
      vertex -4.27826840 -9.86915810 19.10000000
    endloop
  endfacet
  facet normal -4.56042676e-01 -8.89957908e-01 0.00000000e+00
    outer loop
      vertex -5.79201979 -9.09346385 0.00000000
      vertex -4.27826840 -9.86915810 0.00000000
      vertex -4.27826840 -9.86915810 19.10000000
    endloop
  endfacet
  facet normal -4.56042676e-01 -8.89957908e-01 0.00000000e+00
    outer loop
      vertex -5.79201979 -9.09346385 0.00000000
      vertex -4.27826840 -9.86915810 19.10000000
      vertex -5.79201979 -9.09346385 19.10000000
    endloop
  endfacet
  facet normal 0.00000000e+00 0.00000000e+00 -1.00000000e+00
    outer loop
      vertex 0.00000000 0.58227444 0.00000000
      vertex -2.63584547 -10.44732187 0.00000000
      vertex -4.27826840 -9.86915810 0.00000000
    endloop
  endfacet
  facet normal 0.00000000e+00 0.00000000e+00 1.00000000e+00
    outer loop
      vertex 0.00000000 0.58227444 19.10000000
      vertex -4.27826840 -9.86915810 19.10000000
      vertex -2.63584547 -10.44732187 19.10000000
    endloop
  endfacet
  facet normal -3.32046349e-01 -9.43263072e-01 0.00000000e+00
    outer loop
      vertex -4.27826840 -9.86915810 0.00000000
      vertex -2.63584547 -10.44732187 0.00000000
      vertex -2.63584547 -10.44732187 19.10000000
    endloop
  endfacet
  facet normal -3.32046349e-01 -9.43263072e-01 0.00000000e+00
    outer loop
      vertex -4.27826840 -9.86915810 0.00000000
      vertex -2.63584547 -10.44732187 19.10000000
      vertex -4.27826840 -9.86915810 19.10000000
    endloop
  endfacet
  facet normal 0.00000000e+00 0.00000000e+00 -1.00000000e+00
    outer loop
      vertex 0.00000000 0.58227444 0.00000000
      vertex -0.89157830 -10.75883265 0.00000000
      vertex -2.63584547 -10.44732187 0.00000000
    endloop
  endfacet
  facet normal 0.00000000e+00 0.00000000e+00 1.00000000e+00
    outer loop
      vertex 0.00000000 0.58227444 19.10000000
      vertex -2.63584547 -10.44732187 19.10000000
      vertex -0.89157830 -10.75883265 19.10000000
    endloop
  endfacet
  facet normal -1.75809506e-01 -9.84424206e-01 0.00000000e+00
    outer loop
      vertex -2.63584547 -10.44732187 0.00000000
      vertex -0.89157830 -10.75883265 0.00000000
      vertex -0.89157830 -10.75883265 19.10000000
    endloop
  endfacet
  facet normal -1.75809506e-01 -9.84424206e-01 0.00000000e+00
    outer loop
      vertex -2.63584547 -10.44732187 0.00000000
      vertex -0.89157830 -10.75883265 19.10000000
      vertex -2.63584547 -10.44732187 19.10000000
    endloop
  endfacet
  facet normal 0.00000000e+00 -0.00000000e+00 -1.00000000e+00
    outer loop
      vertex 0.00000000 0.58227444 0.00000000
      vertex 0.89157830 -10.75883265 0.00000000
      vertex -0.89157830 -10.75883265 0.00000000
    endloop
  endfacet
  facet normal 0.00000000e+00 0.00000000e+00 1.00000000e+00
    outer loop
      vertex 0.00000000 0.58227444 19.10000000
      vertex -0.89157830 -10.75883265 19.10000000
      vertex 0.89157830 -10.75883265 19.10000000
    endloop
  endfacet
  facet normal 0.00000000e+00 -1.00000000e+00 0.00000000e+00
    outer loop
      vertex -0.89157830 -10.75883265 0.00000000
      vertex 0.89157830 -10.75883265 0.00000000
      vertex 0.89157830 -10.75883265 19.10000000
    endloop
  endfacet
  facet normal 0.00000000e+00 -1.00000000e+00 0.00000000e+00
    outer loop
      vertex -0.89157830 -10.75883265 0.00000000
      vertex 0.89157830 -10.75883265 19.10000000
      vertex -0.89157830 -10.75883265 19.10000000
    endloop
  endfacet
  facet normal 0.00000000e+00 0.00000000e+00 -1.00000000e+00
    outer loop
      vertex 0.00000000 0.58227444 0.00000000
      vertex 2.63584547 -10.44732187 0.00000000
      vertex 0.89157830 -10.75883265 0.00000000
    endloop
  endfacet
  facet normal 0.00000000e+00 0.00000000e+00 1.00000000e+00
    outer loop
      vertex 0.00000000 0.58227444 19.10000000
      vertex 0.89157830 -10.75883265 19.10000000
      vertex 2.63584547 -10.44732187 19.10000000
    endloop
  endfacet
  facet normal 1.75809506e-01 -9.84424206e-01 0.00000000e+00
    outer loop
      vertex 0.89157830 -10.75883265 0.00000000
      vertex 2.63584547 -10.44732187 0.00000000
      vertex 2.63584547 -10.44732187 19.10000000
    endloop
  endfacet
  facet normal 1.75809506e-01 -9.84424206e-01 0.00000000e+00
    outer loop
      vertex 0.89157830 -10.75883265 0.00000000
      vertex 2.63584547 -10.44732187 19.10000000
      vertex 0.89157830 -10.75883265 19.10000000
    endloop
  endfacet
  facet normal 0.00000000e+00 0.00000000e+00 -1.00000000e+00
    outer loop
      vertex 0.00000000 0.58227444 0.00000000
      vertex 4.27826840 -9.86915810 0.00000000
      vertex 2.63584547 -10.44732187 0.00000000
    endloop
  endfacet
  facet normal 0.00000000e+00 0.00000000e+00 1.00000000e+00
    outer loop
      vertex 0.00000000 0.58227444 19.10000000
      vertex 2.63584547 -10.44732187 19.10000000
      vertex 4.27826840 -9.86915810 19.10000000
    endloop
  endfacet
  facet normal 3.32046349e-01 -9.43263072e-01 0.00000000e+00
    outer loop
      vertex 2.63584547 -10.44732187 0.00000000
      vertex 4.27826840 -9.86915810 0.00000000
      vertex 4.27826840 -9.86915810 19.10000000
    endloop
  endfacet
  facet normal 3.32046349e-01 -9.43263072e-01 0.00000000e+00
    outer loop
      vertex 2.63584547 -10.44732187 0.00000000
      vertex 4.27826840 -9.86915810 19.10000000
      vertex 2.63584547 -10.44732187 19.10000000
    endloop
  endfacet
  facet normal 0.00000000e+00 0.00000000e+00 -1.00000000e+00
    outer loop
      vertex 0.00000000 0.58227444 0.00000000
      vertex 5.79201979 -9.09346385 0.00000000
      vertex 4.27826840 -9.86915810 0.00000000
    endloop
  endfacet
  facet normal 0.00000000e+00 0.00000000e+00 1.00000000e+00
    outer loop
      vertex 0.00000000 0.58227444 19.10000000
      vertex 4.27826840 -9.86915810 19.10000000
      vertex 5.79201979 -9.09346385 19.10000000
    endloop
  endfacet
  facet normal 4.56042676e-01 -8.89957908e-01 0.00000000e+00
    outer loop
      vertex 4.27826840 -9.86915810 0.00000000
      vertex 5.79201979 -9.09346385 0.00000000
      vertex 5.79201979 -9.09346385 19.10000000
    endloop
  endfacet
  facet normal 4.56042676e-01 -8.89957908e-01 0.00000000e+00
    outer loop
      vertex 4.27826840 -9.86915810 0.00000000
      vertex 5.79201979 -9.09346385 19.10000000
      vertex 4.27826840 -9.86915810 19.10000000
    endloop
  endfacet
  facet normal 0.00000000e+00 0.00000000e+00 -1.00000000e+00
    outer loop
      vertex 0.00000000 0.58227444 0.00000000
      vertex 7.18722782 -8.18312998 0.00000000
      vertex 5.79201979 -9.09346385 0.00000000
    endloop
  endfacet
  facet normal 0.00000000e+00 0.00000000e+00 1.00000000e+00
    outer loop
      vertex 0.00000000 0.58227444 19.10000000
      vertex 5.79201979 -9.09346385 19.10000000
      vertex 7.18722782 -8.18312998 19.10000000
    endloop
  endfacet
  facet normal 5.46442791e-01 -8.37496434e-01 0.00000000e+00
    outer loop
      vertex 5.79201979 -9.09346385 0.00000000
      vertex 7.18722782 -8.18312998 0.00000000
      vertex 7.18722782 -8.18312998 19.10000000
    endloop
  endfacet
  facet normal 5.46442791e-01 -8.37496434e-01 0.00000000e+00
    outer loop
      vertex 5.79201979 -9.09346385 0.00000000
      vertex 7.18722782 -8.18312998 19.10000000
      vertex 5.79201979 -9.09346385 19.10000000
    endloop
  endfacet
  facet normal 0.00000000e+00 0.00000000e+00 -1.00000000e+00
    outer loop
      vertex 0.00000000 0.58227444 0.00000000
      vertex 8.49042206 -7.17014942 0.00000000
      vertex 7.18722782 -8.18312998 0.00000000
    endloop
  endfacet
  facet normal 0.00000000e+00 0.00000000e+00 1.00000000e+00
    outer loop
      vertex 0.00000000 0.58227444 19.10000000
      vertex 7.18722782 -8.18312998 19.10000000
      vertex 8.49042206 -7.17014942 19.10000000
    endloop
  endfacet
  facet normal 6.13708440e-01 -7.89532742e-01 0.00000000e+00
    outer loop
      vertex 7.18722782 -8.18312998 0.00000000
      vertex 8.49042206 -7.17014942 0.00000000
      vertex 8.49042206 -7.17014942 19.10000000
    endloop
  endfacet
  facet normal 6.13708440e-01 -7.89532742e-01 0.00000000e+00
    outer loop
      vertex 7.18722782 -8.18312998 0.00000000
      vertex 8.49042206 -7.17014942 19.10000000
      vertex 7.18722782 -8.18312998 19.10000000
    endloop
  endfacet
  facet normal 0.00000000e+00 0.00000000e+00 -1.00000000e+00
    outer loop
      vertex 0.00000000 0.58227444 0.00000000
      vertex 9.71353167 -6.04926849 0.00000000
      vertex 8.49042206 -7.17014942 0.00000000
    endloop
  endfacet
  facet normal 0.00000000e+00 0.00000000e+00 1.00000000e+00
    outer loop
      vertex 0.00000000 0.58227444 19.10000000
      vertex 8.49042206 -7.17014942 19.10000000
      vertex 9.71353167 -6.04926849 19.10000000
    endloop
  endfacet
  facet normal 6.75625424e-01 -7.37245065e-01 0.00000000e+00
    outer loop
      vertex 8.49042206 -7.17014942 0.00000000
      vertex 9.71353167 -6.04926849 0.00000000
      vertex 9.71353167 -6.04926849 19.10000000
    endloop
  endfacet
  facet normal 6.75625424e-01 -7.37245065e-01 0.00000000e+00
    outer loop
      vertex 8.49042206 -7.17014942 0.00000000
      vertex 9.71353167 -6.04926849 19.10000000
      vertex 8.49042206 -7.17014942 19.10000000
    endloop
  endfacet
  facet normal 0.00000000e+00 0.00000000e+00 -1.00000000e+00
    outer loop
      vertex 0.00000000 0.58227444 0.00000000
      vertex 10.82942784 -4.79266476 0.00000000
      vertex 9.71353167 -6.04926849 0.00000000
    endloop
  endfacet
  facet normal 0.00000000e+00 0.00000000e+00 1.00000000e+00
    outer loop
      vertex 0.00000000 0.58227444 19.10000000
      vertex 9.71353167 -6.04926849 19.10000000
      vertex 10.82942784 -4.79266476 19.10000000
    endloop
  endfacet
  facet normal 7.47729791e-01 -6.64003132e-01 0.00000000e+00
    outer loop
      vertex 9.71353167 -6.04926849 0.00000000
      vertex 10.82942784 -4.79266476 0.00000000
      vertex 10.82942784 -4.79266476 19.10000000
    endloop
  endfacet
  facet normal 7.47729791e-01 -6.64003132e-01 0.00000000e+00
    outer loop
      vertex 9.71353167 -6.04926849 0.00000000
      vertex 10.82942784 -4.79266476 19.10000000
      vertex 9.71353167 -6.04926849 19.10000000
    endloop
  endfacet
  facet normal 0.00000000e+00 0.00000000e+00 -1.00000000e+00
    outer loop
      vertex 0.00000000 0.58227444 0.00000000
      vertex 11.76795327 -3.37726768 0.00000000
      vertex 10.82942784 -4.79266476 0.00000000
    endloop
  endfacet
  facet normal 0.00000000e+00 0.00000000e+00 1.00000000e+00
    outer loop
      vertex 0.00000000 0.58227444 19.10000000
      vertex 10.82942784 -4.79266476 19.10000000
      vertex 11.76795327 -3.37726768 19.10000000
    endloop
  endfacet
  facet normal 8.33426297e-01 -5.52630625e-01 0.00000000e+00
    outer loop
      vertex 10.82942784 -4.79266476 0.00000000
      vertex 11.76795327 -3.37726768 0.00000000
      vertex 11.76795327 -3.37726768 19.10000000
    endloop
  endfacet
  facet normal 8.33426297e-01 -5.52630625e-01 0.00000000e+00
    outer loop
      vertex 10.82942784 -4.79266476 0.00000000
      vertex 11.76795327 -3.37726768 19.10000000
      vertex 10.82942784 -4.79266476 19.10000000
    endloop
  endfacet
  facet normal 0.00000000e+00 0.00000000e+00 -1.00000000e+00
    outer loop
      vertex 0.00000000 0.58227444 0.00000000
      vertex 12.43576977 -1.80981934 0.00000000
      vertex 11.76795327 -3.37726768 0.00000000
    endloop
  endfacet
  facet normal 0.00000000e+00 0.00000000e+00 1.00000000e+00
    outer loop
      vertex 0.00000000 0.58227444 19.10000000
      vertex 11.76795327 -3.37726768 19.10000000
      vertex 12.43576977 -1.80981934 19.10000000
    endloop
  endfacet
  facet normal 9.19981735e-01 -3.91961233e-01 0.00000000e+00
    outer loop
      vertex 11.76795327 -3.37726768 0.00000000
      vertex 12.43576977 -1.80981934 0.00000000
      vertex 12.43576977 -1.80981934 19.10000000
    endloop
  endfacet
  facet normal 9.19981735e-01 -3.91961233e-01 0.00000000e+00
    outer loop
      vertex 11.76795327 -3.37726768 0.00000000
      vertex 12.43576977 -1.80981934 19.10000000
      vertex 11.76795327 -3.37726768 19.10000000
    endloop
  endfacet
  facet normal 0.00000000e+00 0.00000000e+00 -1.00000000e+00
    outer loop
      vertex 0.00000000 0.58227444 0.00000000
      vertex 12.75078836 -0.13625620 0.00000000
      vertex 12.43576977 -1.80981934 0.00000000
    endloop
  endfacet
  facet normal 0.00000000e+00 0.00000000e+00 1.00000000e+00
    outer loop
      vertex 0.00000000 0.58227444 19.10000000
      vertex 12.43576977 -1.80981934 19.10000000
      vertex 12.75078836 -0.13625620 19.10000000
    endloop
  endfacet
  facet normal 9.82741593e-01 -1.84983680e-01 0.00000000e+00
    outer loop
      vertex 12.43576977 -1.80981934 0.00000000
      vertex 12.75078836 -0.13625620 0.00000000
      vertex 12.75078836 -0.13625620 19.10000000
    endloop
  endfacet
  facet normal 9.82741593e-01 -1.84983680e-01 0.00000000e+00
    outer loop
      vertex 12.43576977 -1.80981934 0.00000000
      vertex 12.75078836 -0.13625620 19.10000000
      vertex 12.43576977 -1.80981934 19.10000000
    endloop
  endfacet
endsolid smooth_leaf_B_1h09_candidate_TIGHT_interp_scale1.0835_est4180s
