solid star12_refined_H19.18_R1.000_pred4167s
  facet normal 0.00000000e+00 0.00000000e+00 -1.00000000e+00
    outer loop
      vertex 0.00000000 0.00000000 0.00000000
      vertex 8.49969170 3.52068758 0.00000000
      vertex 13.05038871 1.71811627 0.00000000
    endloop
  endfacet
  facet normal 0.00000000e+00 0.00000000e+00 1.00000000e+00
    outer loop
      vertex 0.00000000 0.00000000 19.18000000
      vertex 13.05038871 1.71811627 19.18000000
      vertex 8.49969170 3.52068758 19.18000000
    endloop
  endfacet
  facet normal 3.68269886e-01 9.29718931e-01 0.00000000e+00
    outer loop
      vertex 13.05038871 1.71811627 0.00000000
      vertex 8.49969170 3.52068758 0.00000000
      vertex 8.49969170 3.52068758 19.18000000
    endloop
  endfacet
  facet normal 3.68269886e-01 9.29718931e-01 -0.00000000e+00
    outer loop
      vertex 13.05038871 1.71811627 0.00000000
      vertex 8.49969170 3.52068758 19.18000000
      vertex 13.05038871 1.71811627 19.18000000
    endloop
  endfacet
  facet normal 0.00000000e+00 0.00000000e+00 -1.00000000e+00
    outer loop
      vertex 0.00000000 0.00000000 0.00000000
      vertex 10.44291002 8.01312669 0.00000000
      vertex 8.49969170 3.52068758 0.00000000
    endloop
  endfacet
  facet normal 0.00000000e+00 0.00000000e+00 1.00000000e+00
    outer loop
      vertex 0.00000000 0.00000000 19.18000000
      vertex 8.49969170 3.52068758 19.18000000
      vertex 10.44291002 8.01312669 19.18000000
    endloop
  endfacet
  facet normal 9.17816695e-01 -3.97004427e-01 0.00000000e+00
    outer loop
      vertex 8.49969170 3.52068758 0.00000000
      vertex 10.44291002 8.01312669 0.00000000
      vertex 10.44291002 8.01312669 19.18000000
    endloop
  endfacet
  facet normal 9.17816695e-01 -3.97004427e-01 0.00000000e+00
    outer loop
      vertex 8.49969170 3.52068758 0.00000000
      vertex 10.44291002 8.01312669 19.18000000
      vertex 8.49969170 3.52068758 19.18000000
    endloop
  endfacet
  facet normal 0.00000000e+00 0.00000000e+00 -1.00000000e+00
    outer loop
      vertex 0.00000000 0.00000000 0.00000000
      vertex 5.60060515 7.29885073 0.00000000
      vertex 10.44291002 8.01312669 0.00000000
    endloop
  endfacet
  facet normal 0.00000000e+00 0.00000000e+00 1.00000000e+00
    outer loop
      vertex 0.00000000 0.00000000 19.18000000
      vertex 10.44291002 8.01312669 19.18000000
      vertex 5.60060515 7.29885073 19.18000000
    endloop
  endfacet
  facet normal -1.45928389e-01 9.89295156e-01 0.00000000e+00
    outer loop
      vertex 10.44291002 8.01312669 0.00000000
      vertex 5.60060515 7.29885073 0.00000000
      vertex 5.60060515 7.29885073 19.18000000
    endloop
  endfacet
  facet normal -1.45928389e-01 9.89295156e-01 0.00000000e+00
    outer loop
      vertex 10.44291002 8.01312669 0.00000000
      vertex 5.60060515 7.29885073 19.18000000
      vertex 10.44291002 8.01312669 19.18000000
    endloop
  endfacet
  facet normal 0.00000000e+00 0.00000000e+00 -1.00000000e+00
    outer loop
      vertex 0.00000000 0.00000000 0.00000000
      vertex 5.03726202 12.16102629 0.00000000
      vertex 5.60060515 7.29885073 0.00000000
    endloop
  endfacet
  facet normal 0.00000000e+00 0.00000000e+00 1.00000000e+00
    outer loop
      vertex 0.00000000 0.00000000 19.18000000
      vertex 5.60060515 7.29885073 19.18000000
      vertex 5.03726202 12.16102629 19.18000000
    endloop
  endfacet
  facet normal 9.93354787e-01 1.15092428e-01 0.00000000e+00
    outer loop
      vertex 5.60060515 7.29885073 0.00000000
      vertex 5.03726202 12.16102629 0.00000000
      vertex 5.03726202 12.16102629 19.18000000
    endloop
  endfacet
  facet normal 9.93354787e-01 1.15092428e-01 -0.00000000e+00
    outer loop
      vertex 5.60060515 7.29885073 0.00000000
      vertex 5.03726202 12.16102629 19.18000000
      vertex 5.60060515 7.29885073 19.18000000
    endloop
  endfacet
  facet normal 0.00000000e+00 0.00000000e+00 -1.00000000e+00
    outer loop
      vertex 0.00000000 0.00000000 0.00000000
      vertex 1.20084097 9.12129272 0.00000000
      vertex 5.03726202 12.16102629 0.00000000
    endloop
  endfacet
  facet normal 0.00000000e+00 0.00000000e+00 1.00000000e+00
    outer loop
      vertex 0.00000000 0.00000000 19.18000000
      vertex 5.03726202 12.16102629 19.18000000
      vertex 1.20084097 9.12129272 19.18000000
    endloop
  endfacet
  facet normal -6.21025270e-01 7.83790543e-01 0.00000000e+00
    outer loop
      vertex 5.03726202 12.16102629 0.00000000
      vertex 1.20084097 9.12129272 0.00000000
      vertex 1.20084097 9.12129272 19.18000000
    endloop
  endfacet
  facet normal -6.21025270e-01 7.83790543e-01 0.00000000e+00
    outer loop
      vertex 5.03726202 12.16102629 0.00000000
      vertex 1.20084097 9.12129272 19.18000000
      vertex 5.03726202 12.16102629 19.18000000
    endloop
  endfacet
  facet normal 0.00000000e+00 0.00000000e+00 -1.00000000e+00
    outer loop
      vertex 0.00000000 0.00000000 0.00000000
      vertex -1.71811627 13.05038871 0.00000000
      vertex 1.20084097 9.12129272 0.00000000
    endloop
  endfacet
  facet normal 0.00000000e+00 -0.00000000e+00 1.00000000e+00
    outer loop
      vertex 0.00000000 0.00000000 19.18000000
      vertex 1.20084097 9.12129272 19.18000000
      vertex -1.71811627 13.05038871 19.18000000
    endloop
  endfacet
  facet normal 8.02724266e-01 5.96350360e-01 0.00000000e+00
    outer loop
      vertex 1.20084097 9.12129272 0.00000000
      vertex -1.71811627 13.05038871 0.00000000
      vertex -1.71811627 13.05038871 19.18000000
    endloop
  endfacet
  facet normal 8.02724266e-01 5.96350360e-01 -0.00000000e+00
    outer loop
      vertex 1.20084097 9.12129272 0.00000000
      vertex -1.71811627 13.05038871 19.18000000
      vertex 1.20084097 9.12129272 19.18000000
    endloop
  endfacet
  facet normal 0.00000000e+00 0.00000000e+00 -1.00000000e+00
    outer loop
      vertex 0.00000000 0.00000000 0.00000000
      vertex -3.52068758 8.49969170 0.00000000
      vertex -1.71811627 13.05038871 0.00000000
    endloop
  endfacet
  facet normal 0.00000000e+00 0.00000000e+00 1.00000000e+00
    outer loop
      vertex 0.00000000 0.00000000 19.18000000
      vertex -1.71811627 13.05038871 19.18000000
      vertex -3.52068758 8.49969170 19.18000000
    endloop
  endfacet
  facet normal -9.29718931e-01 3.68269886e-01 0.00000000e+00
    outer loop
      vertex -1.71811627 13.05038871 0.00000000
      vertex -3.52068758 8.49969170 0.00000000
      vertex -3.52068758 8.49969170 19.18000000
    endloop
  endfacet
  facet normal -9.29718931e-01 3.68269886e-01 0.00000000e+00
    outer loop
      vertex -1.71811627 13.05038871 0.00000000
      vertex -3.52068758 8.49969170 19.18000000
      vertex -1.71811627 13.05038871 19.18000000
    endloop
  endfacet
  facet normal 0.00000000e+00 0.00000000e+00 -1.00000000e+00
    outer loop
      vertex 0.00000000 0.00000000 0.00000000
      vertex -8.01312669 10.44291002 0.00000000
      vertex -3.52068758 8.49969170 0.00000000
    endloop
  endfacet
  facet normal 0.00000000e+00 0.00000000e+00 1.00000000e+00
    outer loop
      vertex 0.00000000 0.00000000 19.18000000
      vertex -3.52068758 8.49969170 19.18000000
      vertex -8.01312669 10.44291002 19.18000000
    endloop
  endfacet
  facet normal 3.97004427e-01 9.17816695e-01 0.00000000e+00
    outer loop
      vertex -3.52068758 8.49969170 0.00000000
      vertex -8.01312669 10.44291002 0.00000000
      vertex -8.01312669 10.44291002 19.18000000
    endloop
  endfacet
  facet normal 3.97004427e-01 9.17816695e-01 -0.00000000e+00
    outer loop
      vertex -3.52068758 8.49969170 0.00000000
      vertex -8.01312669 10.44291002 19.18000000
      vertex -3.52068758 8.49969170 19.18000000
    endloop
  endfacet
  facet normal 0.00000000e+00 0.00000000e+00 -1.00000000e+00
    outer loop
      vertex 0.00000000 0.00000000 0.00000000
      vertex -7.29885073 5.60060515 0.00000000
      vertex -8.01312669 10.44291002 0.00000000
    endloop
  endfacet
  facet normal 0.00000000e+00 0.00000000e+00 1.00000000e+00
    outer loop
      vertex 0.00000000 0.00000000 19.18000000
      vertex -8.01312669 10.44291002 19.18000000
      vertex -7.29885073 5.60060515 19.18000000
    endloop
  endfacet
  facet normal -9.89295156e-01 -1.45928389e-01 0.00000000e+00
    outer loop
      vertex -8.01312669 10.44291002 0.00000000
      vertex -7.29885073 5.60060515 0.00000000
      vertex -7.29885073 5.60060515 19.18000000
    endloop
  endfacet
  facet normal -9.89295156e-01 -1.45928389e-01 0.00000000e+00
    outer loop
      vertex -8.01312669 10.44291002 0.00000000
      vertex -7.29885073 5.60060515 19.18000000
      vertex -8.01312669 10.44291002 19.18000000
    endloop
  endfacet
  facet normal 0.00000000e+00 0.00000000e+00 -1.00000000e+00
    outer loop
      vertex 0.00000000 0.00000000 0.00000000
      vertex -12.16102629 5.03726202 0.00000000
      vertex -7.29885073 5.60060515 0.00000000
    endloop
  endfacet
  facet normal 0.00000000e+00 0.00000000e+00 1.00000000e+00
    outer loop
      vertex 0.00000000 0.00000000 19.18000000
      vertex -7.29885073 5.60060515 19.18000000
      vertex -12.16102629 5.03726202 19.18000000
    endloop
  endfacet
  facet normal -1.15092428e-01 9.93354787e-01 0.00000000e+00
    outer loop
      vertex -7.29885073 5.60060515 0.00000000
      vertex -12.16102629 5.03726202 0.00000000
      vertex -12.16102629 5.03726202 19.18000000
    endloop
  endfacet
  facet normal -1.15092428e-01 9.93354787e-01 0.00000000e+00
    outer loop
      vertex -7.29885073 5.60060515 0.00000000
      vertex -12.16102629 5.03726202 19.18000000
      vertex -7.29885073 5.60060515 19.18000000
    endloop
  endfacet
  facet normal 0.00000000e+00 0.00000000e+00 -1.00000000e+00
    outer loop
      vertex 0.00000000 0.00000000 0.00000000
      vertex -9.12129272 1.20084097 0.00000000
      vertex -12.16102629 5.03726202 0.00000000
    endloop
  endfacet
  facet normal 0.00000000e+00 0.00000000e+00 1.00000000e+00
    outer loop
      vertex 0.00000000 0.00000000 19.18000000
      vertex -12.16102629 5.03726202 19.18000000
      vertex -9.12129272 1.20084097 19.18000000
    endloop
  endfacet
  facet normal -7.83790543e-01 -6.21025270e-01 0.00000000e+00
    outer loop
      vertex -12.16102629 5.03726202 0.00000000
      vertex -9.12129272 1.20084097 0.00000000
      vertex -9.12129272 1.20084097 19.18000000
    endloop
  endfacet
  facet normal -7.83790543e-01 -6.21025270e-01 0.00000000e+00
    outer loop
      vertex -12.16102629 5.03726202 0.00000000
      vertex -9.12129272 1.20084097 19.18000000
      vertex -12.16102629 5.03726202 19.18000000
    endloop
  endfacet
  facet normal -0.00000000e+00 0.00000000e+00 -1.00000000e+00
    outer loop
      vertex 0.00000000 0.00000000 0.00000000
      vertex -13.05038871 -1.71811627 0.00000000
      vertex -9.12129272 1.20084097 0.00000000
    endloop
  endfacet
  facet normal 0.00000000e+00 0.00000000e+00 1.00000000e+00
    outer loop
      vertex 0.00000000 0.00000000 19.18000000
      vertex -9.12129272 1.20084097 19.18000000
      vertex -13.05038871 -1.71811627 19.18000000
    endloop
  endfacet
  facet normal -5.96350360e-01 8.02724266e-01 0.00000000e+00
    outer loop
      vertex -9.12129272 1.20084097 0.00000000
      vertex -13.05038871 -1.71811627 0.00000000
      vertex -13.05038871 -1.71811627 19.18000000
    endloop
  endfacet
  facet normal -5.96350360e-01 8.02724266e-01 0.00000000e+00
    outer loop
      vertex -9.12129272 1.20084097 0.00000000
      vertex -13.05038871 -1.71811627 19.18000000
      vertex -9.12129272 1.20084097 19.18000000
    endloop
  endfacet
  facet normal 0.00000000e+00 0.00000000e+00 -1.00000000e+00
    outer loop
      vertex 0.00000000 0.00000000 0.00000000
      vertex -8.49969170 -3.52068758 0.00000000
      vertex -13.05038871 -1.71811627 0.00000000
    endloop
  endfacet
  facet normal 0.00000000e+00 0.00000000e+00 1.00000000e+00
    outer loop
      vertex 0.00000000 0.00000000 19.18000000
      vertex -13.05038871 -1.71811627 19.18000000
      vertex -8.49969170 -3.52068758 19.18000000
    endloop
  endfacet
  facet normal -3.68269886e-01 -9.29718931e-01 0.00000000e+00
    outer loop
      vertex -13.05038871 -1.71811627 0.00000000
      vertex -8.49969170 -3.52068758 0.00000000
      vertex -8.49969170 -3.52068758 19.18000000
    endloop
  endfacet
  facet normal -3.68269886e-01 -9.29718931e-01 0.00000000e+00
    outer loop
      vertex -13.05038871 -1.71811627 0.00000000
      vertex -8.49969170 -3.52068758 19.18000000
      vertex -13.05038871 -1.71811627 19.18000000
    endloop
  endfacet
  facet normal 0.00000000e+00 0.00000000e+00 -1.00000000e+00
    outer loop
      vertex 0.00000000 0.00000000 0.00000000
      vertex -10.44291002 -8.01312669 0.00000000
      vertex -8.49969170 -3.52068758 0.00000000
    endloop
  endfacet
  facet normal 0.00000000e+00 0.00000000e+00 1.00000000e+00
    outer loop
      vertex 0.00000000 0.00000000 19.18000000
      vertex -8.49969170 -3.52068758 19.18000000
      vertex -10.44291002 -8.01312669 19.18000000
    endloop
  endfacet
  facet normal -9.17816695e-01 3.97004427e-01 0.00000000e+00
    outer loop
      vertex -8.49969170 -3.52068758 0.00000000
      vertex -10.44291002 -8.01312669 0.00000000
      vertex -10.44291002 -8.01312669 19.18000000
    endloop
  endfacet
  facet normal -9.17816695e-01 3.97004427e-01 0.00000000e+00
    outer loop
      vertex -8.49969170 -3.52068758 0.00000000
      vertex -10.44291002 -8.01312669 19.18000000
      vertex -8.49969170 -3.52068758 19.18000000
    endloop
  endfacet
  facet normal 0.00000000e+00 0.00000000e+00 -1.00000000e+00
    outer loop
      vertex 0.00000000 0.00000000 0.00000000
      vertex -5.60060515 -7.29885073 0.00000000
      vertex -10.44291002 -8.01312669 0.00000000
    endloop
  endfacet
  facet normal 0.00000000e+00 0.00000000e+00 1.00000000e+00
    outer loop
      vertex 0.00000000 0.00000000 19.18000000
      vertex -10.44291002 -8.01312669 19.18000000
      vertex -5.60060515 -7.29885073 19.18000000
    endloop
  endfacet
  facet normal 1.45928389e-01 -9.89295156e-01 0.00000000e+00
    outer loop
      vertex -10.44291002 -8.01312669 0.00000000
      vertex -5.60060515 -7.29885073 0.00000000
      vertex -5.60060515 -7.29885073 19.18000000
    endloop
  endfacet
  facet normal 1.45928389e-01 -9.89295156e-01 0.00000000e+00
    outer loop
      vertex -10.44291002 -8.01312669 0.00000000
      vertex -5.60060515 -7.29885073 19.18000000
      vertex -10.44291002 -8.01312669 19.18000000
    endloop
  endfacet
  facet normal 0.00000000e+00 0.00000000e+00 -1.00000000e+00
    outer loop
      vertex 0.00000000 0.00000000 0.00000000
      vertex -5.03726202 -12.16102629 0.00000000
      vertex -5.60060515 -7.29885073 0.00000000
    endloop
  endfacet
  facet normal 0.00000000e+00 0.00000000e+00 1.00000000e+00
    outer loop
      vertex 0.00000000 0.00000000 19.18000000
      vertex -5.60060515 -7.29885073 19.18000000
      vertex -5.03726202 -12.16102629 19.18000000
    endloop
  endfacet
  facet normal -9.93354787e-01 -1.15092428e-01 0.00000000e+00
    outer loop
      vertex -5.60060515 -7.29885073 0.00000000
      vertex -5.03726202 -12.16102629 0.00000000
      vertex -5.03726202 -12.16102629 19.18000000
    endloop
  endfacet
  facet normal -9.93354787e-01 -1.15092428e-01 0.00000000e+00
    outer loop
      vertex -5.60060515 -7.29885073 0.00000000
      vertex -5.03726202 -12.16102629 19.18000000
      vertex -5.60060515 -7.29885073 19.18000000
    endloop
  endfacet
  facet normal 0.00000000e+00 0.00000000e+00 -1.00000000e+00
    outer loop
      vertex 0.00000000 0.00000000 0.00000000
      vertex -1.20084097 -9.12129272 0.00000000
      vertex -5.03726202 -12.16102629 0.00000000
    endloop
  endfacet
  facet normal 0.00000000e+00 0.00000000e+00 1.00000000e+00
    outer loop
      vertex 0.00000000 0.00000000 19.18000000
      vertex -5.03726202 -12.16102629 19.18000000
      vertex -1.20084097 -9.12129272 19.18000000
    endloop
  endfacet
  facet normal 6.21025270e-01 -7.83790543e-01 0.00000000e+00
    outer loop
      vertex -5.03726202 -12.16102629 0.00000000
      vertex -1.20084097 -9.12129272 0.00000000
      vertex -1.20084097 -9.12129272 19.18000000
    endloop
  endfacet
  facet normal 6.21025270e-01 -7.83790543e-01 0.00000000e+00
    outer loop
      vertex -5.03726202 -12.16102629 0.00000000
      vertex -1.20084097 -9.12129272 19.18000000
      vertex -5.03726202 -12.16102629 19.18000000
    endloop
  endfacet
  facet normal 0.00000000e+00 -0.00000000e+00 -1.00000000e+00
    outer loop
      vertex 0.00000000 0.00000000 0.00000000
      vertex 1.71811627 -13.05038871 0.00000000
      vertex -1.20084097 -9.12129272 0.00000000
    endloop
  endfacet
  facet normal 0.00000000e+00 0.00000000e+00 1.00000000e+00
    outer loop
      vertex 0.00000000 0.00000000 19.18000000
      vertex -1.20084097 -9.12129272 19.18000000
      vertex 1.71811627 -13.05038871 19.18000000
    endloop
  endfacet
  facet normal -8.02724266e-01 -5.96350360e-01 0.00000000e+00
    outer loop
      vertex -1.20084097 -9.12129272 0.00000000
      vertex 1.71811627 -13.05038871 0.00000000
      vertex 1.71811627 -13.05038871 19.18000000
    endloop
  endfacet
  facet normal -8.02724266e-01 -5.96350360e-01 0.00000000e+00
    outer loop
      vertex -1.20084097 -9.12129272 0.00000000
      vertex 1.71811627 -13.05038871 19.18000000
      vertex -1.20084097 -9.12129272 19.18000000
    endloop
  endfacet
  facet normal 0.00000000e+00 0.00000000e+00 -1.00000000e+00
    outer loop
      vertex 0.00000000 0.00000000 0.00000000
      vertex 3.52068758 -8.49969170 0.00000000
      vertex 1.71811627 -13.05038871 0.00000000
    endloop
  endfacet
  facet normal 0.00000000e+00 0.00000000e+00 1.00000000e+00
    outer loop
      vertex 0.00000000 0.00000000 19.18000000
      vertex 1.71811627 -13.05038871 19.18000000
      vertex 3.52068758 -8.49969170 19.18000000
    endloop
  endfacet
  facet normal 9.29718931e-01 -3.68269886e-01 0.00000000e+00
    outer loop
      vertex 1.71811627 -13.05038871 0.00000000
      vertex 3.52068758 -8.49969170 0.00000000
      vertex 3.52068758 -8.49969170 19.18000000
    endloop
  endfacet
  facet normal 9.29718931e-01 -3.68269886e-01 0.00000000e+00
    outer loop
      vertex 1.71811627 -13.05038871 0.00000000
      vertex 3.52068758 -8.49969170 19.18000000
      vertex 1.71811627 -13.05038871 19.18000000
    endloop
  endfacet
  facet normal 0.00000000e+00 0.00000000e+00 -1.00000000e+00
    outer loop
      vertex 0.00000000 0.00000000 0.00000000
      vertex 8.01312669 -10.44291002 0.00000000
      vertex 3.52068758 -8.49969170 0.00000000
    endloop
  endfacet
  facet normal 0.00000000e+00 0.00000000e+00 1.00000000e+00
    outer loop
      vertex 0.00000000 0.00000000 19.18000000
      vertex 3.52068758 -8.49969170 19.18000000
      vertex 8.01312669 -10.44291002 19.18000000
    endloop
  endfacet
  facet normal -3.97004427e-01 -9.17816695e-01 0.00000000e+00
    outer loop
      vertex 3.52068758 -8.49969170 0.00000000
      vertex 8.01312669 -10.44291002 0.00000000
      vertex 8.01312669 -10.44291002 19.18000000
    endloop
  endfacet
  facet normal -3.97004427e-01 -9.17816695e-01 0.00000000e+00
    outer loop
      vertex 3.52068758 -8.49969170 0.00000000
      vertex 8.01312669 -10.44291002 19.18000000
      vertex 3.52068758 -8.49969170 19.18000000
    endloop
  endfacet
  facet normal 0.00000000e+00 0.00000000e+00 -1.00000000e+00
    outer loop
      vertex 0.00000000 0.00000000 0.00000000
      vertex 7.29885073 -5.60060515 0.00000000
      vertex 8.01312669 -10.44291002 0.00000000
    endloop
  endfacet
  facet normal 0.00000000e+00 0.00000000e+00 1.00000000e+00
    outer loop
      vertex 0.00000000 0.00000000 19.18000000
      vertex 8.01312669 -10.44291002 19.18000000
      vertex 7.29885073 -5.60060515 19.18000000
    endloop
  endfacet
  facet normal 9.89295156e-01 1.45928389e-01 0.00000000e+00
    outer loop
      vertex 8.01312669 -10.44291002 0.00000000
      vertex 7.29885073 -5.60060515 0.00000000
      vertex 7.29885073 -5.60060515 19.18000000
    endloop
  endfacet
  facet normal 9.89295156e-01 1.45928389e-01 -0.00000000e+00
    outer loop
      vertex 8.01312669 -10.44291002 0.00000000
      vertex 7.29885073 -5.60060515 19.18000000
      vertex 8.01312669 -10.44291002 19.18000000
    endloop
  endfacet
  facet normal 0.00000000e+00 0.00000000e+00 -1.00000000e+00
    outer loop
      vertex 0.00000000 0.00000000 0.00000000
      vertex 12.16102629 -5.03726202 0.00000000
      vertex 7.29885073 -5.60060515 0.00000000
    endloop
  endfacet
  facet normal 0.00000000e+00 0.00000000e+00 1.00000000e+00
    outer loop
      vertex 0.00000000 0.00000000 19.18000000
      vertex 7.29885073 -5.60060515 19.18000000
      vertex 12.16102629 -5.03726202 19.18000000
    endloop
  endfacet
  facet normal 1.15092428e-01 -9.93354787e-01 0.00000000e+00
    outer loop
      vertex 7.29885073 -5.60060515 0.00000000
      vertex 12.16102629 -5.03726202 0.00000000
      vertex 12.16102629 -5.03726202 19.18000000
    endloop
  endfacet
  facet normal 1.15092428e-01 -9.93354787e-01 0.00000000e+00
    outer loop
      vertex 7.29885073 -5.60060515 0.00000000
      vertex 12.16102629 -5.03726202 19.18000000
      vertex 7.29885073 -5.60060515 19.18000000
    endloop
  endfacet
  facet normal 0.00000000e+00 0.00000000e+00 -1.00000000e+00
    outer loop
      vertex 0.00000000 0.00000000 0.00000000
      vertex 9.12129272 -1.20084097 0.00000000
      vertex 12.16102629 -5.03726202 0.00000000
    endloop
  endfacet
  facet normal 0.00000000e+00 0.00000000e+00 1.00000000e+00
    outer loop
      vertex 0.00000000 0.00000000 19.18000000
      vertex 12.16102629 -5.03726202 19.18000000
      vertex 9.12129272 -1.20084097 19.18000000
    endloop
  endfacet
  facet normal 7.83790543e-01 6.21025270e-01 0.00000000e+00
    outer loop
      vertex 12.16102629 -5.03726202 0.00000000
      vertex 9.12129272 -1.20084097 0.00000000
      vertex 9.12129272 -1.20084097 19.18000000
    endloop
  endfacet
  facet normal 7.83790543e-01 6.21025270e-01 -0.00000000e+00
    outer loop
      vertex 12.16102629 -5.03726202 0.00000000
      vertex 9.12129272 -1.20084097 19.18000000
      vertex 12.16102629 -5.03726202 19.18000000
    endloop
  endfacet
  facet normal 0.00000000e+00 0.00000000e+00 -1.00000000e+00
    outer loop
      vertex 0.00000000 0.00000000 0.00000000
      vertex 13.05038871 1.71811627 0.00000000
      vertex 9.12129272 -1.20084097 0.00000000
    endloop
  endfacet
  facet normal -0.00000000e+00 0.00000000e+00 1.00000000e+00
    outer loop
      vertex 0.00000000 0.00000000 19.18000000
      vertex 9.12129272 -1.20084097 19.18000000
      vertex 13.05038871 1.71811627 19.18000000
    endloop
  endfacet
  facet normal 5.96350360e-01 -8.02724266e-01 0.00000000e+00
    outer loop
      vertex 9.12129272 -1.20084097 0.00000000
      vertex 13.05038871 1.71811627 0.00000000
      vertex 13.05038871 1.71811627 19.18000000
    endloop
  endfacet
  facet normal 5.96350360e-01 -8.02724266e-01 0.00000000e+00
    outer loop
      vertex 9.12129272 -1.20084097 0.00000000
      vertex 13.05038871 1.71811627 19.18000000
      vertex 9.12129272 -1.20084097 19.18000000
    endloop
  endfacet
endsolid star12_refined_H19.18_R1.000_pred4167s
